G04 #@! TF.GenerationSoftware,KiCad,Pcbnew,(6.0.8-1)-1*
G04 #@! TF.CreationDate,2022-11-19T13:53:03+02:00*
G04 #@! TF.ProjectId,AidonToRS485,4169646f-6e54-46f5-9253-3438352e6b69,1*
G04 #@! TF.SameCoordinates,Original*
G04 #@! TF.FileFunction,Copper,L2,Inr*
G04 #@! TF.FilePolarity,Positive*
%FSLAX46Y46*%
G04 Gerber Fmt 4.6, Leading zero omitted, Abs format (unit mm)*
G04 Created by KiCad (PCBNEW (6.0.8-1)-1) date 2022-11-19 13:53:03*
%MOMM*%
%LPD*%
G01*
G04 APERTURE LIST*
G04 #@! TA.AperFunction,ComponentPad*
%ADD10R,1.520000X1.520000*%
G04 #@! TD*
G04 #@! TA.AperFunction,ComponentPad*
%ADD11C,1.520000*%
G04 #@! TD*
G04 #@! TA.AperFunction,ComponentPad*
%ADD12R,1.700000X1.700000*%
G04 #@! TD*
G04 #@! TA.AperFunction,ComponentPad*
%ADD13O,1.700000X1.700000*%
G04 #@! TD*
G04 #@! TA.AperFunction,ComponentPad*
%ADD14R,2.600000X2.600000*%
G04 #@! TD*
G04 #@! TA.AperFunction,ComponentPad*
%ADD15C,2.600000*%
G04 #@! TD*
G04 #@! TA.AperFunction,ViaPad*
%ADD16C,4.000000*%
G04 #@! TD*
G04 #@! TA.AperFunction,ViaPad*
%ADD17C,0.889000*%
G04 #@! TD*
G04 #@! TA.AperFunction,ViaPad*
%ADD18C,5.000000*%
G04 #@! TD*
G04 #@! TA.AperFunction,ViaPad*
%ADD19C,0.685800*%
G04 #@! TD*
G04 #@! TA.AperFunction,Conductor*
%ADD20C,0.508000*%
G04 #@! TD*
G04 #@! TA.AperFunction,Conductor*
%ADD21C,0.762000*%
G04 #@! TD*
G04 APERTURE END LIST*
D10*
X101000000Y-105000000D03*
D11*
X98460000Y-103980000D03*
X101000000Y-102960000D03*
X98460000Y-101940000D03*
X101000000Y-100920000D03*
X98460000Y-99900000D03*
D12*
X120225000Y-92000000D03*
D13*
X122765000Y-92000000D03*
D14*
X124000000Y-107500000D03*
D15*
X124000000Y-102420000D03*
X124000000Y-97340000D03*
D16*
X132000000Y-107000000D03*
D17*
X115050000Y-100000000D03*
D18*
X93000000Y-112000000D03*
X131500000Y-112000000D03*
X93000000Y-93000000D03*
D17*
X102450000Y-103250000D03*
D18*
X131500000Y-93000000D03*
D16*
X132000000Y-98000000D03*
D19*
X110650000Y-97350000D03*
D17*
X104250000Y-100500000D03*
X110000000Y-104750000D03*
D19*
X111350000Y-96650000D03*
X111500000Y-97350000D03*
D17*
X113000000Y-104750000D03*
X104250000Y-99250000D03*
X116000000Y-104750000D03*
D19*
X110600000Y-96600000D03*
D17*
X107875000Y-111475000D03*
X105250000Y-108750000D03*
X112250000Y-111500000D03*
X113000000Y-109000000D03*
X117650000Y-99050000D03*
X114500000Y-97000000D03*
X117650000Y-100950000D03*
X107200000Y-105550000D03*
X108625000Y-107800000D03*
X117250000Y-95500000D03*
D20*
X106625000Y-109400000D02*
X106675000Y-109450000D01*
X103750000Y-107250000D02*
X103750000Y-102500000D01*
X105975000Y-108750000D02*
X106625000Y-109400000D01*
X102170000Y-100920000D02*
X101000000Y-100920000D01*
X106675000Y-109450000D02*
X106675000Y-110850000D01*
X107300000Y-111475000D02*
X107875000Y-111475000D01*
X106675000Y-110850000D02*
X107300000Y-111475000D01*
X103750000Y-102500000D02*
X102170000Y-100920000D01*
X105250000Y-108750000D02*
X103750000Y-107250000D01*
X105250000Y-108750000D02*
X105975000Y-108750000D01*
X112250000Y-109750000D02*
X113000000Y-109000000D01*
X112250000Y-111500000D02*
X112250000Y-109750000D01*
X122765000Y-92000000D02*
X124000000Y-93235000D01*
D21*
X122050000Y-99050000D02*
X117650000Y-99050000D01*
X124000000Y-97340000D02*
X122290000Y-99050000D01*
D20*
X124000000Y-93235000D02*
X124000000Y-97340000D01*
D21*
X122290000Y-99050000D02*
X122050000Y-99050000D01*
X122300000Y-100950000D02*
X117650000Y-100950000D01*
X122530000Y-100950000D02*
X122300000Y-100950000D01*
X124000000Y-102420000D02*
X122530000Y-100950000D01*
D20*
X108625000Y-107800000D02*
X108625000Y-106975000D01*
X108625000Y-106975000D02*
X107200000Y-105550000D01*
X117250000Y-95500000D02*
X118000000Y-95500000D01*
X118000000Y-95500000D02*
X120225000Y-93275000D01*
X120225000Y-93275000D02*
X120225000Y-92000000D01*
G04 #@! TA.AperFunction,Conductor*
G36*
X119072895Y-90528502D02*
G01*
X119119388Y-90582158D01*
X119129492Y-90652432D01*
X119099998Y-90717012D01*
X119080339Y-90735326D01*
X119051903Y-90756638D01*
X119011739Y-90786739D01*
X118924385Y-90903295D01*
X118873255Y-91039684D01*
X118866500Y-91101866D01*
X118866500Y-92898134D01*
X118873255Y-92960316D01*
X118924385Y-93096705D01*
X119011739Y-93213261D01*
X119018919Y-93218642D01*
X119021875Y-93221598D01*
X119055901Y-93283910D01*
X119050836Y-93354725D01*
X119021877Y-93399785D01*
X117806509Y-94615153D01*
X117744197Y-94649179D01*
X117673381Y-94644114D01*
X117657484Y-94636893D01*
X117626510Y-94620145D01*
X117626509Y-94620144D01*
X117621089Y-94617214D01*
X117531821Y-94589581D01*
X117448441Y-94563770D01*
X117448438Y-94563769D01*
X117442554Y-94561948D01*
X117436429Y-94561304D01*
X117436428Y-94561304D01*
X117262813Y-94543056D01*
X117262812Y-94543056D01*
X117256685Y-94542412D01*
X117138087Y-94553206D01*
X117076703Y-94558792D01*
X117076702Y-94558792D01*
X117070562Y-94559351D01*
X117064648Y-94561092D01*
X117064646Y-94561092D01*
X116942466Y-94597052D01*
X116891273Y-94612119D01*
X116885808Y-94614976D01*
X116748085Y-94686975D01*
X116725647Y-94698705D01*
X116579995Y-94815813D01*
X116459862Y-94958981D01*
X116456899Y-94964370D01*
X116456896Y-94964375D01*
X116404238Y-95060161D01*
X116369826Y-95122757D01*
X116313315Y-95300901D01*
X116292482Y-95486630D01*
X116292998Y-95492774D01*
X116304716Y-95632316D01*
X116308121Y-95672867D01*
X116359636Y-95852520D01*
X116397712Y-95926609D01*
X116430396Y-95990204D01*
X116445064Y-96018746D01*
X116448887Y-96023570D01*
X116448890Y-96023574D01*
X116514041Y-96105773D01*
X116561152Y-96165212D01*
X116565846Y-96169207D01*
X116681015Y-96267224D01*
X116703478Y-96286342D01*
X116866621Y-96377519D01*
X117044367Y-96435272D01*
X117229945Y-96457401D01*
X117236080Y-96456929D01*
X117236082Y-96456929D01*
X117292119Y-96452617D01*
X117416287Y-96443063D01*
X117596296Y-96392804D01*
X117601785Y-96390031D01*
X117601791Y-96390029D01*
X117728814Y-96325864D01*
X117763114Y-96308538D01*
X117787853Y-96289210D01*
X117853844Y-96263033D01*
X117865424Y-96262500D01*
X117932624Y-96262500D01*
X117951574Y-96263933D01*
X117965973Y-96266124D01*
X117965979Y-96266124D01*
X117973208Y-96267224D01*
X117980500Y-96266631D01*
X117980503Y-96266631D01*
X118026183Y-96262915D01*
X118036398Y-96262500D01*
X118044525Y-96262500D01*
X118048161Y-96262076D01*
X118048163Y-96262076D01*
X118051615Y-96261673D01*
X118072924Y-96259189D01*
X118077244Y-96258762D01*
X118150426Y-96252809D01*
X118157388Y-96250553D01*
X118163376Y-96249357D01*
X118169333Y-96247949D01*
X118176607Y-96247101D01*
X118183489Y-96244603D01*
X118183493Y-96244602D01*
X118245607Y-96222055D01*
X118249711Y-96220645D01*
X118319575Y-96198013D01*
X118325838Y-96194213D01*
X118331380Y-96191675D01*
X118336856Y-96188933D01*
X118343741Y-96186434D01*
X118405132Y-96146185D01*
X118408800Y-96143870D01*
X118471581Y-96105773D01*
X118475786Y-96102059D01*
X118475789Y-96102057D01*
X118480005Y-96098333D01*
X118480031Y-96098362D01*
X118482962Y-96095762D01*
X118486316Y-96092958D01*
X118492435Y-96088946D01*
X118545989Y-96032413D01*
X118548366Y-96029972D01*
X120716528Y-93861810D01*
X120730941Y-93849423D01*
X120742665Y-93840795D01*
X120748564Y-93836454D01*
X120782979Y-93795945D01*
X120789909Y-93788429D01*
X120795653Y-93782685D01*
X120797927Y-93779811D01*
X120797933Y-93779804D01*
X120813372Y-93760289D01*
X120816163Y-93756885D01*
X120858945Y-93706528D01*
X120858948Y-93706524D01*
X120863684Y-93700949D01*
X120867012Y-93694432D01*
X120870389Y-93689368D01*
X120873616Y-93684144D01*
X120878160Y-93678400D01*
X120909232Y-93611918D01*
X120911163Y-93607967D01*
X120941213Y-93549117D01*
X120944543Y-93542596D01*
X120946284Y-93535481D01*
X120948421Y-93529735D01*
X120950345Y-93523952D01*
X120953444Y-93517321D01*
X120965608Y-93458841D01*
X120999061Y-93396222D01*
X121061060Y-93361629D01*
X121088967Y-93358500D01*
X121123134Y-93358500D01*
X121185316Y-93351745D01*
X121321705Y-93300615D01*
X121438261Y-93213261D01*
X121525615Y-93096705D01*
X121534964Y-93071767D01*
X121569598Y-92979382D01*
X121612240Y-92922618D01*
X121678802Y-92897918D01*
X121748150Y-92913126D01*
X121782817Y-92941114D01*
X121811250Y-92973938D01*
X121983126Y-93116632D01*
X122176000Y-93229338D01*
X122180825Y-93231180D01*
X122180826Y-93231181D01*
X122241885Y-93254497D01*
X122384692Y-93309030D01*
X122389760Y-93310061D01*
X122389763Y-93310062D01*
X122497379Y-93331957D01*
X122603597Y-93353567D01*
X122608772Y-93353757D01*
X122608774Y-93353757D01*
X122821673Y-93361564D01*
X122821677Y-93361564D01*
X122826837Y-93361753D01*
X122831957Y-93361097D01*
X122831959Y-93361097D01*
X122961893Y-93344452D01*
X123032003Y-93355637D01*
X123066998Y-93380336D01*
X123200595Y-93513933D01*
X123234621Y-93576245D01*
X123237500Y-93603028D01*
X123237500Y-95619340D01*
X123217498Y-95687461D01*
X123164252Y-95733766D01*
X123120763Y-95753815D01*
X123116854Y-95756378D01*
X122899881Y-95898631D01*
X122899876Y-95898635D01*
X122895968Y-95901197D01*
X122852465Y-95940025D01*
X122716584Y-96061304D01*
X122695426Y-96080188D01*
X122523544Y-96286854D01*
X122384096Y-96516656D01*
X122382287Y-96520970D01*
X122382285Y-96520974D01*
X122304985Y-96705315D01*
X122280148Y-96764545D01*
X122213981Y-97025077D01*
X122187050Y-97292526D01*
X122187274Y-97297192D01*
X122187274Y-97297197D01*
X122191427Y-97383646D01*
X122199947Y-97561019D01*
X122226295Y-97693475D01*
X122240081Y-97762783D01*
X122233753Y-97833497D01*
X122205597Y-97876460D01*
X121958462Y-98123595D01*
X121896150Y-98157621D01*
X121869367Y-98160500D01*
X118018455Y-98160500D01*
X117981196Y-98154865D01*
X117848441Y-98113770D01*
X117848438Y-98113769D01*
X117842554Y-98111948D01*
X117836429Y-98111304D01*
X117836428Y-98111304D01*
X117662813Y-98093056D01*
X117662812Y-98093056D01*
X117656685Y-98092412D01*
X117538087Y-98103206D01*
X117476703Y-98108792D01*
X117476702Y-98108792D01*
X117470562Y-98109351D01*
X117464648Y-98111092D01*
X117464646Y-98111092D01*
X117422165Y-98123595D01*
X117291273Y-98162119D01*
X117285808Y-98164976D01*
X117208558Y-98205361D01*
X117125647Y-98248705D01*
X116979995Y-98365813D01*
X116859862Y-98508981D01*
X116856899Y-98514370D01*
X116856896Y-98514375D01*
X116798185Y-98621171D01*
X116769826Y-98672757D01*
X116767965Y-98678624D01*
X116767964Y-98678626D01*
X116741570Y-98761829D01*
X116713315Y-98850901D01*
X116692482Y-99036630D01*
X116693022Y-99043056D01*
X116707395Y-99214216D01*
X116708121Y-99222867D01*
X116759636Y-99402520D01*
X116845064Y-99568746D01*
X116848887Y-99573570D01*
X116848890Y-99573574D01*
X116932360Y-99678886D01*
X116961152Y-99715212D01*
X116965846Y-99719207D01*
X117096587Y-99830477D01*
X117103478Y-99836342D01*
X117190531Y-99884994D01*
X117199553Y-99890036D01*
X117249259Y-99940729D01*
X117263668Y-100010248D01*
X117238204Y-100076521D01*
X117196458Y-100111686D01*
X117147084Y-100137498D01*
X117125647Y-100148705D01*
X116979995Y-100265813D01*
X116859862Y-100408981D01*
X116856899Y-100414370D01*
X116856896Y-100414375D01*
X116796864Y-100523574D01*
X116769826Y-100572757D01*
X116767965Y-100578624D01*
X116767964Y-100578626D01*
X116758071Y-100609812D01*
X116713315Y-100750901D01*
X116692482Y-100936630D01*
X116708121Y-101122867D01*
X116759636Y-101302520D01*
X116845064Y-101468746D01*
X116848887Y-101473570D01*
X116848890Y-101473574D01*
X116937527Y-101585405D01*
X116961152Y-101615212D01*
X116965846Y-101619207D01*
X117073783Y-101711069D01*
X117103478Y-101736342D01*
X117266621Y-101827519D01*
X117444367Y-101885272D01*
X117629945Y-101907401D01*
X117636080Y-101906929D01*
X117636082Y-101906929D01*
X117692119Y-101902617D01*
X117816287Y-101893063D01*
X117991508Y-101844141D01*
X118025391Y-101839500D01*
X122109367Y-101839500D01*
X122177488Y-101859502D01*
X122198462Y-101876405D01*
X122206486Y-101884429D01*
X122240512Y-101946741D01*
X122239514Y-102004539D01*
X122233278Y-102029095D01*
X122213981Y-102105077D01*
X122187050Y-102372526D01*
X122187274Y-102377192D01*
X122187274Y-102377197D01*
X122189482Y-102423160D01*
X122199947Y-102641019D01*
X122252388Y-102904656D01*
X122343220Y-103157646D01*
X122345432Y-103161762D01*
X122345433Y-103161765D01*
X122409555Y-103281100D01*
X122470450Y-103394431D01*
X122473241Y-103398168D01*
X122473245Y-103398175D01*
X122554887Y-103507506D01*
X122631281Y-103609810D01*
X122634590Y-103613090D01*
X122634595Y-103613096D01*
X122801440Y-103778490D01*
X122822180Y-103799050D01*
X122825942Y-103801808D01*
X122825945Y-103801811D01*
X122938299Y-103884192D01*
X123038954Y-103957995D01*
X123043089Y-103960171D01*
X123043093Y-103960173D01*
X123272698Y-104080975D01*
X123276840Y-104083154D01*
X123398682Y-104125703D01*
X123487024Y-104156553D01*
X123530613Y-104171775D01*
X123535206Y-104172647D01*
X123790109Y-104221042D01*
X123790112Y-104221042D01*
X123794698Y-104221913D01*
X123922370Y-104226929D01*
X124058625Y-104232283D01*
X124058630Y-104232283D01*
X124063293Y-104232466D01*
X124167607Y-104221042D01*
X124325844Y-104203713D01*
X124325850Y-104203712D01*
X124330497Y-104203203D01*
X124335021Y-104202012D01*
X124585918Y-104135956D01*
X124585920Y-104135955D01*
X124590441Y-104134765D01*
X124607307Y-104127519D01*
X124833120Y-104030502D01*
X124833122Y-104030501D01*
X124837414Y-104028657D01*
X124956071Y-103955230D01*
X125062017Y-103889669D01*
X125062021Y-103889666D01*
X125065990Y-103887210D01*
X125271149Y-103713530D01*
X125448382Y-103511434D01*
X125593797Y-103285361D01*
X125704199Y-103040278D01*
X125728384Y-102954525D01*
X125775893Y-102786072D01*
X125775894Y-102786069D01*
X125777163Y-102781568D01*
X125795043Y-102641019D01*
X125810688Y-102518045D01*
X125810688Y-102518041D01*
X125811086Y-102514915D01*
X125813571Y-102420000D01*
X125808337Y-102349573D01*
X125793996Y-102156592D01*
X125793996Y-102156591D01*
X125793650Y-102151937D01*
X125792619Y-102147379D01*
X125735361Y-101894331D01*
X125735360Y-101894326D01*
X125734327Y-101889763D01*
X125636902Y-101639238D01*
X125503518Y-101405864D01*
X125337105Y-101194769D01*
X125141317Y-101010591D01*
X124984751Y-100901976D01*
X124924299Y-100860039D01*
X124924296Y-100860037D01*
X124920457Y-100857374D01*
X124916264Y-100855306D01*
X124683564Y-100740551D01*
X124683561Y-100740550D01*
X124679376Y-100738486D01*
X124616909Y-100718490D01*
X124531245Y-100691069D01*
X124423370Y-100656538D01*
X124418763Y-100655788D01*
X124418760Y-100655787D01*
X124162674Y-100614081D01*
X124162675Y-100614081D01*
X124158063Y-100613330D01*
X124027719Y-100611624D01*
X123893961Y-100609873D01*
X123893958Y-100609873D01*
X123889284Y-100609812D01*
X123622937Y-100646060D01*
X123586968Y-100656544D01*
X123515974Y-100656404D01*
X123462616Y-100624673D01*
X123215489Y-100377546D01*
X123202652Y-100362518D01*
X123194669Y-100351530D01*
X123189713Y-100347067D01*
X123144937Y-100306751D01*
X123140153Y-100302210D01*
X123126006Y-100288063D01*
X123110446Y-100275463D01*
X123105425Y-100271175D01*
X123060619Y-100230830D01*
X123060615Y-100230827D01*
X123055715Y-100226415D01*
X123050005Y-100223119D01*
X123050002Y-100223116D01*
X123043955Y-100219625D01*
X123027670Y-100208432D01*
X123024712Y-100206037D01*
X123017125Y-100199893D01*
X122957520Y-100169523D01*
X122951724Y-100166376D01*
X122939866Y-100159530D01*
X122893785Y-100132925D01*
X122880875Y-100128730D01*
X122862616Y-100121167D01*
X122850524Y-100115006D01*
X122785906Y-100097691D01*
X122779582Y-100095818D01*
X122715956Y-100075145D01*
X122716786Y-100072590D01*
X122664816Y-100044541D01*
X122630487Y-99982396D01*
X122635205Y-99911556D01*
X122677474Y-99854513D01*
X122690477Y-99845891D01*
X122711725Y-99833624D01*
X122717520Y-99830477D01*
X122777125Y-99800107D01*
X122787670Y-99791568D01*
X122803955Y-99780375D01*
X122810002Y-99776884D01*
X122810005Y-99776881D01*
X122815715Y-99773585D01*
X122820615Y-99769173D01*
X122820619Y-99769170D01*
X122865425Y-99728825D01*
X122870446Y-99724537D01*
X122883441Y-99714014D01*
X122886006Y-99711937D01*
X122900153Y-99697790D01*
X122904937Y-99693249D01*
X122949766Y-99652885D01*
X122949767Y-99652883D01*
X122954669Y-99648470D01*
X122962652Y-99637482D01*
X122975489Y-99622454D01*
X123462944Y-99134999D01*
X123525256Y-99100973D01*
X123575541Y-99100305D01*
X123790109Y-99141042D01*
X123790112Y-99141042D01*
X123794698Y-99141913D01*
X123922370Y-99146929D01*
X124058625Y-99152283D01*
X124058630Y-99152283D01*
X124063293Y-99152466D01*
X124167607Y-99141042D01*
X124325844Y-99123713D01*
X124325850Y-99123712D01*
X124330497Y-99123203D01*
X124372597Y-99112119D01*
X124585918Y-99055956D01*
X124585920Y-99055955D01*
X124590441Y-99054765D01*
X124594738Y-99052919D01*
X124833120Y-98950502D01*
X124833122Y-98950501D01*
X124837414Y-98948657D01*
X124995386Y-98850901D01*
X125062017Y-98809669D01*
X125062021Y-98809666D01*
X125065990Y-98807210D01*
X125271149Y-98633530D01*
X125448382Y-98431434D01*
X125593797Y-98205361D01*
X125704199Y-97960278D01*
X125741408Y-97828345D01*
X125775893Y-97706072D01*
X125775894Y-97706069D01*
X125777163Y-97701568D01*
X125795043Y-97561019D01*
X125810688Y-97438045D01*
X125810688Y-97438041D01*
X125811086Y-97434915D01*
X125811173Y-97431621D01*
X125812554Y-97378829D01*
X125813571Y-97340000D01*
X125793650Y-97071937D01*
X125792619Y-97067379D01*
X125735361Y-96814331D01*
X125735360Y-96814326D01*
X125734327Y-96809763D01*
X125636902Y-96559238D01*
X125503518Y-96325864D01*
X125499317Y-96320534D01*
X125408972Y-96205932D01*
X125337105Y-96114769D01*
X125141317Y-95930591D01*
X124920457Y-95777374D01*
X124916273Y-95775310D01*
X124916265Y-95775306D01*
X124832772Y-95734132D01*
X124780523Y-95686064D01*
X124762500Y-95621126D01*
X124762500Y-93302376D01*
X124763933Y-93283426D01*
X124766124Y-93269027D01*
X124766124Y-93269021D01*
X124767224Y-93261792D01*
X124766442Y-93252171D01*
X124762915Y-93208817D01*
X124762500Y-93198602D01*
X124762500Y-93190475D01*
X124759189Y-93162076D01*
X124758760Y-93157736D01*
X124755417Y-93116632D01*
X124752809Y-93084574D01*
X124750553Y-93077612D01*
X124749357Y-93071624D01*
X124747949Y-93065667D01*
X124747101Y-93058393D01*
X124744603Y-93051511D01*
X124744602Y-93051507D01*
X124722055Y-92989393D01*
X124720645Y-92985289D01*
X124698013Y-92915425D01*
X124694213Y-92909162D01*
X124691675Y-92903620D01*
X124688933Y-92898144D01*
X124686434Y-92891259D01*
X124646185Y-92829868D01*
X124643870Y-92826200D01*
X124605773Y-92763419D01*
X124598333Y-92754995D01*
X124598362Y-92754969D01*
X124595762Y-92752038D01*
X124592958Y-92748684D01*
X124588946Y-92742565D01*
X124532413Y-92689011D01*
X124529972Y-92686634D01*
X124145268Y-92301930D01*
X124111242Y-92239618D01*
X124109441Y-92196389D01*
X124126092Y-92069911D01*
X124126092Y-92069907D01*
X124126529Y-92066590D01*
X124128156Y-92000000D01*
X124109852Y-91777361D01*
X124055431Y-91560702D01*
X123966354Y-91355840D01*
X123845014Y-91168277D01*
X123694670Y-91003051D01*
X123690619Y-90999852D01*
X123690615Y-90999848D01*
X123523414Y-90867800D01*
X123523410Y-90867798D01*
X123519359Y-90864598D01*
X123323789Y-90756638D01*
X123318624Y-90754809D01*
X123314285Y-90753272D01*
X123256750Y-90711677D01*
X123230835Y-90645579D01*
X123244770Y-90575964D01*
X123294129Y-90524933D01*
X123356347Y-90508500D01*
X129439211Y-90508500D01*
X129507332Y-90528502D01*
X129553825Y-90582158D01*
X129563929Y-90652432D01*
X129534435Y-90717012D01*
X129517998Y-90732828D01*
X129483509Y-90760459D01*
X129399647Y-90845204D01*
X129252712Y-90993686D01*
X129239466Y-91007071D01*
X129237225Y-91009929D01*
X129180732Y-91081978D01*
X129025386Y-91280098D01*
X129023493Y-91283187D01*
X129023491Y-91283190D01*
X128978971Y-91355840D01*
X128844105Y-91575921D01*
X128842580Y-91579206D01*
X128842578Y-91579210D01*
X128752930Y-91772342D01*
X128698027Y-91890620D01*
X128589087Y-92220023D01*
X128588351Y-92223578D01*
X128588350Y-92223581D01*
X128528507Y-92512552D01*
X128518730Y-92559764D01*
X128487888Y-92905341D01*
X128487983Y-92908971D01*
X128487983Y-92908972D01*
X128490367Y-93000000D01*
X128496970Y-93252171D01*
X128545856Y-93595660D01*
X128633897Y-93931253D01*
X128759927Y-94254503D01*
X128761624Y-94257708D01*
X128895113Y-94509825D01*
X128922275Y-94561126D01*
X128924325Y-94564109D01*
X128924327Y-94564112D01*
X129116733Y-94844064D01*
X129116739Y-94844071D01*
X129118790Y-94847056D01*
X129196502Y-94936139D01*
X129343021Y-95104097D01*
X129346866Y-95108505D01*
X129349551Y-95110948D01*
X129559268Y-95301775D01*
X129603481Y-95342006D01*
X129885233Y-95544466D01*
X130188388Y-95713200D01*
X130281719Y-95751859D01*
X130420879Y-95809501D01*
X130476160Y-95854049D01*
X130498581Y-95921413D01*
X130481023Y-95990204D01*
X130446723Y-96027845D01*
X130426673Y-96042412D01*
X130403359Y-96059351D01*
X130397860Y-96063346D01*
X130230375Y-96220625D01*
X130189766Y-96258760D01*
X130167767Y-96279418D01*
X130165243Y-96282469D01*
X130165242Y-96282470D01*
X130085035Y-96379423D01*
X129966568Y-96522625D01*
X129797438Y-96789131D01*
X129795754Y-96792710D01*
X129795750Y-96792717D01*
X129666505Y-97067379D01*
X129663044Y-97074734D01*
X129565505Y-97374928D01*
X129506359Y-97684980D01*
X129486540Y-98000000D01*
X129506359Y-98315020D01*
X129565505Y-98625072D01*
X129572149Y-98645521D01*
X129661789Y-98921402D01*
X129663044Y-98925266D01*
X129664731Y-98928852D01*
X129664733Y-98928856D01*
X129795750Y-99207283D01*
X129795754Y-99207290D01*
X129797438Y-99210869D01*
X129966568Y-99477375D01*
X129969093Y-99480427D01*
X130163325Y-99715212D01*
X130167767Y-99720582D01*
X130170657Y-99723296D01*
X130170658Y-99723297D01*
X130174189Y-99726613D01*
X130397860Y-99936654D01*
X130653221Y-100122184D01*
X130656690Y-100124091D01*
X130656693Y-100124093D01*
X130916348Y-100266840D01*
X130929821Y-100274247D01*
X130933490Y-100275700D01*
X130933495Y-100275702D01*
X131151512Y-100362021D01*
X131223298Y-100390443D01*
X131529025Y-100468940D01*
X131842179Y-100508500D01*
X132157821Y-100508500D01*
X132470975Y-100468940D01*
X132776702Y-100390443D01*
X132848488Y-100362021D01*
X133066505Y-100275702D01*
X133066510Y-100275700D01*
X133070179Y-100274247D01*
X133083652Y-100266840D01*
X133343307Y-100124093D01*
X133343310Y-100124091D01*
X133346779Y-100122184D01*
X133602140Y-99936654D01*
X133779248Y-99770339D01*
X133842597Y-99738288D01*
X133913219Y-99745575D01*
X133968690Y-99789885D01*
X133991500Y-99862189D01*
X133991500Y-105137811D01*
X133971498Y-105205932D01*
X133917842Y-105252425D01*
X133847568Y-105262529D01*
X133779247Y-105229661D01*
X133738059Y-105190983D01*
X133602140Y-105063346D01*
X133566349Y-105037342D01*
X133520820Y-105004264D01*
X133346779Y-104877816D01*
X133342085Y-104875235D01*
X133073648Y-104727660D01*
X133073647Y-104727659D01*
X133070179Y-104725753D01*
X133066510Y-104724300D01*
X133066505Y-104724298D01*
X132780372Y-104611010D01*
X132780371Y-104611010D01*
X132776702Y-104609557D01*
X132470975Y-104531060D01*
X132157821Y-104491500D01*
X131842179Y-104491500D01*
X131529025Y-104531060D01*
X131223298Y-104609557D01*
X131219629Y-104611010D01*
X131219628Y-104611010D01*
X130933495Y-104724298D01*
X130933490Y-104724300D01*
X130929821Y-104725753D01*
X130926353Y-104727659D01*
X130926352Y-104727660D01*
X130657916Y-104875235D01*
X130653221Y-104877816D01*
X130479180Y-105004264D01*
X130433652Y-105037342D01*
X130397860Y-105063346D01*
X130167767Y-105279418D01*
X129966568Y-105522625D01*
X129797438Y-105789131D01*
X129795754Y-105792710D01*
X129795750Y-105792717D01*
X129664733Y-106071144D01*
X129663044Y-106074734D01*
X129661818Y-106078506D01*
X129661818Y-106078507D01*
X129645644Y-106128285D01*
X129565505Y-106374928D01*
X129506359Y-106684980D01*
X129486540Y-107000000D01*
X129506359Y-107315020D01*
X129565505Y-107625072D01*
X129663044Y-107925266D01*
X129664731Y-107928852D01*
X129664733Y-107928856D01*
X129795750Y-108207283D01*
X129795754Y-108207290D01*
X129797438Y-108210869D01*
X129966568Y-108477375D01*
X130167767Y-108720582D01*
X130170657Y-108723296D01*
X130170658Y-108723297D01*
X130186622Y-108738288D01*
X130397860Y-108936654D01*
X130401062Y-108938981D01*
X130401064Y-108938982D01*
X130445459Y-108971237D01*
X130488813Y-109027460D01*
X130494888Y-109098196D01*
X130461756Y-109160988D01*
X130412212Y-109192379D01*
X130361339Y-109209797D01*
X130048188Y-109359163D01*
X129754279Y-109543532D01*
X129751443Y-109545804D01*
X129751436Y-109545809D01*
X129549736Y-109707401D01*
X129483509Y-109760459D01*
X129480958Y-109763037D01*
X129249576Y-109996855D01*
X129239466Y-110007071D01*
X129237225Y-110009929D01*
X129154184Y-110115836D01*
X129025386Y-110280098D01*
X129023493Y-110283187D01*
X129023491Y-110283190D01*
X128977233Y-110358676D01*
X128844105Y-110575921D01*
X128842580Y-110579206D01*
X128842578Y-110579210D01*
X128773413Y-110728214D01*
X128698027Y-110890620D01*
X128650776Y-111033493D01*
X128595754Y-111199865D01*
X128589087Y-111220023D01*
X128588351Y-111223578D01*
X128588350Y-111223581D01*
X128530021Y-111505241D01*
X128518730Y-111559764D01*
X128505129Y-111712157D01*
X128493131Y-111846600D01*
X128487888Y-111905341D01*
X128487983Y-111908971D01*
X128487983Y-111908972D01*
X128494878Y-112172269D01*
X128496970Y-112252171D01*
X128497481Y-112255761D01*
X128497481Y-112255762D01*
X128501265Y-112282349D01*
X128545856Y-112595660D01*
X128633897Y-112931253D01*
X128759927Y-113254503D01*
X128761624Y-113257708D01*
X128895113Y-113509825D01*
X128922275Y-113561126D01*
X128924325Y-113564109D01*
X128924327Y-113564112D01*
X129116733Y-113844064D01*
X129116739Y-113844071D01*
X129118790Y-113847056D01*
X129346866Y-114108505D01*
X129526883Y-114272307D01*
X129563804Y-114332947D01*
X129562081Y-114403922D01*
X129522259Y-114462699D01*
X129456981Y-114490616D01*
X129442082Y-114491500D01*
X95061044Y-114491500D01*
X94992923Y-114471498D01*
X94946430Y-114417842D01*
X94936326Y-114347568D01*
X94965820Y-114282988D01*
X94974311Y-114274103D01*
X95194180Y-114065454D01*
X95196819Y-114062950D01*
X95419370Y-113796783D01*
X95466295Y-113725347D01*
X95514612Y-113651791D01*
X95609853Y-113506799D01*
X95738446Y-113251121D01*
X95764117Y-113200080D01*
X95764120Y-113200072D01*
X95765744Y-113196844D01*
X95791537Y-113126361D01*
X95883729Y-112874437D01*
X95883730Y-112874433D01*
X95884977Y-112871026D01*
X95885822Y-112867504D01*
X95885825Y-112867496D01*
X95965124Y-112537191D01*
X95965125Y-112537187D01*
X95965971Y-112533662D01*
X95974838Y-112460386D01*
X96007316Y-112192004D01*
X96007316Y-112191997D01*
X96007652Y-112189225D01*
X96008566Y-112160164D01*
X96012459Y-112036288D01*
X96013599Y-112000000D01*
X96011669Y-111966528D01*
X95993836Y-111657246D01*
X95993835Y-111657241D01*
X95993627Y-111653626D01*
X95972093Y-111530241D01*
X95934600Y-111315415D01*
X95934598Y-111315408D01*
X95933976Y-111311842D01*
X95932867Y-111308096D01*
X95883365Y-111140983D01*
X95835437Y-110979180D01*
X95834013Y-110975841D01*
X95700740Y-110663386D01*
X95700738Y-110663383D01*
X95699316Y-110660048D01*
X95660625Y-110592214D01*
X95529208Y-110361816D01*
X95527417Y-110358676D01*
X95398060Y-110182578D01*
X95373852Y-110115836D01*
X95389570Y-110046601D01*
X95440224Y-109996855D01*
X95509732Y-109982391D01*
X95547821Y-109991574D01*
X95645911Y-110032204D01*
X95719649Y-110049907D01*
X95894938Y-110091991D01*
X95894944Y-110091992D01*
X95899751Y-110093146D01*
X95990884Y-110100318D01*
X96092385Y-110108307D01*
X96092394Y-110108307D01*
X96094842Y-110108500D01*
X96225158Y-110108500D01*
X96227606Y-110108307D01*
X96227615Y-110108307D01*
X96329116Y-110100318D01*
X96420249Y-110093146D01*
X96425056Y-110091992D01*
X96425062Y-110091991D01*
X96600351Y-110049907D01*
X96674089Y-110032204D01*
X96730408Y-110008876D01*
X96910697Y-109934198D01*
X96910701Y-109934196D01*
X96915271Y-109932303D01*
X97137856Y-109795903D01*
X97336363Y-109626363D01*
X97505903Y-109427856D01*
X97512536Y-109417033D01*
X97639717Y-109209491D01*
X97642303Y-109205271D01*
X97646919Y-109194129D01*
X97740310Y-108968662D01*
X97740311Y-108968660D01*
X97742204Y-108964089D01*
X97770863Y-108844717D01*
X97801991Y-108715062D01*
X97801992Y-108715056D01*
X97803146Y-108710249D01*
X97823628Y-108450000D01*
X97803146Y-108189751D01*
X97801992Y-108184944D01*
X97801991Y-108184938D01*
X97755077Y-107989530D01*
X97742204Y-107935911D01*
X97736232Y-107921493D01*
X97644198Y-107699303D01*
X97644196Y-107699299D01*
X97642303Y-107694729D01*
X97505903Y-107472144D01*
X97336363Y-107273637D01*
X97137856Y-107104097D01*
X96915271Y-106967697D01*
X96910701Y-106965804D01*
X96910697Y-106965802D01*
X96678662Y-106869690D01*
X96678660Y-106869689D01*
X96674089Y-106867796D01*
X96585069Y-106846424D01*
X96425062Y-106808009D01*
X96425056Y-106808008D01*
X96420249Y-106806854D01*
X96329116Y-106799682D01*
X96227615Y-106791693D01*
X96227606Y-106791693D01*
X96225158Y-106791500D01*
X96094842Y-106791500D01*
X96092394Y-106791693D01*
X96092385Y-106791693D01*
X95990884Y-106799682D01*
X95899751Y-106806854D01*
X95894944Y-106808008D01*
X95894938Y-106808009D01*
X95734931Y-106846424D01*
X95645911Y-106867796D01*
X95641340Y-106869689D01*
X95641338Y-106869690D01*
X95409303Y-106965802D01*
X95409299Y-106965804D01*
X95404729Y-106967697D01*
X95182144Y-107104097D01*
X94983637Y-107273637D01*
X94814097Y-107472144D01*
X94677697Y-107694729D01*
X94675804Y-107699299D01*
X94675802Y-107699303D01*
X94583768Y-107921493D01*
X94577796Y-107935911D01*
X94564923Y-107989530D01*
X94518009Y-108184938D01*
X94518008Y-108184944D01*
X94516854Y-108189751D01*
X94496372Y-108450000D01*
X94516854Y-108710249D01*
X94518008Y-108715056D01*
X94518009Y-108715062D01*
X94549137Y-108844717D01*
X94577796Y-108964089D01*
X94579689Y-108968660D01*
X94579690Y-108968662D01*
X94673082Y-109194129D01*
X94677697Y-109205271D01*
X94680283Y-109209490D01*
X94680286Y-109209497D01*
X94688329Y-109222622D01*
X94706867Y-109291155D01*
X94685410Y-109358832D01*
X94630771Y-109404165D01*
X94560297Y-109412761D01*
X94523106Y-109400422D01*
X94512315Y-109394852D01*
X94225741Y-109246940D01*
X93901189Y-109124302D01*
X93897668Y-109123418D01*
X93897663Y-109123416D01*
X93736378Y-109082904D01*
X93564692Y-109039780D01*
X93542476Y-109036855D01*
X93224315Y-108994968D01*
X93224307Y-108994967D01*
X93220711Y-108994494D01*
X93076045Y-108992221D01*
X92877446Y-108989101D01*
X92877442Y-108989101D01*
X92873804Y-108989044D01*
X92870190Y-108989405D01*
X92870184Y-108989405D01*
X92626843Y-109013694D01*
X92528569Y-109023503D01*
X92189583Y-109097414D01*
X92186156Y-109098587D01*
X92186150Y-109098589D01*
X91981543Y-109168642D01*
X91861339Y-109209797D01*
X91548188Y-109359163D01*
X91254279Y-109543532D01*
X91251443Y-109545804D01*
X91251436Y-109545809D01*
X91049736Y-109707401D01*
X90983509Y-109760459D01*
X90980958Y-109763037D01*
X90749576Y-109996855D01*
X90739466Y-110007071D01*
X90737225Y-110009929D01*
X90654184Y-110115836D01*
X90525386Y-110280098D01*
X90523493Y-110283187D01*
X90523491Y-110283190D01*
X90477233Y-110358676D01*
X90344105Y-110575921D01*
X90342580Y-110579206D01*
X90342578Y-110579210D01*
X90248788Y-110781264D01*
X90201964Y-110834631D01*
X90133720Y-110854212D01*
X90065725Y-110833788D01*
X90019565Y-110779846D01*
X90008500Y-110728214D01*
X90008500Y-105804669D01*
X99732001Y-105804669D01*
X99732371Y-105811490D01*
X99737895Y-105862352D01*
X99741521Y-105877604D01*
X99786676Y-105998054D01*
X99795214Y-106013649D01*
X99871715Y-106115724D01*
X99884276Y-106128285D01*
X99986351Y-106204786D01*
X100001946Y-106213324D01*
X100122394Y-106258478D01*
X100137649Y-106262105D01*
X100188514Y-106267631D01*
X100195328Y-106268000D01*
X100727885Y-106268000D01*
X100743124Y-106263525D01*
X100744329Y-106262135D01*
X100746000Y-106254452D01*
X100746000Y-106249884D01*
X101254000Y-106249884D01*
X101258475Y-106265123D01*
X101259865Y-106266328D01*
X101267548Y-106267999D01*
X101804669Y-106267999D01*
X101811490Y-106267629D01*
X101862352Y-106262105D01*
X101877604Y-106258479D01*
X101998054Y-106213324D01*
X102013649Y-106204786D01*
X102115724Y-106128285D01*
X102128285Y-106115724D01*
X102204786Y-106013649D01*
X102213324Y-105998054D01*
X102258478Y-105877606D01*
X102262105Y-105862351D01*
X102267631Y-105811486D01*
X102268000Y-105804672D01*
X102268000Y-105272115D01*
X102263525Y-105256876D01*
X102262135Y-105255671D01*
X102254452Y-105254000D01*
X101272115Y-105254000D01*
X101256876Y-105258475D01*
X101255671Y-105259865D01*
X101254000Y-105267548D01*
X101254000Y-106249884D01*
X100746000Y-106249884D01*
X100746000Y-105272115D01*
X100741525Y-105256876D01*
X100740135Y-105255671D01*
X100732452Y-105254000D01*
X99750116Y-105254000D01*
X99734877Y-105258475D01*
X99733672Y-105259865D01*
X99732001Y-105267548D01*
X99732001Y-105804669D01*
X90008500Y-105804669D01*
X90008500Y-105037342D01*
X97767213Y-105037342D01*
X97776509Y-105049357D01*
X97819069Y-105079158D01*
X97828565Y-105084641D01*
X98019680Y-105173759D01*
X98029972Y-105177505D01*
X98233660Y-105232083D01*
X98244453Y-105233986D01*
X98454525Y-105252365D01*
X98465475Y-105252365D01*
X98675547Y-105233986D01*
X98686340Y-105232083D01*
X98890028Y-105177505D01*
X98900320Y-105173759D01*
X99091435Y-105084641D01*
X99100931Y-105079158D01*
X99144329Y-105048770D01*
X99152704Y-105038293D01*
X99145635Y-105024845D01*
X98472812Y-104352022D01*
X98458868Y-104344408D01*
X98457035Y-104344539D01*
X98450420Y-104348790D01*
X97773643Y-105025567D01*
X97767213Y-105037342D01*
X90008500Y-105037342D01*
X90008500Y-103985475D01*
X97187635Y-103985475D01*
X97206014Y-104195547D01*
X97207917Y-104206340D01*
X97262495Y-104410028D01*
X97266241Y-104420320D01*
X97355359Y-104611435D01*
X97360842Y-104620931D01*
X97391230Y-104664329D01*
X97401707Y-104672704D01*
X97415155Y-104665635D01*
X98087978Y-103992812D01*
X98095592Y-103978868D01*
X98095461Y-103977035D01*
X98091210Y-103970420D01*
X97414433Y-103293643D01*
X97402658Y-103287213D01*
X97390643Y-103296509D01*
X97360842Y-103339069D01*
X97355359Y-103348565D01*
X97266241Y-103539680D01*
X97262495Y-103549972D01*
X97207917Y-103753660D01*
X97206014Y-103764453D01*
X97187635Y-103974525D01*
X97187635Y-103985475D01*
X90008500Y-103985475D01*
X90008500Y-101940000D01*
X97186655Y-101940000D01*
X97206000Y-102161114D01*
X97207424Y-102166427D01*
X97207424Y-102166429D01*
X97253066Y-102336766D01*
X97263447Y-102375510D01*
X97265769Y-102380490D01*
X97265770Y-102380492D01*
X97354925Y-102571685D01*
X97354928Y-102571690D01*
X97357251Y-102576672D01*
X97360407Y-102581179D01*
X97360408Y-102581181D01*
X97465361Y-102731069D01*
X97484561Y-102758490D01*
X97641510Y-102915439D01*
X97646018Y-102918596D01*
X97646021Y-102918598D01*
X97712969Y-102965475D01*
X97823327Y-103042749D01*
X97828309Y-103045072D01*
X97828314Y-103045075D01*
X97913055Y-103084590D01*
X97948900Y-103109690D01*
X98447188Y-103607978D01*
X98461132Y-103615592D01*
X98462965Y-103615461D01*
X98469580Y-103611210D01*
X98971100Y-103109690D01*
X99006945Y-103084590D01*
X99091686Y-103045075D01*
X99091691Y-103045072D01*
X99096673Y-103042749D01*
X99207031Y-102965475D01*
X99273979Y-102918598D01*
X99273982Y-102918596D01*
X99278490Y-102915439D01*
X99435439Y-102758490D01*
X99449166Y-102738886D01*
X99520567Y-102636915D01*
X99576024Y-102592587D01*
X99646644Y-102585278D01*
X99710004Y-102617309D01*
X99745989Y-102678510D01*
X99747865Y-102731069D01*
X99747423Y-102733575D01*
X99746000Y-102738886D01*
X99745521Y-102744359D01*
X99745521Y-102744360D01*
X99744285Y-102758490D01*
X99726655Y-102960000D01*
X99727134Y-102965475D01*
X99743562Y-103153242D01*
X99746000Y-103181114D01*
X99747422Y-103186421D01*
X99748070Y-103190095D01*
X99740203Y-103260654D01*
X99695437Y-103315759D01*
X99627985Y-103337913D01*
X99559264Y-103320084D01*
X99543889Y-103305771D01*
X99542921Y-103306982D01*
X99518293Y-103287296D01*
X99504845Y-103294365D01*
X98832022Y-103967188D01*
X98824408Y-103981132D01*
X98824539Y-103982965D01*
X98828790Y-103989580D01*
X99505567Y-104666357D01*
X99517342Y-104672787D01*
X99533089Y-104660605D01*
X99599207Y-104634742D01*
X99668812Y-104648732D01*
X99719804Y-104698132D01*
X99731084Y-104724765D01*
X99736475Y-104743124D01*
X99737865Y-104744329D01*
X99745548Y-104746000D01*
X102249884Y-104746000D01*
X102265123Y-104741525D01*
X102266328Y-104740135D01*
X102267999Y-104732452D01*
X102267999Y-104330008D01*
X102288001Y-104261887D01*
X102341657Y-104215394D01*
X102408916Y-104204894D01*
X102423830Y-104206672D01*
X102423832Y-104206672D01*
X102429945Y-104207401D01*
X102436080Y-104206929D01*
X102436082Y-104206929D01*
X102499982Y-104202012D01*
X102616287Y-104193063D01*
X102796296Y-104142804D01*
X102804686Y-104138566D01*
X102806353Y-104138259D01*
X102807541Y-104137798D01*
X102807629Y-104138024D01*
X102874507Y-104125703D01*
X102940199Y-104152630D01*
X102980905Y-104210799D01*
X102987500Y-104251030D01*
X102987500Y-107182624D01*
X102986067Y-107201574D01*
X102983876Y-107215973D01*
X102983876Y-107215979D01*
X102982776Y-107223208D01*
X102983369Y-107230500D01*
X102983369Y-107230503D01*
X102987085Y-107276183D01*
X102987500Y-107286398D01*
X102987500Y-107294525D01*
X102990811Y-107322924D01*
X102991238Y-107327244D01*
X102997191Y-107400426D01*
X102999447Y-107407388D01*
X103000643Y-107413376D01*
X103002051Y-107419333D01*
X103002899Y-107426607D01*
X103005397Y-107433489D01*
X103005398Y-107433493D01*
X103027945Y-107495607D01*
X103029355Y-107499711D01*
X103051987Y-107569575D01*
X103055787Y-107575838D01*
X103058325Y-107581380D01*
X103061067Y-107586856D01*
X103063566Y-107593741D01*
X103067581Y-107599865D01*
X103103815Y-107655132D01*
X103106130Y-107658800D01*
X103144227Y-107721581D01*
X103147941Y-107725786D01*
X103147943Y-107725789D01*
X103151667Y-107730005D01*
X103151638Y-107730031D01*
X103154238Y-107732962D01*
X103157042Y-107736316D01*
X103161054Y-107742435D01*
X103166366Y-107747467D01*
X103217586Y-107795988D01*
X103220028Y-107798366D01*
X104272935Y-108851273D01*
X104307664Y-108917423D01*
X104308121Y-108922867D01*
X104309818Y-108928784D01*
X104309818Y-108928786D01*
X104318561Y-108959277D01*
X104359636Y-109102520D01*
X104389684Y-109160988D01*
X104414769Y-109209797D01*
X104445064Y-109268746D01*
X104448887Y-109273570D01*
X104448890Y-109273574D01*
X104536133Y-109383646D01*
X104561152Y-109415212D01*
X104565846Y-109419207D01*
X104640102Y-109482404D01*
X104703478Y-109536342D01*
X104866621Y-109627519D01*
X105044367Y-109685272D01*
X105229945Y-109707401D01*
X105236080Y-109706929D01*
X105236082Y-109706929D01*
X105292119Y-109702617D01*
X105416287Y-109693063D01*
X105596296Y-109642804D01*
X105601792Y-109640028D01*
X105601799Y-109640025D01*
X105643225Y-109619099D01*
X105713047Y-109606238D01*
X105778738Y-109633167D01*
X105789131Y-109642469D01*
X105875595Y-109728933D01*
X105909621Y-109791245D01*
X105912500Y-109818028D01*
X105912500Y-110782624D01*
X105911067Y-110801574D01*
X105908876Y-110815973D01*
X105908876Y-110815979D01*
X105907776Y-110823208D01*
X105908369Y-110830500D01*
X105908369Y-110830503D01*
X105912085Y-110876183D01*
X105912500Y-110886398D01*
X105912500Y-110894525D01*
X105915811Y-110922924D01*
X105916238Y-110927244D01*
X105922191Y-111000426D01*
X105924447Y-111007388D01*
X105925643Y-111013376D01*
X105927051Y-111019333D01*
X105927899Y-111026607D01*
X105930397Y-111033489D01*
X105930398Y-111033493D01*
X105952945Y-111095607D01*
X105954355Y-111099711D01*
X105976987Y-111169575D01*
X105980787Y-111175838D01*
X105983325Y-111181380D01*
X105986067Y-111186856D01*
X105988566Y-111193741D01*
X105992581Y-111199865D01*
X106028815Y-111255132D01*
X106031130Y-111258800D01*
X106069227Y-111321581D01*
X106072941Y-111325786D01*
X106072943Y-111325789D01*
X106076667Y-111330005D01*
X106076638Y-111330031D01*
X106079238Y-111332962D01*
X106082042Y-111336316D01*
X106086054Y-111342435D01*
X106091366Y-111347467D01*
X106142586Y-111395988D01*
X106145028Y-111398366D01*
X106713190Y-111966528D01*
X106725577Y-111980941D01*
X106738546Y-111998564D01*
X106744129Y-112003307D01*
X106779055Y-112032979D01*
X106786571Y-112039909D01*
X106792315Y-112045653D01*
X106795185Y-112047924D01*
X106795191Y-112047929D01*
X106814741Y-112063397D01*
X106818141Y-112066185D01*
X106874051Y-112113684D01*
X106880572Y-112117014D01*
X106885657Y-112120405D01*
X106890856Y-112123616D01*
X106896599Y-112128160D01*
X106903228Y-112131258D01*
X106903231Y-112131260D01*
X106963089Y-112159235D01*
X106967041Y-112161167D01*
X107032404Y-112194543D01*
X107039521Y-112196284D01*
X107045239Y-112198411D01*
X107051045Y-112200342D01*
X107057679Y-112203443D01*
X107064847Y-112204934D01*
X107064850Y-112204935D01*
X107109867Y-112214299D01*
X107129539Y-112218391D01*
X107133797Y-112219354D01*
X107205112Y-112236804D01*
X107210718Y-112237152D01*
X107210719Y-112237152D01*
X107216330Y-112237500D01*
X107216328Y-112237539D01*
X107220229Y-112237772D01*
X107224589Y-112238161D01*
X107231756Y-112239652D01*
X107254480Y-112239037D01*
X107323116Y-112257189D01*
X107325149Y-112258509D01*
X107328478Y-112261342D01*
X107491621Y-112352519D01*
X107669367Y-112410272D01*
X107854945Y-112432401D01*
X107861080Y-112431929D01*
X107861082Y-112431929D01*
X107917119Y-112427617D01*
X108041287Y-112418063D01*
X108221296Y-112367804D01*
X108226785Y-112365031D01*
X108226791Y-112365029D01*
X108304159Y-112325947D01*
X108388114Y-112283538D01*
X108416524Y-112261342D01*
X108471500Y-112218389D01*
X108535387Y-112168475D01*
X108539413Y-112163811D01*
X108539416Y-112163808D01*
X108631901Y-112056663D01*
X108657507Y-112026998D01*
X108749821Y-111864495D01*
X108808814Y-111687157D01*
X108814203Y-111644501D01*
X108831796Y-111505241D01*
X108831797Y-111505232D01*
X108832238Y-111501738D01*
X108832449Y-111486630D01*
X111292482Y-111486630D01*
X111292998Y-111492774D01*
X111306206Y-111650057D01*
X111308121Y-111672867D01*
X111359636Y-111852520D01*
X111445064Y-112018746D01*
X111448887Y-112023570D01*
X111448890Y-112023574D01*
X111520311Y-112113684D01*
X111561152Y-112165212D01*
X111565846Y-112169207D01*
X111669224Y-112257189D01*
X111703478Y-112286342D01*
X111866621Y-112377519D01*
X112044367Y-112435272D01*
X112229945Y-112457401D01*
X112236080Y-112456929D01*
X112236082Y-112456929D01*
X112292119Y-112452617D01*
X112416287Y-112443063D01*
X112596296Y-112392804D01*
X112601785Y-112390031D01*
X112601791Y-112390029D01*
X112714321Y-112333185D01*
X112763114Y-112308538D01*
X112791524Y-112286342D01*
X112839900Y-112248546D01*
X112910387Y-112193475D01*
X112914413Y-112188811D01*
X112914416Y-112188808D01*
X113021505Y-112064744D01*
X113032507Y-112051998D01*
X113124821Y-111889495D01*
X113131356Y-111869852D01*
X113181867Y-111718009D01*
X113183814Y-111712157D01*
X113203066Y-111559764D01*
X113206796Y-111530241D01*
X113206797Y-111530232D01*
X113207238Y-111526738D01*
X113207611Y-111500000D01*
X113189373Y-111313999D01*
X113185419Y-111300901D01*
X113137136Y-111140983D01*
X113135355Y-111135083D01*
X113047615Y-110970066D01*
X113043719Y-110965289D01*
X113043715Y-110965283D01*
X113040858Y-110961780D01*
X113013303Y-110896349D01*
X113012500Y-110882144D01*
X113012500Y-110118028D01*
X113032502Y-110049907D01*
X113049405Y-110028933D01*
X113101285Y-109977053D01*
X113166324Y-109943196D01*
X113166287Y-109943063D01*
X113346296Y-109892804D01*
X113351785Y-109890031D01*
X113351791Y-109890029D01*
X113429159Y-109850947D01*
X113513114Y-109808538D01*
X113533403Y-109792687D01*
X113571352Y-109763037D01*
X113660387Y-109693475D01*
X113664413Y-109688811D01*
X113664416Y-109688808D01*
X113778480Y-109556663D01*
X113782507Y-109551998D01*
X113874821Y-109389495D01*
X113885022Y-109358832D01*
X113919972Y-109253767D01*
X113933814Y-109212157D01*
X113944139Y-109130425D01*
X113956796Y-109030241D01*
X113956797Y-109030232D01*
X113957238Y-109026738D01*
X113957611Y-109000000D01*
X113942720Y-108848134D01*
X122191500Y-108848134D01*
X122198255Y-108910316D01*
X122249385Y-109046705D01*
X122336739Y-109163261D01*
X122453295Y-109250615D01*
X122589684Y-109301745D01*
X122651866Y-109308500D01*
X125348134Y-109308500D01*
X125410316Y-109301745D01*
X125546705Y-109250615D01*
X125663261Y-109163261D01*
X125750615Y-109046705D01*
X125801745Y-108910316D01*
X125808500Y-108848134D01*
X125808500Y-106151866D01*
X125801745Y-106089684D01*
X125750615Y-105953295D01*
X125663261Y-105836739D01*
X125546705Y-105749385D01*
X125410316Y-105698255D01*
X125348134Y-105691500D01*
X122651866Y-105691500D01*
X122589684Y-105698255D01*
X122453295Y-105749385D01*
X122336739Y-105836739D01*
X122249385Y-105953295D01*
X122198255Y-106089684D01*
X122191500Y-106151866D01*
X122191500Y-108848134D01*
X113942720Y-108848134D01*
X113939373Y-108813999D01*
X113935419Y-108800901D01*
X113887136Y-108640983D01*
X113885355Y-108635083D01*
X113797615Y-108470066D01*
X113788574Y-108458981D01*
X113683388Y-108330010D01*
X113683385Y-108330007D01*
X113679493Y-108325235D01*
X113674744Y-108321306D01*
X113540239Y-108210034D01*
X113540236Y-108210032D01*
X113535489Y-108206105D01*
X113371089Y-108117214D01*
X113281822Y-108089581D01*
X113198441Y-108063770D01*
X113198438Y-108063769D01*
X113192554Y-108061948D01*
X113186429Y-108061304D01*
X113186428Y-108061304D01*
X113012813Y-108043056D01*
X113012812Y-108043056D01*
X113006685Y-108042412D01*
X112888087Y-108053206D01*
X112826703Y-108058792D01*
X112826702Y-108058792D01*
X112820562Y-108059351D01*
X112814648Y-108061092D01*
X112814646Y-108061092D01*
X112801932Y-108064834D01*
X112641273Y-108112119D01*
X112635808Y-108114976D01*
X112483337Y-108194685D01*
X112475647Y-108198705D01*
X112329995Y-108315813D01*
X112209862Y-108458981D01*
X112206899Y-108464370D01*
X112206896Y-108464375D01*
X112142040Y-108582349D01*
X112119826Y-108622757D01*
X112117965Y-108628624D01*
X112117964Y-108628626D01*
X112066810Y-108789885D01*
X112063315Y-108800901D01*
X112062628Y-108807023D01*
X112062627Y-108807029D01*
X112060974Y-108821760D01*
X112033502Y-108887226D01*
X112024855Y-108896807D01*
X111758472Y-109163190D01*
X111744059Y-109175577D01*
X111726436Y-109188546D01*
X111708642Y-109209491D01*
X111692021Y-109229055D01*
X111685091Y-109236571D01*
X111679347Y-109242315D01*
X111677073Y-109245189D01*
X111677067Y-109245196D01*
X111661628Y-109264711D01*
X111658837Y-109268115D01*
X111616055Y-109318472D01*
X111616052Y-109318476D01*
X111611316Y-109324051D01*
X111607988Y-109330568D01*
X111604611Y-109335632D01*
X111601384Y-109340856D01*
X111596840Y-109346600D01*
X111584637Y-109372710D01*
X111565768Y-109413082D01*
X111563837Y-109417033D01*
X111558311Y-109427856D01*
X111530457Y-109482404D01*
X111528716Y-109489519D01*
X111526579Y-109495265D01*
X111524655Y-109501048D01*
X111521556Y-109507679D01*
X111520066Y-109514843D01*
X111506608Y-109579547D01*
X111505639Y-109583829D01*
X111488196Y-109655112D01*
X111487500Y-109666330D01*
X111487461Y-109666328D01*
X111487228Y-109670229D01*
X111486839Y-109674588D01*
X111485348Y-109681756D01*
X111485546Y-109689073D01*
X111487454Y-109759577D01*
X111487500Y-109762986D01*
X111487500Y-110880678D01*
X111465462Y-110951866D01*
X111463818Y-110954266D01*
X111459862Y-110958981D01*
X111456901Y-110964367D01*
X111456897Y-110964373D01*
X111418899Y-111033493D01*
X111369826Y-111122757D01*
X111367965Y-111128624D01*
X111367964Y-111128626D01*
X111347308Y-111193741D01*
X111313315Y-111300901D01*
X111292482Y-111486630D01*
X108832449Y-111486630D01*
X108832611Y-111475000D01*
X108814373Y-111288999D01*
X108760355Y-111110083D01*
X108672615Y-110945066D01*
X108625532Y-110887337D01*
X108558388Y-110805010D01*
X108558385Y-110805007D01*
X108554493Y-110800235D01*
X108549744Y-110796306D01*
X108415239Y-110685034D01*
X108415236Y-110685032D01*
X108410489Y-110681105D01*
X108246089Y-110592214D01*
X108150903Y-110562749D01*
X108073441Y-110538770D01*
X108073438Y-110538769D01*
X108067554Y-110536948D01*
X108061429Y-110536304D01*
X108061428Y-110536304D01*
X107887813Y-110518056D01*
X107887812Y-110518056D01*
X107881685Y-110517412D01*
X107804364Y-110524449D01*
X107701703Y-110533792D01*
X107701702Y-110533792D01*
X107695562Y-110534351D01*
X107689648Y-110536092D01*
X107689646Y-110536092D01*
X107599075Y-110562749D01*
X107528079Y-110562795D01*
X107468328Y-110524449D01*
X107438794Y-110459887D01*
X107437500Y-110441876D01*
X107437500Y-109517377D01*
X107438933Y-109498427D01*
X107441124Y-109484028D01*
X107441124Y-109484022D01*
X107442224Y-109476793D01*
X107437915Y-109423818D01*
X107437500Y-109413603D01*
X107437500Y-109405475D01*
X107437078Y-109401853D01*
X107437077Y-109401840D01*
X107434191Y-109377086D01*
X107433758Y-109372710D01*
X107432174Y-109353231D01*
X107427809Y-109299574D01*
X107425553Y-109292612D01*
X107424357Y-109286624D01*
X107422949Y-109280667D01*
X107422101Y-109273393D01*
X107419603Y-109266511D01*
X107419602Y-109266507D01*
X107397055Y-109204393D01*
X107395645Y-109200289D01*
X107373013Y-109130425D01*
X107369213Y-109124162D01*
X107366675Y-109118620D01*
X107363933Y-109113144D01*
X107361434Y-109106259D01*
X107321185Y-109044868D01*
X107318870Y-109041200D01*
X107280773Y-108978419D01*
X107273333Y-108969995D01*
X107273362Y-108969969D01*
X107270762Y-108967038D01*
X107267958Y-108963684D01*
X107263946Y-108957565D01*
X107207413Y-108904011D01*
X107204972Y-108901634D01*
X106561810Y-108258472D01*
X106549423Y-108244059D01*
X106540795Y-108232335D01*
X106536454Y-108226436D01*
X106495945Y-108192021D01*
X106488429Y-108185091D01*
X106482685Y-108179347D01*
X106479811Y-108177073D01*
X106479804Y-108177067D01*
X106460289Y-108161628D01*
X106456885Y-108158837D01*
X106406528Y-108116055D01*
X106406524Y-108116052D01*
X106400949Y-108111316D01*
X106394432Y-108107988D01*
X106389368Y-108104611D01*
X106384144Y-108101384D01*
X106378400Y-108096840D01*
X106352109Y-108084552D01*
X106311918Y-108065768D01*
X106307967Y-108063837D01*
X106274702Y-108046851D01*
X106242596Y-108030457D01*
X106235481Y-108028716D01*
X106229735Y-108026579D01*
X106223952Y-108024655D01*
X106217321Y-108021556D01*
X106145443Y-108006606D01*
X106141171Y-108005639D01*
X106069888Y-107988196D01*
X106064289Y-107987849D01*
X106064285Y-107987848D01*
X106058670Y-107987500D01*
X106058672Y-107987461D01*
X106054771Y-107987228D01*
X106050412Y-107986839D01*
X106043244Y-107985348D01*
X106035927Y-107985546D01*
X105965423Y-107987454D01*
X105962014Y-107987500D01*
X105868802Y-107987500D01*
X105800681Y-107967498D01*
X105793236Y-107962056D01*
X105790239Y-107960034D01*
X105785489Y-107956105D01*
X105621089Y-107867214D01*
X105490333Y-107826738D01*
X105448441Y-107813770D01*
X105448438Y-107813769D01*
X105442554Y-107811948D01*
X105428521Y-107810473D01*
X105362864Y-107783460D01*
X105352596Y-107774258D01*
X104549405Y-106971067D01*
X104515379Y-106908755D01*
X104512500Y-106881972D01*
X104512500Y-105536630D01*
X106242482Y-105536630D01*
X106242998Y-105542774D01*
X106255983Y-105697402D01*
X106258121Y-105722867D01*
X106309636Y-105902520D01*
X106395064Y-106068746D01*
X106398887Y-106073570D01*
X106398890Y-106073574D01*
X106502888Y-106204786D01*
X106511152Y-106215212D01*
X106515846Y-106219207D01*
X106572744Y-106267631D01*
X106653478Y-106336342D01*
X106816621Y-106427519D01*
X106994367Y-106485272D01*
X107022083Y-106488577D01*
X107087356Y-106516505D01*
X107096258Y-106524596D01*
X107766471Y-107194809D01*
X107800497Y-107257121D01*
X107795432Y-107327936D01*
X107787797Y-107344592D01*
X107744826Y-107422757D01*
X107742962Y-107428632D01*
X107742961Y-107428635D01*
X107720396Y-107499770D01*
X107688315Y-107600901D01*
X107667482Y-107786630D01*
X107668468Y-107798366D01*
X107680422Y-107940723D01*
X107683121Y-107972867D01*
X107684819Y-107978788D01*
X107684819Y-107978789D01*
X107687899Y-107989530D01*
X107734636Y-108152520D01*
X107820064Y-108318746D01*
X107823887Y-108323570D01*
X107823890Y-108323574D01*
X107920188Y-108445070D01*
X107936152Y-108465212D01*
X107940846Y-108469207D01*
X107973819Y-108497269D01*
X108078478Y-108586342D01*
X108241621Y-108677519D01*
X108419367Y-108735272D01*
X108604945Y-108757401D01*
X108611080Y-108756929D01*
X108611082Y-108756929D01*
X108667119Y-108752617D01*
X108791287Y-108743063D01*
X108971296Y-108692804D01*
X108976785Y-108690031D01*
X108976791Y-108690029D01*
X109073884Y-108640983D01*
X109138114Y-108608538D01*
X109166524Y-108586342D01*
X109190486Y-108567621D01*
X109285387Y-108493475D01*
X109289413Y-108488811D01*
X109289416Y-108488808D01*
X109403480Y-108356663D01*
X109407507Y-108351998D01*
X109499821Y-108189495D01*
X109502334Y-108181943D01*
X109540980Y-108065768D01*
X109558814Y-108012157D01*
X109569024Y-107931338D01*
X109581796Y-107830241D01*
X109581797Y-107830232D01*
X109582238Y-107826738D01*
X109582611Y-107800000D01*
X109564373Y-107613999D01*
X109560419Y-107600901D01*
X109528628Y-107495607D01*
X109510355Y-107435083D01*
X109422615Y-107270066D01*
X109418719Y-107265289D01*
X109418715Y-107265283D01*
X109415858Y-107261780D01*
X109388303Y-107196349D01*
X109387500Y-107182144D01*
X109387500Y-107042368D01*
X109388933Y-107023417D01*
X109391123Y-107009024D01*
X109391123Y-107009022D01*
X109392223Y-107001792D01*
X109387915Y-106948825D01*
X109387500Y-106938611D01*
X109387500Y-106930475D01*
X109384190Y-106902084D01*
X109383757Y-106897709D01*
X109378403Y-106831872D01*
X109378402Y-106831869D01*
X109377809Y-106824573D01*
X109375554Y-106817611D01*
X109374354Y-106811607D01*
X109372948Y-106805660D01*
X109372101Y-106798393D01*
X109347053Y-106729387D01*
X109345625Y-106725227D01*
X109325268Y-106662387D01*
X109325266Y-106662382D01*
X109323012Y-106655425D01*
X109319218Y-106649173D01*
X109316666Y-106643598D01*
X109313930Y-106638135D01*
X109311434Y-106631259D01*
X109271181Y-106569863D01*
X109268834Y-106566144D01*
X109243622Y-106524596D01*
X109230772Y-106503419D01*
X109223332Y-106494994D01*
X109223360Y-106494969D01*
X109220766Y-106492044D01*
X109217961Y-106488690D01*
X109213946Y-106482565D01*
X109157413Y-106429011D01*
X109154972Y-106426634D01*
X108176388Y-105448050D01*
X108142362Y-105385738D01*
X108140084Y-105371251D01*
X108139974Y-105370131D01*
X108139373Y-105363999D01*
X108085355Y-105185083D01*
X107997615Y-105020066D01*
X107883496Y-104880143D01*
X107883388Y-104880010D01*
X107883385Y-104880007D01*
X107879493Y-104875235D01*
X107874744Y-104871306D01*
X107740239Y-104760034D01*
X107740236Y-104760032D01*
X107735489Y-104756105D01*
X107571089Y-104667214D01*
X107466189Y-104634742D01*
X107398441Y-104613770D01*
X107398438Y-104613769D01*
X107392554Y-104611948D01*
X107386429Y-104611304D01*
X107386428Y-104611304D01*
X107212813Y-104593056D01*
X107212812Y-104593056D01*
X107206685Y-104592412D01*
X107088087Y-104603206D01*
X107026703Y-104608792D01*
X107026702Y-104608792D01*
X107020562Y-104609351D01*
X107014648Y-104611092D01*
X107014646Y-104611092D01*
X106934291Y-104634742D01*
X106841273Y-104662119D01*
X106835808Y-104664976D01*
X106684018Y-104744329D01*
X106675647Y-104748705D01*
X106529995Y-104865813D01*
X106409862Y-105008981D01*
X106406899Y-105014370D01*
X106406896Y-105014375D01*
X106378484Y-105066057D01*
X106319826Y-105172757D01*
X106317965Y-105178624D01*
X106317964Y-105178626D01*
X106300403Y-105233986D01*
X106263315Y-105350901D01*
X106242482Y-105536630D01*
X104512500Y-105536630D01*
X104512500Y-102567368D01*
X104513933Y-102548417D01*
X104516123Y-102534024D01*
X104516123Y-102534022D01*
X104517223Y-102526792D01*
X104516001Y-102511758D01*
X104512915Y-102473825D01*
X104512500Y-102463611D01*
X104512500Y-102455475D01*
X104509190Y-102427084D01*
X104508757Y-102422709D01*
X104503403Y-102356872D01*
X104503402Y-102356869D01*
X104502809Y-102349573D01*
X104500554Y-102342611D01*
X104499354Y-102336607D01*
X104497948Y-102330660D01*
X104497101Y-102323393D01*
X104472053Y-102254387D01*
X104470625Y-102250227D01*
X104450268Y-102187387D01*
X104450266Y-102187382D01*
X104448012Y-102180425D01*
X104444218Y-102174173D01*
X104441666Y-102168598D01*
X104438930Y-102163135D01*
X104436434Y-102156259D01*
X104405931Y-102109735D01*
X104396181Y-102094863D01*
X104393834Y-102091144D01*
X104355772Y-102028419D01*
X104348332Y-102019994D01*
X104348360Y-102019969D01*
X104345766Y-102017044D01*
X104342961Y-102013690D01*
X104338946Y-102007565D01*
X104282413Y-101954011D01*
X104279972Y-101951634D01*
X102756810Y-100428472D01*
X102744423Y-100414059D01*
X102735795Y-100402335D01*
X102731454Y-100396436D01*
X102690945Y-100362021D01*
X102683429Y-100355091D01*
X102677685Y-100349347D01*
X102674811Y-100347073D01*
X102674804Y-100347067D01*
X102655289Y-100331628D01*
X102651885Y-100328837D01*
X102601528Y-100286055D01*
X102601524Y-100286052D01*
X102595949Y-100281316D01*
X102589432Y-100277988D01*
X102584368Y-100274611D01*
X102579144Y-100271384D01*
X102573400Y-100266840D01*
X102521730Y-100242691D01*
X102506918Y-100235768D01*
X102502967Y-100233837D01*
X102453214Y-100208432D01*
X102437596Y-100200457D01*
X102430481Y-100198716D01*
X102424735Y-100196579D01*
X102418952Y-100194655D01*
X102412321Y-100191556D01*
X102340443Y-100176606D01*
X102336171Y-100175639D01*
X102264888Y-100158196D01*
X102259289Y-100157849D01*
X102259285Y-100157848D01*
X102253670Y-100157500D01*
X102253672Y-100157461D01*
X102249771Y-100157228D01*
X102245412Y-100156839D01*
X102238244Y-100155348D01*
X102230927Y-100155546D01*
X102160423Y-100157454D01*
X102157014Y-100157500D01*
X102080235Y-100157500D01*
X102012114Y-100137498D01*
X101982995Y-100109510D01*
X101982133Y-100110234D01*
X101978598Y-100106021D01*
X101975439Y-100101510D01*
X101860559Y-99986630D01*
X114092482Y-99986630D01*
X114093605Y-100000000D01*
X114106860Y-100157848D01*
X114108121Y-100172867D01*
X114159636Y-100352520D01*
X114245064Y-100518746D01*
X114248887Y-100523570D01*
X114248890Y-100523574D01*
X114320626Y-100614081D01*
X114361152Y-100665212D01*
X114365846Y-100669207D01*
X114418453Y-100713979D01*
X114503478Y-100786342D01*
X114666621Y-100877519D01*
X114844367Y-100935272D01*
X115029945Y-100957401D01*
X115036080Y-100956929D01*
X115036082Y-100956929D01*
X115092119Y-100952617D01*
X115216287Y-100943063D01*
X115396296Y-100892804D01*
X115401785Y-100890031D01*
X115401791Y-100890029D01*
X115479159Y-100850947D01*
X115563114Y-100808538D01*
X115591524Y-100786342D01*
X115615486Y-100767621D01*
X115710387Y-100693475D01*
X115714413Y-100688811D01*
X115714416Y-100688808D01*
X115828480Y-100556663D01*
X115832507Y-100551998D01*
X115910867Y-100414059D01*
X115921778Y-100394852D01*
X115921779Y-100394851D01*
X115924821Y-100389495D01*
X115933961Y-100362021D01*
X115962755Y-100275463D01*
X115983814Y-100212157D01*
X115991830Y-100148705D01*
X116006796Y-100030241D01*
X116006797Y-100030232D01*
X116007238Y-100026738D01*
X116007611Y-100000000D01*
X115989373Y-99813999D01*
X115985419Y-99800901D01*
X115944545Y-99665521D01*
X115935355Y-99635083D01*
X115847615Y-99470066D01*
X115843720Y-99465290D01*
X115733388Y-99330010D01*
X115733385Y-99330007D01*
X115729493Y-99325235D01*
X115724744Y-99321306D01*
X115590239Y-99210034D01*
X115590236Y-99210032D01*
X115585489Y-99206105D01*
X115421089Y-99117214D01*
X115318470Y-99085448D01*
X115248441Y-99063770D01*
X115248438Y-99063769D01*
X115242554Y-99061948D01*
X115236429Y-99061304D01*
X115236428Y-99061304D01*
X115062813Y-99043056D01*
X115062812Y-99043056D01*
X115056685Y-99042412D01*
X114941236Y-99052919D01*
X114876703Y-99058792D01*
X114876702Y-99058792D01*
X114870562Y-99059351D01*
X114864648Y-99061092D01*
X114864646Y-99061092D01*
X114779946Y-99086021D01*
X114691273Y-99112119D01*
X114685808Y-99114976D01*
X114633932Y-99142096D01*
X114525647Y-99198705D01*
X114379995Y-99315813D01*
X114259862Y-99458981D01*
X114256899Y-99464370D01*
X114256896Y-99464375D01*
X114196864Y-99573574D01*
X114169826Y-99622757D01*
X114167965Y-99628624D01*
X114167964Y-99628626D01*
X114146024Y-99697790D01*
X114113315Y-99800901D01*
X114092482Y-99986630D01*
X101860559Y-99986630D01*
X101818490Y-99944561D01*
X101813982Y-99941404D01*
X101813979Y-99941402D01*
X101677575Y-99845891D01*
X101636673Y-99817251D01*
X101631691Y-99814928D01*
X101631686Y-99814925D01*
X101440492Y-99725770D01*
X101440491Y-99725769D01*
X101435510Y-99723447D01*
X101430202Y-99722025D01*
X101430200Y-99722024D01*
X101226429Y-99667424D01*
X101226427Y-99667424D01*
X101221114Y-99666000D01*
X101000000Y-99646655D01*
X100778886Y-99666000D01*
X100773573Y-99667424D01*
X100773571Y-99667424D01*
X100569800Y-99722024D01*
X100569798Y-99722025D01*
X100564490Y-99723447D01*
X100559510Y-99725769D01*
X100559508Y-99725770D01*
X100368315Y-99814925D01*
X100368310Y-99814928D01*
X100363328Y-99817251D01*
X100358821Y-99820407D01*
X100358819Y-99820408D01*
X100186021Y-99941402D01*
X100186018Y-99941404D01*
X100181510Y-99944561D01*
X100024561Y-100101510D01*
X100021404Y-100106018D01*
X100021402Y-100106021D01*
X99939433Y-100223085D01*
X99883976Y-100267413D01*
X99813356Y-100274722D01*
X99749996Y-100242691D01*
X99714011Y-100181490D01*
X99712135Y-100128931D01*
X99712577Y-100126425D01*
X99714000Y-100121114D01*
X99714480Y-100115634D01*
X99732866Y-99905475D01*
X99733345Y-99900000D01*
X99714000Y-99678886D01*
X99656553Y-99464490D01*
X99589425Y-99320534D01*
X99565075Y-99268315D01*
X99565072Y-99268310D01*
X99562749Y-99263328D01*
X99530119Y-99216727D01*
X99438598Y-99086021D01*
X99438596Y-99086018D01*
X99435439Y-99081510D01*
X99278490Y-98924561D01*
X99273982Y-98921404D01*
X99273979Y-98921402D01*
X99164911Y-98845032D01*
X99096673Y-98797251D01*
X99091691Y-98794928D01*
X99091686Y-98794925D01*
X98900492Y-98705770D01*
X98900491Y-98705769D01*
X98895510Y-98703447D01*
X98890202Y-98702025D01*
X98890200Y-98702024D01*
X98686429Y-98647424D01*
X98686427Y-98647424D01*
X98681114Y-98646000D01*
X98460000Y-98626655D01*
X98238886Y-98646000D01*
X98233573Y-98647424D01*
X98233571Y-98647424D01*
X98029800Y-98702024D01*
X98029798Y-98702025D01*
X98024490Y-98703447D01*
X98019510Y-98705769D01*
X98019508Y-98705770D01*
X97828315Y-98794925D01*
X97828310Y-98794928D01*
X97823328Y-98797251D01*
X97818821Y-98800407D01*
X97818819Y-98800408D01*
X97646021Y-98921402D01*
X97646018Y-98921404D01*
X97641510Y-98924561D01*
X97484561Y-99081510D01*
X97481404Y-99086018D01*
X97481402Y-99086021D01*
X97389881Y-99216727D01*
X97357251Y-99263328D01*
X97354928Y-99268310D01*
X97354925Y-99268315D01*
X97330575Y-99320534D01*
X97263447Y-99464490D01*
X97206000Y-99678886D01*
X97186655Y-99900000D01*
X97206000Y-100121114D01*
X97207424Y-100126427D01*
X97207424Y-100126429D01*
X97250734Y-100288063D01*
X97263447Y-100335510D01*
X97265769Y-100340490D01*
X97265770Y-100340492D01*
X97354925Y-100531685D01*
X97354928Y-100531690D01*
X97357251Y-100536672D01*
X97360407Y-100541179D01*
X97360408Y-100541181D01*
X97465361Y-100691069D01*
X97484561Y-100718490D01*
X97596976Y-100830905D01*
X97631002Y-100893217D01*
X97625937Y-100964032D01*
X97596976Y-101009095D01*
X97484561Y-101121510D01*
X97481404Y-101126018D01*
X97481402Y-101126021D01*
X97430696Y-101198437D01*
X97357251Y-101303328D01*
X97354928Y-101308310D01*
X97354925Y-101308315D01*
X97332918Y-101355510D01*
X97263447Y-101504490D01*
X97262025Y-101509798D01*
X97262024Y-101509800D01*
X97207424Y-101713571D01*
X97206000Y-101718886D01*
X97186655Y-101940000D01*
X90008500Y-101940000D01*
X90008500Y-94279667D01*
X90028502Y-94211546D01*
X90082158Y-94165053D01*
X90152432Y-94154949D01*
X90217012Y-94184443D01*
X90251893Y-94233897D01*
X90259927Y-94254503D01*
X90261624Y-94257708D01*
X90395113Y-94509825D01*
X90422275Y-94561126D01*
X90424325Y-94564109D01*
X90424327Y-94564112D01*
X90616733Y-94844064D01*
X90616739Y-94844071D01*
X90618790Y-94847056D01*
X90696502Y-94936139D01*
X90843021Y-95104097D01*
X90846866Y-95108505D01*
X90849551Y-95110948D01*
X91059268Y-95301775D01*
X91103481Y-95342006D01*
X91385233Y-95544466D01*
X91688388Y-95713200D01*
X92008928Y-95845972D01*
X92012422Y-95846967D01*
X92012424Y-95846968D01*
X92339103Y-95940025D01*
X92339108Y-95940026D01*
X92342604Y-95941022D01*
X92539304Y-95973233D01*
X92681412Y-95996504D01*
X92681419Y-95996505D01*
X92684993Y-95997090D01*
X92858275Y-96005262D01*
X93027931Y-96013263D01*
X93027932Y-96013263D01*
X93031558Y-96013434D01*
X93040415Y-96012830D01*
X93374073Y-95990084D01*
X93374081Y-95990083D01*
X93377704Y-95989836D01*
X93381279Y-95989173D01*
X93381282Y-95989173D01*
X93715279Y-95927270D01*
X93715283Y-95927269D01*
X93718844Y-95926609D01*
X93954704Y-95854049D01*
X94046978Y-95825662D01*
X94050456Y-95824592D01*
X94368145Y-95685136D01*
X94399649Y-95666727D01*
X94458536Y-95632316D01*
X94527442Y-95615217D01*
X94594655Y-95638086D01*
X94638834Y-95693663D01*
X94645952Y-95764302D01*
X94638515Y-95789322D01*
X94579690Y-95931338D01*
X94577796Y-95935911D01*
X94576641Y-95940723D01*
X94518009Y-96184938D01*
X94518008Y-96184944D01*
X94516854Y-96189751D01*
X94496372Y-96450000D01*
X94516854Y-96710249D01*
X94518008Y-96715056D01*
X94518009Y-96715062D01*
X94538618Y-96800901D01*
X94577796Y-96964089D01*
X94579689Y-96968660D01*
X94579690Y-96968662D01*
X94666728Y-97178789D01*
X94677697Y-97205271D01*
X94814097Y-97427856D01*
X94983637Y-97626363D01*
X95182144Y-97795903D01*
X95404729Y-97932303D01*
X95409299Y-97934196D01*
X95409303Y-97934198D01*
X95577719Y-98003958D01*
X95645911Y-98032204D01*
X95734931Y-98053576D01*
X95894938Y-98091991D01*
X95894944Y-98091992D01*
X95899751Y-98093146D01*
X95990884Y-98100318D01*
X96092385Y-98108307D01*
X96092394Y-98108307D01*
X96094842Y-98108500D01*
X96225158Y-98108500D01*
X96227606Y-98108307D01*
X96227615Y-98108307D01*
X96329116Y-98100318D01*
X96420249Y-98093146D01*
X96425056Y-98091992D01*
X96425062Y-98091991D01*
X96585069Y-98053576D01*
X96674089Y-98032204D01*
X96742281Y-98003958D01*
X96910697Y-97934198D01*
X96910701Y-97934196D01*
X96915271Y-97932303D01*
X97137856Y-97795903D01*
X97336363Y-97626363D01*
X97505903Y-97427856D01*
X97642303Y-97205271D01*
X97653273Y-97178789D01*
X97732867Y-96986630D01*
X113542482Y-96986630D01*
X113542998Y-96992774D01*
X113549646Y-97071937D01*
X113558121Y-97172867D01*
X113609636Y-97352520D01*
X113695064Y-97518746D01*
X113698887Y-97523570D01*
X113698890Y-97523574D01*
X113782907Y-97629576D01*
X113811152Y-97665212D01*
X113815846Y-97669207D01*
X113925797Y-97762783D01*
X113953478Y-97786342D01*
X114116621Y-97877519D01*
X114294367Y-97935272D01*
X114479945Y-97957401D01*
X114486080Y-97956929D01*
X114486082Y-97956929D01*
X114542119Y-97952617D01*
X114666287Y-97943063D01*
X114846296Y-97892804D01*
X114851785Y-97890031D01*
X114851791Y-97890029D01*
X114929159Y-97850947D01*
X115013114Y-97808538D01*
X115033403Y-97792687D01*
X115071677Y-97762783D01*
X115160387Y-97693475D01*
X115164413Y-97688811D01*
X115164416Y-97688808D01*
X115240669Y-97600468D01*
X115282507Y-97551998D01*
X115349019Y-97434915D01*
X115371778Y-97394852D01*
X115371779Y-97394851D01*
X115374821Y-97389495D01*
X115389091Y-97346600D01*
X115431867Y-97218009D01*
X115433814Y-97212157D01*
X115451528Y-97071937D01*
X115456796Y-97030241D01*
X115456797Y-97030232D01*
X115457238Y-97026738D01*
X115457611Y-97000000D01*
X115439373Y-96813999D01*
X115436778Y-96805402D01*
X115387136Y-96640983D01*
X115385355Y-96635083D01*
X115297615Y-96470066D01*
X115286691Y-96456672D01*
X115183388Y-96330010D01*
X115183385Y-96330007D01*
X115179493Y-96325235D01*
X115174744Y-96321306D01*
X115040239Y-96210034D01*
X115040236Y-96210032D01*
X115035489Y-96206105D01*
X114871089Y-96117214D01*
X114751478Y-96080188D01*
X114698441Y-96063770D01*
X114698438Y-96063769D01*
X114692554Y-96061948D01*
X114686429Y-96061304D01*
X114686428Y-96061304D01*
X114512813Y-96043056D01*
X114512812Y-96043056D01*
X114506685Y-96042412D01*
X114388087Y-96053206D01*
X114326703Y-96058792D01*
X114326702Y-96058792D01*
X114320562Y-96059351D01*
X114314648Y-96061092D01*
X114314646Y-96061092D01*
X114200325Y-96094739D01*
X114141273Y-96112119D01*
X114135808Y-96114976D01*
X113983337Y-96194685D01*
X113975647Y-96198705D01*
X113829995Y-96315813D01*
X113709862Y-96458981D01*
X113706899Y-96464370D01*
X113706896Y-96464375D01*
X113652352Y-96563592D01*
X113619826Y-96622757D01*
X113563315Y-96800901D01*
X113542482Y-96986630D01*
X97732867Y-96986630D01*
X97740310Y-96968662D01*
X97740311Y-96968660D01*
X97742204Y-96964089D01*
X97781382Y-96800901D01*
X97801991Y-96715062D01*
X97801992Y-96715056D01*
X97803146Y-96710249D01*
X97823628Y-96450000D01*
X97803146Y-96189751D01*
X97801992Y-96184944D01*
X97801991Y-96184938D01*
X97743359Y-95940723D01*
X97742204Y-95935911D01*
X97740310Y-95931338D01*
X97644198Y-95699303D01*
X97644196Y-95699299D01*
X97642303Y-95694729D01*
X97505903Y-95472144D01*
X97336363Y-95273637D01*
X97137856Y-95104097D01*
X96915271Y-94967697D01*
X96910701Y-94965804D01*
X96910697Y-94965802D01*
X96678662Y-94869690D01*
X96678660Y-94869689D01*
X96674089Y-94867796D01*
X96575239Y-94844064D01*
X96425062Y-94808009D01*
X96425056Y-94808008D01*
X96420249Y-94806854D01*
X96329116Y-94799682D01*
X96227615Y-94791693D01*
X96227606Y-94791693D01*
X96225158Y-94791500D01*
X96094842Y-94791500D01*
X96092394Y-94791693D01*
X96092385Y-94791693D01*
X95990884Y-94799682D01*
X95899751Y-94806854D01*
X95894944Y-94808008D01*
X95894938Y-94808009D01*
X95744761Y-94844064D01*
X95645911Y-94867796D01*
X95641337Y-94869690D01*
X95639489Y-94870291D01*
X95568522Y-94872319D01*
X95507723Y-94835657D01*
X95476398Y-94771945D01*
X95484490Y-94701411D01*
X95495240Y-94681281D01*
X95607866Y-94509825D01*
X95607871Y-94509816D01*
X95609853Y-94506799D01*
X95687799Y-94351821D01*
X95764117Y-94200080D01*
X95764120Y-94200072D01*
X95765744Y-94196844D01*
X95777378Y-94165053D01*
X95883729Y-93874437D01*
X95883730Y-93874433D01*
X95884977Y-93871026D01*
X95885822Y-93867504D01*
X95885825Y-93867496D01*
X95965124Y-93537191D01*
X95965125Y-93537187D01*
X95965971Y-93533662D01*
X95966472Y-93529519D01*
X96007316Y-93192004D01*
X96007316Y-93191997D01*
X96007652Y-93189225D01*
X96009852Y-93119242D01*
X96013511Y-93002797D01*
X96013599Y-93000000D01*
X96013438Y-92997204D01*
X95993836Y-92657246D01*
X95993835Y-92657241D01*
X95993627Y-92653626D01*
X95933976Y-92311842D01*
X95912713Y-92240057D01*
X95893482Y-92175137D01*
X95835437Y-91979180D01*
X95790420Y-91873639D01*
X95700740Y-91663386D01*
X95700738Y-91663383D01*
X95699316Y-91660048D01*
X95649569Y-91572831D01*
X95529208Y-91361816D01*
X95527417Y-91358676D01*
X95499868Y-91321172D01*
X95451065Y-91254735D01*
X95322018Y-91079060D01*
X95269221Y-91022243D01*
X95122728Y-90864598D01*
X95085842Y-90824904D01*
X94975086Y-90730310D01*
X94936278Y-90670860D01*
X94935772Y-90599866D01*
X94973728Y-90539867D01*
X95038096Y-90509914D01*
X95056918Y-90508500D01*
X119004774Y-90508500D01*
X119072895Y-90528502D01*
G37*
G04 #@! TD.AperFunction*
M02*
