G04 #@! TF.GenerationSoftware,KiCad,Pcbnew,(6.0.8-1)-1*
G04 #@! TF.CreationDate,2022-11-19T13:53:03+02:00*
G04 #@! TF.ProjectId,AidonToRS485,4169646f-6e54-46f5-9253-3438352e6b69,1*
G04 #@! TF.SameCoordinates,Original*
G04 #@! TF.FileFunction,Copper,L3,Inr*
G04 #@! TF.FilePolarity,Positive*
%FSLAX46Y46*%
G04 Gerber Fmt 4.6, Leading zero omitted, Abs format (unit mm)*
G04 Created by KiCad (PCBNEW (6.0.8-1)-1) date 2022-11-19 13:53:03*
%MOMM*%
%LPD*%
G01*
G04 APERTURE LIST*
G04 #@! TA.AperFunction,ComponentPad*
%ADD10R,1.520000X1.520000*%
G04 #@! TD*
G04 #@! TA.AperFunction,ComponentPad*
%ADD11C,1.520000*%
G04 #@! TD*
G04 #@! TA.AperFunction,ComponentPad*
%ADD12R,1.700000X1.700000*%
G04 #@! TD*
G04 #@! TA.AperFunction,ComponentPad*
%ADD13O,1.700000X1.700000*%
G04 #@! TD*
G04 #@! TA.AperFunction,ComponentPad*
%ADD14R,2.600000X2.600000*%
G04 #@! TD*
G04 #@! TA.AperFunction,ComponentPad*
%ADD15C,2.600000*%
G04 #@! TD*
G04 #@! TA.AperFunction,ViaPad*
%ADD16C,4.000000*%
G04 #@! TD*
G04 #@! TA.AperFunction,ViaPad*
%ADD17C,0.889000*%
G04 #@! TD*
G04 #@! TA.AperFunction,ViaPad*
%ADD18C,5.000000*%
G04 #@! TD*
G04 #@! TA.AperFunction,ViaPad*
%ADD19C,0.685800*%
G04 #@! TD*
G04 #@! TA.AperFunction,Conductor*
%ADD20C,0.508000*%
G04 #@! TD*
G04 APERTURE END LIST*
D10*
X101000000Y-105000000D03*
D11*
X98460000Y-103980000D03*
X101000000Y-102960000D03*
X98460000Y-101940000D03*
X101000000Y-100920000D03*
X98460000Y-99900000D03*
D12*
X120225000Y-92000000D03*
D13*
X122765000Y-92000000D03*
D14*
X124000000Y-107500000D03*
D15*
X124000000Y-102420000D03*
X124000000Y-97340000D03*
D16*
X132000000Y-107000000D03*
D17*
X115050000Y-100000000D03*
D18*
X93000000Y-112000000D03*
X131500000Y-112000000D03*
X93000000Y-93000000D03*
D17*
X102450000Y-103250000D03*
D18*
X131500000Y-93000000D03*
D16*
X132000000Y-98000000D03*
D19*
X110650000Y-97350000D03*
D17*
X104250000Y-100500000D03*
X110000000Y-104750000D03*
D19*
X111350000Y-96650000D03*
X111500000Y-97350000D03*
D17*
X113000000Y-104750000D03*
X104250000Y-99250000D03*
X116000000Y-104750000D03*
D19*
X110600000Y-96600000D03*
D17*
X107875000Y-111475000D03*
X105250000Y-108750000D03*
X112250000Y-111500000D03*
X113000000Y-109000000D03*
X117650000Y-99050000D03*
X114500000Y-97000000D03*
X117650000Y-100950000D03*
X107200000Y-105550000D03*
X108625000Y-107800000D03*
X117250000Y-95500000D03*
D20*
X118580000Y-97000000D02*
X124000000Y-102420000D01*
X114500000Y-97000000D02*
X118580000Y-97000000D01*
G04 #@! TA.AperFunction,Conductor*
G36*
X119072895Y-90528502D02*
G01*
X119119388Y-90582158D01*
X119129492Y-90652432D01*
X119099998Y-90717012D01*
X119080339Y-90735326D01*
X119026989Y-90775310D01*
X119011739Y-90786739D01*
X118924385Y-90903295D01*
X118873255Y-91039684D01*
X118866500Y-91101866D01*
X118866500Y-92898134D01*
X118873255Y-92960316D01*
X118924385Y-93096705D01*
X119011739Y-93213261D01*
X119128295Y-93300615D01*
X119264684Y-93351745D01*
X119326866Y-93358500D01*
X121123134Y-93358500D01*
X121185316Y-93351745D01*
X121321705Y-93300615D01*
X121438261Y-93213261D01*
X121525615Y-93096705D01*
X121547799Y-93037529D01*
X121569598Y-92979382D01*
X121612240Y-92922618D01*
X121678802Y-92897918D01*
X121748150Y-92913126D01*
X121782817Y-92941114D01*
X121811250Y-92973938D01*
X121983126Y-93116632D01*
X122176000Y-93229338D01*
X122384692Y-93309030D01*
X122389760Y-93310061D01*
X122389763Y-93310062D01*
X122497017Y-93331883D01*
X122603597Y-93353567D01*
X122608772Y-93353757D01*
X122608774Y-93353757D01*
X122821673Y-93361564D01*
X122821677Y-93361564D01*
X122826837Y-93361753D01*
X122831957Y-93361097D01*
X122831959Y-93361097D01*
X123043288Y-93334025D01*
X123043289Y-93334025D01*
X123048416Y-93333368D01*
X123053366Y-93331883D01*
X123257429Y-93270661D01*
X123257434Y-93270659D01*
X123262384Y-93269174D01*
X123462994Y-93170896D01*
X123644860Y-93041173D01*
X123803096Y-92883489D01*
X123933453Y-92702077D01*
X124007008Y-92553250D01*
X124030136Y-92506453D01*
X124030137Y-92506451D01*
X124032430Y-92501811D01*
X124097370Y-92288069D01*
X124126529Y-92066590D01*
X124128156Y-92000000D01*
X124109852Y-91777361D01*
X124055431Y-91560702D01*
X123966354Y-91355840D01*
X123845014Y-91168277D01*
X123694670Y-91003051D01*
X123690619Y-90999852D01*
X123690615Y-90999848D01*
X123523414Y-90867800D01*
X123523410Y-90867798D01*
X123519359Y-90864598D01*
X123323789Y-90756638D01*
X123318624Y-90754809D01*
X123314285Y-90753272D01*
X123256750Y-90711677D01*
X123230835Y-90645579D01*
X123244770Y-90575964D01*
X123294129Y-90524933D01*
X123356347Y-90508500D01*
X131950633Y-90508500D01*
X131970018Y-90510000D01*
X131984851Y-90512310D01*
X131984855Y-90512310D01*
X131993724Y-90513691D01*
X132010012Y-90511561D01*
X132034589Y-90510767D01*
X132061441Y-90512527D01*
X132251701Y-90524998D01*
X132268041Y-90527149D01*
X132359570Y-90545355D01*
X132507343Y-90574749D01*
X132523257Y-90579013D01*
X132607613Y-90607648D01*
X132754292Y-90657439D01*
X132769519Y-90663746D01*
X132988342Y-90771657D01*
X133002616Y-90779898D01*
X133205478Y-90915447D01*
X133218553Y-90925480D01*
X133401993Y-91086352D01*
X133413648Y-91098007D01*
X133574520Y-91281447D01*
X133584553Y-91294522D01*
X133720102Y-91497384D01*
X133728343Y-91511658D01*
X133836254Y-91730481D01*
X133842561Y-91745708D01*
X133920986Y-91976740D01*
X133925252Y-91992660D01*
X133972851Y-92231959D01*
X133975002Y-92248299D01*
X133988763Y-92458236D01*
X133987733Y-92481350D01*
X133987690Y-92484854D01*
X133986309Y-92493724D01*
X133987473Y-92502626D01*
X133987473Y-92502628D01*
X133990436Y-92525283D01*
X133991500Y-92541621D01*
X133991500Y-112450633D01*
X133990000Y-112470018D01*
X133987690Y-112484851D01*
X133987690Y-112484855D01*
X133986309Y-112493724D01*
X133988136Y-112507694D01*
X133988439Y-112510010D01*
X133989233Y-112534590D01*
X133975002Y-112751701D01*
X133972851Y-112768041D01*
X133925252Y-113007340D01*
X133920986Y-113023260D01*
X133842561Y-113254292D01*
X133836254Y-113269519D01*
X133728343Y-113488342D01*
X133720102Y-113502616D01*
X133584553Y-113705478D01*
X133574520Y-113718553D01*
X133413648Y-113901993D01*
X133401993Y-113913648D01*
X133218553Y-114074520D01*
X133205478Y-114084553D01*
X133002616Y-114220102D01*
X132988342Y-114228343D01*
X132769519Y-114336254D01*
X132754292Y-114342561D01*
X132638776Y-114381774D01*
X132523257Y-114420987D01*
X132507343Y-114425251D01*
X132387691Y-114449051D01*
X132268041Y-114472851D01*
X132251701Y-114475002D01*
X132110437Y-114484262D01*
X132041763Y-114488763D01*
X132018650Y-114487733D01*
X132015146Y-114487690D01*
X132006276Y-114486309D01*
X131997374Y-114487473D01*
X131997372Y-114487473D01*
X131983915Y-114489233D01*
X131974714Y-114490436D01*
X131958379Y-114491500D01*
X92049367Y-114491500D01*
X92029982Y-114490000D01*
X92015149Y-114487690D01*
X92015145Y-114487690D01*
X92006276Y-114486309D01*
X91989988Y-114488439D01*
X91965411Y-114489233D01*
X91920801Y-114486309D01*
X91748299Y-114475002D01*
X91731959Y-114472851D01*
X91612309Y-114449051D01*
X91492657Y-114425251D01*
X91476743Y-114420987D01*
X91361224Y-114381774D01*
X91245708Y-114342561D01*
X91230481Y-114336254D01*
X91011658Y-114228343D01*
X90997384Y-114220102D01*
X90794522Y-114084553D01*
X90781447Y-114074520D01*
X90598007Y-113913648D01*
X90586352Y-113901993D01*
X90425480Y-113718553D01*
X90415447Y-113705478D01*
X90279898Y-113502616D01*
X90271657Y-113488342D01*
X90163746Y-113269519D01*
X90157439Y-113254292D01*
X90079014Y-113023260D01*
X90074748Y-113007340D01*
X90027149Y-112768041D01*
X90024998Y-112751701D01*
X90011476Y-112545407D01*
X90012650Y-112522232D01*
X90012334Y-112522204D01*
X90012770Y-112517344D01*
X90013576Y-112512552D01*
X90013729Y-112500000D01*
X90009773Y-112472376D01*
X90008500Y-112454514D01*
X90008500Y-111461630D01*
X106917482Y-111461630D01*
X106917998Y-111467774D01*
X106923244Y-111530241D01*
X106933121Y-111647867D01*
X106984636Y-111827520D01*
X107070064Y-111993746D01*
X107073887Y-111998570D01*
X107073890Y-111998574D01*
X107179170Y-112131402D01*
X107186152Y-112140212D01*
X107190846Y-112144207D01*
X107243252Y-112188808D01*
X107328478Y-112261342D01*
X107491621Y-112352519D01*
X107669367Y-112410272D01*
X107854945Y-112432401D01*
X107861080Y-112431929D01*
X107861082Y-112431929D01*
X107917119Y-112427617D01*
X108041287Y-112418063D01*
X108221296Y-112367804D01*
X108226785Y-112365031D01*
X108226791Y-112365029D01*
X108304159Y-112325947D01*
X108388114Y-112283538D01*
X108416524Y-112261342D01*
X108440486Y-112242621D01*
X108535387Y-112168475D01*
X108539413Y-112163811D01*
X108539416Y-112163808D01*
X108631901Y-112056663D01*
X108657507Y-112026998D01*
X108749821Y-111864495D01*
X108764091Y-111821600D01*
X108798551Y-111718009D01*
X108808814Y-111687157D01*
X108814553Y-111641727D01*
X108831796Y-111505241D01*
X108831797Y-111505232D01*
X108832238Y-111501738D01*
X108832449Y-111486630D01*
X111292482Y-111486630D01*
X111292998Y-111492774D01*
X111306022Y-111647867D01*
X111308121Y-111672867D01*
X111359636Y-111852520D01*
X111445064Y-112018746D01*
X111448887Y-112023570D01*
X111448890Y-112023574D01*
X111537508Y-112135381D01*
X111561152Y-112165212D01*
X111565846Y-112169207D01*
X111669412Y-112257349D01*
X111703478Y-112286342D01*
X111866621Y-112377519D01*
X112044367Y-112435272D01*
X112229945Y-112457401D01*
X112236080Y-112456929D01*
X112236082Y-112456929D01*
X112292119Y-112452617D01*
X112416287Y-112443063D01*
X112596296Y-112392804D01*
X112601785Y-112390031D01*
X112601791Y-112390029D01*
X112681999Y-112349512D01*
X112763114Y-112308538D01*
X112791524Y-112286342D01*
X112823522Y-112261342D01*
X112910387Y-112193475D01*
X112914413Y-112188811D01*
X112914416Y-112188808D01*
X113028480Y-112056663D01*
X113032507Y-112051998D01*
X113124821Y-111889495D01*
X113131356Y-111869852D01*
X113181867Y-111718009D01*
X113183814Y-111712157D01*
X113191936Y-111647867D01*
X113206796Y-111530241D01*
X113206797Y-111530232D01*
X113207238Y-111526738D01*
X113207611Y-111500000D01*
X113189373Y-111313999D01*
X113185419Y-111300901D01*
X113137136Y-111140983D01*
X113135355Y-111135083D01*
X113047615Y-110970066D01*
X113031663Y-110950507D01*
X112933388Y-110830010D01*
X112933385Y-110830007D01*
X112929493Y-110825235D01*
X112924744Y-110821306D01*
X112790239Y-110710034D01*
X112790236Y-110710032D01*
X112785489Y-110706105D01*
X112621089Y-110617214D01*
X112518241Y-110585377D01*
X112448441Y-110563770D01*
X112448438Y-110563769D01*
X112442554Y-110561948D01*
X112436429Y-110561304D01*
X112436428Y-110561304D01*
X112262813Y-110543056D01*
X112262812Y-110543056D01*
X112256685Y-110542412D01*
X112138087Y-110553206D01*
X112076703Y-110558792D01*
X112076702Y-110558792D01*
X112070562Y-110559351D01*
X112064648Y-110561092D01*
X112064646Y-110561092D01*
X111982134Y-110585377D01*
X111891273Y-110612119D01*
X111885808Y-110614976D01*
X111751798Y-110685034D01*
X111725647Y-110698705D01*
X111579995Y-110815813D01*
X111459862Y-110958981D01*
X111456899Y-110964370D01*
X111456896Y-110964375D01*
X111386536Y-111092362D01*
X111369826Y-111122757D01*
X111313315Y-111300901D01*
X111292482Y-111486630D01*
X108832449Y-111486630D01*
X108832611Y-111475000D01*
X108814373Y-111288999D01*
X108810419Y-111275901D01*
X108765953Y-111128626D01*
X108760355Y-111110083D01*
X108672615Y-110945066D01*
X108659727Y-110929264D01*
X108558388Y-110805010D01*
X108558385Y-110805007D01*
X108554493Y-110800235D01*
X108549744Y-110796306D01*
X108415239Y-110685034D01*
X108415236Y-110685032D01*
X108410489Y-110681105D01*
X108246089Y-110592214D01*
X108146235Y-110561304D01*
X108073441Y-110538770D01*
X108073438Y-110538769D01*
X108067554Y-110536948D01*
X108061429Y-110536304D01*
X108061428Y-110536304D01*
X107887813Y-110518056D01*
X107887812Y-110518056D01*
X107881685Y-110517412D01*
X107763087Y-110528206D01*
X107701703Y-110533792D01*
X107701702Y-110533792D01*
X107695562Y-110534351D01*
X107689648Y-110536092D01*
X107689646Y-110536092D01*
X107567466Y-110572052D01*
X107516273Y-110587119D01*
X107350647Y-110673705D01*
X107204995Y-110790813D01*
X107084862Y-110933981D01*
X107081899Y-110939370D01*
X107081896Y-110939375D01*
X107065024Y-110970066D01*
X106994826Y-111097757D01*
X106938315Y-111275901D01*
X106917482Y-111461630D01*
X90008500Y-111461630D01*
X90008500Y-108450000D01*
X94496372Y-108450000D01*
X94516854Y-108710249D01*
X94518008Y-108715056D01*
X94518009Y-108715062D01*
X94538618Y-108800901D01*
X94577796Y-108964089D01*
X94579689Y-108968660D01*
X94579690Y-108968662D01*
X94666728Y-109178789D01*
X94677697Y-109205271D01*
X94814097Y-109427856D01*
X94983637Y-109626363D01*
X95182144Y-109795903D01*
X95404729Y-109932303D01*
X95409299Y-109934196D01*
X95409303Y-109934198D01*
X95641338Y-110030310D01*
X95645911Y-110032204D01*
X95734931Y-110053576D01*
X95894938Y-110091991D01*
X95894944Y-110091992D01*
X95899751Y-110093146D01*
X95990884Y-110100318D01*
X96092385Y-110108307D01*
X96092394Y-110108307D01*
X96094842Y-110108500D01*
X96225158Y-110108500D01*
X96227606Y-110108307D01*
X96227615Y-110108307D01*
X96329116Y-110100318D01*
X96420249Y-110093146D01*
X96425056Y-110091992D01*
X96425062Y-110091991D01*
X96585069Y-110053576D01*
X96674089Y-110032204D01*
X96678662Y-110030310D01*
X96910697Y-109934198D01*
X96910701Y-109934196D01*
X96915271Y-109932303D01*
X97137856Y-109795903D01*
X97336363Y-109626363D01*
X97505903Y-109427856D01*
X97642303Y-109205271D01*
X97653273Y-109178789D01*
X97740310Y-108968662D01*
X97740311Y-108968660D01*
X97742204Y-108964089D01*
X97781382Y-108800901D01*
X97796813Y-108736630D01*
X104292482Y-108736630D01*
X104292998Y-108742774D01*
X104301555Y-108844672D01*
X104308121Y-108922867D01*
X104359636Y-109102520D01*
X104445064Y-109268746D01*
X104448887Y-109273570D01*
X104448890Y-109273574D01*
X104515804Y-109357997D01*
X104561152Y-109415212D01*
X104565846Y-109419207D01*
X104676368Y-109513269D01*
X104703478Y-109536342D01*
X104866621Y-109627519D01*
X105044367Y-109685272D01*
X105229945Y-109707401D01*
X105236080Y-109706929D01*
X105236082Y-109706929D01*
X105292119Y-109702617D01*
X105416287Y-109693063D01*
X105596296Y-109642804D01*
X105601785Y-109640031D01*
X105601791Y-109640029D01*
X105679159Y-109600947D01*
X105763114Y-109558538D01*
X105778342Y-109546641D01*
X105821055Y-109513269D01*
X105910387Y-109443475D01*
X105914413Y-109438811D01*
X105914416Y-109438808D01*
X106027327Y-109307999D01*
X106032507Y-109301998D01*
X106080219Y-109218009D01*
X106121778Y-109144852D01*
X106121779Y-109144851D01*
X106124821Y-109139495D01*
X106139091Y-109096600D01*
X106161165Y-109030241D01*
X106175673Y-108986630D01*
X112042482Y-108986630D01*
X112042998Y-108992774D01*
X112055319Y-109139495D01*
X112058121Y-109172867D01*
X112109636Y-109352520D01*
X112195064Y-109518746D01*
X112198887Y-109523570D01*
X112198890Y-109523574D01*
X112294703Y-109644459D01*
X112311152Y-109665212D01*
X112315846Y-109669207D01*
X112348819Y-109697269D01*
X112453478Y-109786342D01*
X112616621Y-109877519D01*
X112794367Y-109935272D01*
X112979945Y-109957401D01*
X112986080Y-109956929D01*
X112986082Y-109956929D01*
X113042119Y-109952617D01*
X113166287Y-109943063D01*
X113346296Y-109892804D01*
X113351785Y-109890031D01*
X113351791Y-109890029D01*
X113429159Y-109850947D01*
X113513114Y-109808538D01*
X113533403Y-109792687D01*
X113565486Y-109767621D01*
X113660387Y-109693475D01*
X113664413Y-109688811D01*
X113664416Y-109688808D01*
X113740669Y-109600468D01*
X113782507Y-109551998D01*
X113844156Y-109443475D01*
X113871778Y-109394852D01*
X113871779Y-109394851D01*
X113874821Y-109389495D01*
X113889091Y-109346600D01*
X113920119Y-109253324D01*
X113933814Y-109212157D01*
X113942317Y-109144852D01*
X113956796Y-109030241D01*
X113956797Y-109030232D01*
X113957238Y-109026738D01*
X113957611Y-109000000D01*
X113942380Y-108844669D01*
X122192001Y-108844669D01*
X122192371Y-108851490D01*
X122197895Y-108902352D01*
X122201521Y-108917604D01*
X122246676Y-109038054D01*
X122255214Y-109053649D01*
X122331715Y-109155724D01*
X122344276Y-109168285D01*
X122446351Y-109244786D01*
X122461946Y-109253324D01*
X122582394Y-109298478D01*
X122597649Y-109302105D01*
X122648514Y-109307631D01*
X122655328Y-109308000D01*
X123727885Y-109308000D01*
X123743124Y-109303525D01*
X123744329Y-109302135D01*
X123746000Y-109294452D01*
X123746000Y-109289884D01*
X124254000Y-109289884D01*
X124258475Y-109305123D01*
X124259865Y-109306328D01*
X124267548Y-109307999D01*
X125344669Y-109307999D01*
X125351490Y-109307629D01*
X125402352Y-109302105D01*
X125417604Y-109298479D01*
X125538054Y-109253324D01*
X125553649Y-109244786D01*
X125655724Y-109168285D01*
X125668285Y-109155724D01*
X125744786Y-109053649D01*
X125753324Y-109038054D01*
X125798478Y-108917606D01*
X125802105Y-108902351D01*
X125807631Y-108851486D01*
X125808000Y-108844672D01*
X125808000Y-107772115D01*
X125803525Y-107756876D01*
X125802135Y-107755671D01*
X125794452Y-107754000D01*
X124272115Y-107754000D01*
X124256876Y-107758475D01*
X124255671Y-107759865D01*
X124254000Y-107767548D01*
X124254000Y-109289884D01*
X123746000Y-109289884D01*
X123746000Y-107772115D01*
X123741525Y-107756876D01*
X123740135Y-107755671D01*
X123732452Y-107754000D01*
X122210116Y-107754000D01*
X122194877Y-107758475D01*
X122193672Y-107759865D01*
X122192001Y-107767548D01*
X122192001Y-108844669D01*
X113942380Y-108844669D01*
X113939373Y-108813999D01*
X113935419Y-108800901D01*
X113887136Y-108640983D01*
X113885355Y-108635083D01*
X113797615Y-108470066D01*
X113788574Y-108458981D01*
X113683388Y-108330010D01*
X113683385Y-108330007D01*
X113679493Y-108325235D01*
X113674744Y-108321306D01*
X113540239Y-108210034D01*
X113540236Y-108210032D01*
X113535489Y-108206105D01*
X113371089Y-108117214D01*
X113250903Y-108080010D01*
X113198441Y-108063770D01*
X113198438Y-108063769D01*
X113192554Y-108061948D01*
X113186429Y-108061304D01*
X113186428Y-108061304D01*
X113012813Y-108043056D01*
X113012812Y-108043056D01*
X113006685Y-108042412D01*
X112888087Y-108053206D01*
X112826703Y-108058792D01*
X112826702Y-108058792D01*
X112820562Y-108059351D01*
X112814648Y-108061092D01*
X112814646Y-108061092D01*
X112766593Y-108075235D01*
X112641273Y-108112119D01*
X112635808Y-108114976D01*
X112483337Y-108194685D01*
X112475647Y-108198705D01*
X112329995Y-108315813D01*
X112209862Y-108458981D01*
X112206899Y-108464370D01*
X112206896Y-108464375D01*
X112188813Y-108497269D01*
X112119826Y-108622757D01*
X112063315Y-108800901D01*
X112042482Y-108986630D01*
X106175673Y-108986630D01*
X106183814Y-108962157D01*
X106198656Y-108844672D01*
X106206796Y-108780241D01*
X106206797Y-108780232D01*
X106207238Y-108776738D01*
X106207611Y-108750000D01*
X106189373Y-108563999D01*
X106185419Y-108550901D01*
X106156242Y-108454264D01*
X106135355Y-108385083D01*
X106047615Y-108220066D01*
X106033343Y-108202567D01*
X105933388Y-108080010D01*
X105933385Y-108080007D01*
X105929493Y-108075235D01*
X105924744Y-108071306D01*
X105790239Y-107960034D01*
X105790236Y-107960032D01*
X105785489Y-107956105D01*
X105621089Y-107867214D01*
X105490333Y-107826738D01*
X105448441Y-107813770D01*
X105448438Y-107813769D01*
X105442554Y-107811948D01*
X105436429Y-107811304D01*
X105436428Y-107811304D01*
X105262813Y-107793056D01*
X105262812Y-107793056D01*
X105256685Y-107792412D01*
X105138087Y-107803206D01*
X105076703Y-107808792D01*
X105076702Y-107808792D01*
X105070562Y-107809351D01*
X105064648Y-107811092D01*
X105064646Y-107811092D01*
X105011486Y-107826738D01*
X104891273Y-107862119D01*
X104725647Y-107948705D01*
X104579995Y-108065813D01*
X104459862Y-108208981D01*
X104456899Y-108214370D01*
X104456896Y-108214375D01*
X104398536Y-108320534D01*
X104369826Y-108372757D01*
X104313315Y-108550901D01*
X104292482Y-108736630D01*
X97796813Y-108736630D01*
X97801991Y-108715062D01*
X97801992Y-108715056D01*
X97803146Y-108710249D01*
X97823628Y-108450000D01*
X97803146Y-108189751D01*
X97801992Y-108184944D01*
X97801991Y-108184938D01*
X97747052Y-107956105D01*
X97742204Y-107935911D01*
X97740310Y-107931338D01*
X97680370Y-107786630D01*
X107667482Y-107786630D01*
X107668022Y-107793056D01*
X107680422Y-107940723D01*
X107683121Y-107972867D01*
X107734636Y-108152520D01*
X107820064Y-108318746D01*
X107823887Y-108323570D01*
X107823890Y-108323574D01*
X107920188Y-108445070D01*
X107936152Y-108465212D01*
X107940846Y-108469207D01*
X108059433Y-108570133D01*
X108078478Y-108586342D01*
X108241621Y-108677519D01*
X108419367Y-108735272D01*
X108604945Y-108757401D01*
X108611080Y-108756929D01*
X108611082Y-108756929D01*
X108667119Y-108752617D01*
X108791287Y-108743063D01*
X108971296Y-108692804D01*
X108976785Y-108690031D01*
X108976791Y-108690029D01*
X109073884Y-108640983D01*
X109138114Y-108608538D01*
X109166524Y-108586342D01*
X109202676Y-108558096D01*
X109285387Y-108493475D01*
X109289413Y-108488811D01*
X109289416Y-108488808D01*
X109378949Y-108385083D01*
X109407507Y-108351998D01*
X109453664Y-108270746D01*
X109496778Y-108194852D01*
X109496779Y-108194851D01*
X109499821Y-108189495D01*
X109514091Y-108146600D01*
X109536242Y-108080010D01*
X109558814Y-108012157D01*
X109566830Y-107948705D01*
X109581796Y-107830241D01*
X109581797Y-107830232D01*
X109582238Y-107826738D01*
X109582611Y-107800000D01*
X109564373Y-107613999D01*
X109560419Y-107600901D01*
X109541760Y-107539103D01*
X109510355Y-107435083D01*
X109422615Y-107270066D01*
X109402987Y-107246000D01*
X109388213Y-107227885D01*
X122192000Y-107227885D01*
X122196475Y-107243124D01*
X122197865Y-107244329D01*
X122205548Y-107246000D01*
X123727885Y-107246000D01*
X123743124Y-107241525D01*
X123744329Y-107240135D01*
X123746000Y-107232452D01*
X123746000Y-107227885D01*
X124254000Y-107227885D01*
X124258475Y-107243124D01*
X124259865Y-107244329D01*
X124267548Y-107246000D01*
X125789884Y-107246000D01*
X125805123Y-107241525D01*
X125806328Y-107240135D01*
X125807999Y-107232452D01*
X125807999Y-106155331D01*
X125807629Y-106148510D01*
X125802105Y-106097648D01*
X125798479Y-106082396D01*
X125753324Y-105961946D01*
X125744786Y-105946351D01*
X125668285Y-105844276D01*
X125655724Y-105831715D01*
X125553649Y-105755214D01*
X125538054Y-105746676D01*
X125417606Y-105701522D01*
X125402351Y-105697895D01*
X125351486Y-105692369D01*
X125344672Y-105692000D01*
X124272115Y-105692000D01*
X124256876Y-105696475D01*
X124255671Y-105697865D01*
X124254000Y-105705548D01*
X124254000Y-107227885D01*
X123746000Y-107227885D01*
X123746000Y-105710116D01*
X123741525Y-105694877D01*
X123740135Y-105693672D01*
X123732452Y-105692001D01*
X122655331Y-105692001D01*
X122648510Y-105692371D01*
X122597648Y-105697895D01*
X122582396Y-105701521D01*
X122461946Y-105746676D01*
X122446351Y-105755214D01*
X122344276Y-105831715D01*
X122331715Y-105844276D01*
X122255214Y-105946351D01*
X122246676Y-105961946D01*
X122201522Y-106082394D01*
X122197895Y-106097649D01*
X122192369Y-106148514D01*
X122192000Y-106155328D01*
X122192000Y-107227885D01*
X109388213Y-107227885D01*
X109308388Y-107130010D01*
X109308385Y-107130007D01*
X109304493Y-107125235D01*
X109299744Y-107121306D01*
X109165239Y-107010034D01*
X109165236Y-107010032D01*
X109160489Y-107006105D01*
X108996089Y-106917214D01*
X108906822Y-106889581D01*
X108823441Y-106863770D01*
X108823438Y-106863769D01*
X108817554Y-106861948D01*
X108811429Y-106861304D01*
X108811428Y-106861304D01*
X108637813Y-106843056D01*
X108637812Y-106843056D01*
X108631685Y-106842412D01*
X108513087Y-106853206D01*
X108451703Y-106858792D01*
X108451702Y-106858792D01*
X108445562Y-106859351D01*
X108439648Y-106861092D01*
X108439646Y-106861092D01*
X108410433Y-106869690D01*
X108266273Y-106912119D01*
X108260808Y-106914976D01*
X108159961Y-106967697D01*
X108100647Y-106998705D01*
X107954995Y-107115813D01*
X107834862Y-107258981D01*
X107831899Y-107264370D01*
X107831896Y-107264375D01*
X107758509Y-107397868D01*
X107744826Y-107422757D01*
X107688315Y-107600901D01*
X107667482Y-107786630D01*
X97680370Y-107786630D01*
X97644198Y-107699303D01*
X97644196Y-107699299D01*
X97642303Y-107694729D01*
X97505903Y-107472144D01*
X97336363Y-107273637D01*
X97137856Y-107104097D01*
X96915271Y-106967697D01*
X96910701Y-106965804D01*
X96910697Y-106965802D01*
X96678662Y-106869690D01*
X96678660Y-106869689D01*
X96674089Y-106867796D01*
X96568358Y-106842412D01*
X96425062Y-106808009D01*
X96425056Y-106808008D01*
X96420249Y-106806854D01*
X96329116Y-106799682D01*
X96227615Y-106791693D01*
X96227606Y-106791693D01*
X96225158Y-106791500D01*
X96094842Y-106791500D01*
X96092394Y-106791693D01*
X96092385Y-106791693D01*
X95990884Y-106799682D01*
X95899751Y-106806854D01*
X95894944Y-106808008D01*
X95894938Y-106808009D01*
X95751642Y-106842412D01*
X95645911Y-106867796D01*
X95641340Y-106869689D01*
X95641338Y-106869690D01*
X95409303Y-106965802D01*
X95409299Y-106965804D01*
X95404729Y-106967697D01*
X95182144Y-107104097D01*
X94983637Y-107273637D01*
X94814097Y-107472144D01*
X94677697Y-107694729D01*
X94675804Y-107699299D01*
X94675802Y-107699303D01*
X94579690Y-107931338D01*
X94577796Y-107935911D01*
X94572948Y-107956105D01*
X94518009Y-108184938D01*
X94518008Y-108184944D01*
X94516854Y-108189751D01*
X94496372Y-108450000D01*
X90008500Y-108450000D01*
X90008500Y-103980000D01*
X97186655Y-103980000D01*
X97206000Y-104201114D01*
X97263447Y-104415510D01*
X97265769Y-104420490D01*
X97265770Y-104420492D01*
X97354925Y-104611685D01*
X97354928Y-104611690D01*
X97357251Y-104616672D01*
X97360407Y-104621179D01*
X97360408Y-104621181D01*
X97468318Y-104775292D01*
X97484561Y-104798490D01*
X97641510Y-104955439D01*
X97646018Y-104958596D01*
X97646021Y-104958598D01*
X97711239Y-105004264D01*
X97823327Y-105082749D01*
X97828309Y-105085072D01*
X97828314Y-105085075D01*
X98016349Y-105172757D01*
X98024490Y-105176553D01*
X98029798Y-105177975D01*
X98029800Y-105177976D01*
X98233571Y-105232576D01*
X98233573Y-105232576D01*
X98238886Y-105234000D01*
X98460000Y-105253345D01*
X98681114Y-105234000D01*
X98686427Y-105232576D01*
X98686429Y-105232576D01*
X98890200Y-105177976D01*
X98890202Y-105177975D01*
X98895510Y-105176553D01*
X98903651Y-105172757D01*
X99091686Y-105085075D01*
X99091691Y-105085072D01*
X99096673Y-105082749D01*
X99208761Y-105004264D01*
X99273979Y-104958598D01*
X99273982Y-104958596D01*
X99278490Y-104955439D01*
X99435439Y-104798490D01*
X99451683Y-104775292D01*
X99502287Y-104703021D01*
X99557744Y-104658693D01*
X99628363Y-104651384D01*
X99691724Y-104683415D01*
X99727709Y-104744616D01*
X99731500Y-104775292D01*
X99731500Y-105808134D01*
X99738255Y-105870316D01*
X99789385Y-106006705D01*
X99876739Y-106123261D01*
X99993295Y-106210615D01*
X100129684Y-106261745D01*
X100191866Y-106268500D01*
X101808134Y-106268500D01*
X101870316Y-106261745D01*
X102006705Y-106210615D01*
X102123261Y-106123261D01*
X102210615Y-106006705D01*
X102261745Y-105870316D01*
X102268500Y-105808134D01*
X102268500Y-105536630D01*
X106242482Y-105536630D01*
X106242998Y-105542774D01*
X106256783Y-105706929D01*
X106258121Y-105722867D01*
X106309636Y-105902520D01*
X106331392Y-105944852D01*
X106366873Y-106013891D01*
X106395064Y-106068746D01*
X106398887Y-106073570D01*
X106398890Y-106073574D01*
X106503240Y-106205229D01*
X106511152Y-106215212D01*
X106515846Y-106219207D01*
X106573765Y-106268500D01*
X106653478Y-106336342D01*
X106816621Y-106427519D01*
X106994367Y-106485272D01*
X107179945Y-106507401D01*
X107186080Y-106506929D01*
X107186082Y-106506929D01*
X107242119Y-106502617D01*
X107366287Y-106493063D01*
X107546296Y-106442804D01*
X107551785Y-106440031D01*
X107551791Y-106440029D01*
X107629159Y-106400947D01*
X107713114Y-106358538D01*
X107741524Y-106336342D01*
X107765486Y-106317621D01*
X107860387Y-106243475D01*
X107864413Y-106238811D01*
X107864416Y-106238808D01*
X107978480Y-106106663D01*
X107982507Y-106101998D01*
X108074821Y-105939495D01*
X108089091Y-105896600D01*
X108131867Y-105768009D01*
X108133814Y-105762157D01*
X108142112Y-105696475D01*
X108156796Y-105580241D01*
X108156797Y-105580232D01*
X108157238Y-105576738D01*
X108157611Y-105550000D01*
X108139373Y-105363999D01*
X108135419Y-105350901D01*
X108108961Y-105263269D01*
X108085355Y-105185083D01*
X107997615Y-105020066D01*
X107955158Y-104968009D01*
X107883388Y-104880010D01*
X107883385Y-104880007D01*
X107879493Y-104875235D01*
X107874744Y-104871306D01*
X107740239Y-104760034D01*
X107740236Y-104760032D01*
X107735489Y-104756105D01*
X107699471Y-104736630D01*
X109042482Y-104736630D01*
X109042998Y-104742774D01*
X109053006Y-104861950D01*
X109058121Y-104922867D01*
X109109636Y-105102520D01*
X109131392Y-105144852D01*
X109155100Y-105190983D01*
X109195064Y-105268746D01*
X109198887Y-105273570D01*
X109198890Y-105273574D01*
X109265029Y-105357020D01*
X109311152Y-105415212D01*
X109315846Y-105419207D01*
X109446620Y-105530505D01*
X109453478Y-105536342D01*
X109616621Y-105627519D01*
X109794367Y-105685272D01*
X109979945Y-105707401D01*
X109986080Y-105706929D01*
X109986082Y-105706929D01*
X110042119Y-105702617D01*
X110166287Y-105693063D01*
X110346296Y-105642804D01*
X110351785Y-105640031D01*
X110351791Y-105640029D01*
X110470149Y-105580241D01*
X110513114Y-105558538D01*
X110524043Y-105550000D01*
X110565486Y-105517621D01*
X110660387Y-105443475D01*
X110664413Y-105438811D01*
X110664416Y-105438808D01*
X110778480Y-105306663D01*
X110782507Y-105301998D01*
X110855926Y-105172757D01*
X110871778Y-105144852D01*
X110871779Y-105144851D01*
X110874821Y-105139495D01*
X110889091Y-105096600D01*
X110916443Y-105014375D01*
X110933814Y-104962157D01*
X110953998Y-104802387D01*
X110956796Y-104780241D01*
X110956797Y-104780232D01*
X110957238Y-104776738D01*
X110957611Y-104750000D01*
X110956300Y-104736630D01*
X112042482Y-104736630D01*
X112042998Y-104742774D01*
X112053006Y-104861950D01*
X112058121Y-104922867D01*
X112109636Y-105102520D01*
X112131392Y-105144852D01*
X112155100Y-105190983D01*
X112195064Y-105268746D01*
X112198887Y-105273570D01*
X112198890Y-105273574D01*
X112265029Y-105357020D01*
X112311152Y-105415212D01*
X112315846Y-105419207D01*
X112446620Y-105530505D01*
X112453478Y-105536342D01*
X112616621Y-105627519D01*
X112794367Y-105685272D01*
X112979945Y-105707401D01*
X112986080Y-105706929D01*
X112986082Y-105706929D01*
X113042119Y-105702617D01*
X113166287Y-105693063D01*
X113346296Y-105642804D01*
X113351785Y-105640031D01*
X113351791Y-105640029D01*
X113470149Y-105580241D01*
X113513114Y-105558538D01*
X113524043Y-105550000D01*
X113565486Y-105517621D01*
X113660387Y-105443475D01*
X113664413Y-105438811D01*
X113664416Y-105438808D01*
X113778480Y-105306663D01*
X113782507Y-105301998D01*
X113855926Y-105172757D01*
X113871778Y-105144852D01*
X113871779Y-105144851D01*
X113874821Y-105139495D01*
X113889091Y-105096600D01*
X113916443Y-105014375D01*
X113933814Y-104962157D01*
X113953998Y-104802387D01*
X113956796Y-104780241D01*
X113956797Y-104780232D01*
X113957238Y-104776738D01*
X113957611Y-104750000D01*
X113956300Y-104736630D01*
X115042482Y-104736630D01*
X115042998Y-104742774D01*
X115053006Y-104861950D01*
X115058121Y-104922867D01*
X115109636Y-105102520D01*
X115131392Y-105144852D01*
X115155100Y-105190983D01*
X115195064Y-105268746D01*
X115198887Y-105273570D01*
X115198890Y-105273574D01*
X115265029Y-105357020D01*
X115311152Y-105415212D01*
X115315846Y-105419207D01*
X115446620Y-105530505D01*
X115453478Y-105536342D01*
X115616621Y-105627519D01*
X115794367Y-105685272D01*
X115979945Y-105707401D01*
X115986080Y-105706929D01*
X115986082Y-105706929D01*
X116042119Y-105702617D01*
X116166287Y-105693063D01*
X116346296Y-105642804D01*
X116351785Y-105640031D01*
X116351791Y-105640029D01*
X116470149Y-105580241D01*
X116513114Y-105558538D01*
X116524043Y-105550000D01*
X116565486Y-105517621D01*
X116660387Y-105443475D01*
X116664413Y-105438811D01*
X116664416Y-105438808D01*
X116778480Y-105306663D01*
X116782507Y-105301998D01*
X116855926Y-105172757D01*
X116871778Y-105144852D01*
X116871779Y-105144851D01*
X116874821Y-105139495D01*
X116889091Y-105096600D01*
X116916443Y-105014375D01*
X116933814Y-104962157D01*
X116953998Y-104802387D01*
X116956796Y-104780241D01*
X116956797Y-104780232D01*
X116957238Y-104776738D01*
X116957611Y-104750000D01*
X116939373Y-104563999D01*
X116935419Y-104550901D01*
X116916760Y-104489103D01*
X116885355Y-104385083D01*
X116797615Y-104220066D01*
X116783862Y-104203203D01*
X116683388Y-104080010D01*
X116683385Y-104080007D01*
X116679493Y-104075235D01*
X116674744Y-104071306D01*
X116540239Y-103960034D01*
X116540236Y-103960032D01*
X116535489Y-103956105D01*
X116371089Y-103867214D01*
X116281821Y-103839581D01*
X116198441Y-103813770D01*
X116198438Y-103813769D01*
X116192554Y-103811948D01*
X116186429Y-103811304D01*
X116186428Y-103811304D01*
X116012813Y-103793056D01*
X116012812Y-103793056D01*
X116006685Y-103792412D01*
X115888087Y-103803206D01*
X115826703Y-103808792D01*
X115826702Y-103808792D01*
X115820562Y-103809351D01*
X115814648Y-103811092D01*
X115814646Y-103811092D01*
X115705785Y-103843132D01*
X115641273Y-103862119D01*
X115475647Y-103948705D01*
X115329995Y-104065813D01*
X115209862Y-104208981D01*
X115206899Y-104214370D01*
X115206896Y-104214375D01*
X115196951Y-104232466D01*
X115119826Y-104372757D01*
X115063315Y-104550901D01*
X115042482Y-104736630D01*
X113956300Y-104736630D01*
X113939373Y-104563999D01*
X113935419Y-104550901D01*
X113916760Y-104489103D01*
X113885355Y-104385083D01*
X113797615Y-104220066D01*
X113783862Y-104203203D01*
X113683388Y-104080010D01*
X113683385Y-104080007D01*
X113679493Y-104075235D01*
X113674744Y-104071306D01*
X113540239Y-103960034D01*
X113540236Y-103960032D01*
X113535489Y-103956105D01*
X113371089Y-103867214D01*
X113281821Y-103839581D01*
X113198441Y-103813770D01*
X113198438Y-103813769D01*
X113192554Y-103811948D01*
X113186429Y-103811304D01*
X113186428Y-103811304D01*
X113012813Y-103793056D01*
X113012812Y-103793056D01*
X113006685Y-103792412D01*
X112888087Y-103803206D01*
X112826703Y-103808792D01*
X112826702Y-103808792D01*
X112820562Y-103809351D01*
X112814648Y-103811092D01*
X112814646Y-103811092D01*
X112705785Y-103843132D01*
X112641273Y-103862119D01*
X112475647Y-103948705D01*
X112329995Y-104065813D01*
X112209862Y-104208981D01*
X112206899Y-104214370D01*
X112206896Y-104214375D01*
X112196951Y-104232466D01*
X112119826Y-104372757D01*
X112063315Y-104550901D01*
X112042482Y-104736630D01*
X110956300Y-104736630D01*
X110939373Y-104563999D01*
X110935419Y-104550901D01*
X110916760Y-104489103D01*
X110885355Y-104385083D01*
X110797615Y-104220066D01*
X110783862Y-104203203D01*
X110683388Y-104080010D01*
X110683385Y-104080007D01*
X110679493Y-104075235D01*
X110674744Y-104071306D01*
X110540239Y-103960034D01*
X110540236Y-103960032D01*
X110535489Y-103956105D01*
X110371089Y-103867214D01*
X110281821Y-103839581D01*
X110198441Y-103813770D01*
X110198438Y-103813769D01*
X110192554Y-103811948D01*
X110186429Y-103811304D01*
X110186428Y-103811304D01*
X110012813Y-103793056D01*
X110012812Y-103793056D01*
X110006685Y-103792412D01*
X109888087Y-103803206D01*
X109826703Y-103808792D01*
X109826702Y-103808792D01*
X109820562Y-103809351D01*
X109814648Y-103811092D01*
X109814646Y-103811092D01*
X109705785Y-103843132D01*
X109641273Y-103862119D01*
X109475647Y-103948705D01*
X109329995Y-104065813D01*
X109209862Y-104208981D01*
X109206899Y-104214370D01*
X109206896Y-104214375D01*
X109196951Y-104232466D01*
X109119826Y-104372757D01*
X109063315Y-104550901D01*
X109042482Y-104736630D01*
X107699471Y-104736630D01*
X107571089Y-104667214D01*
X107481821Y-104639581D01*
X107398441Y-104613770D01*
X107398438Y-104613769D01*
X107392554Y-104611948D01*
X107386429Y-104611304D01*
X107386428Y-104611304D01*
X107212813Y-104593056D01*
X107212812Y-104593056D01*
X107206685Y-104592412D01*
X107088087Y-104603206D01*
X107026703Y-104608792D01*
X107026702Y-104608792D01*
X107020562Y-104609351D01*
X107014648Y-104611092D01*
X107014646Y-104611092D01*
X106980367Y-104621181D01*
X106841273Y-104662119D01*
X106835808Y-104664976D01*
X106683469Y-104744616D01*
X106675647Y-104748705D01*
X106529995Y-104865813D01*
X106409862Y-105008981D01*
X106406899Y-105014370D01*
X106406896Y-105014375D01*
X106369308Y-105082749D01*
X106319826Y-105172757D01*
X106263315Y-105350901D01*
X106242482Y-105536630D01*
X102268500Y-105536630D01*
X102268500Y-104191866D01*
X102261745Y-104129684D01*
X102210615Y-103993295D01*
X102123261Y-103876739D01*
X102078419Y-103843131D01*
X102035904Y-103786273D01*
X102030878Y-103715455D01*
X102050771Y-103670036D01*
X102099155Y-103600936D01*
X102104641Y-103591435D01*
X102193759Y-103400320D01*
X102197505Y-103390028D01*
X102252083Y-103186340D01*
X102253986Y-103175547D01*
X102272365Y-102965475D01*
X102272365Y-102954525D01*
X102253986Y-102744453D01*
X102252083Y-102733660D01*
X102197505Y-102529972D01*
X102193759Y-102519680D01*
X102104641Y-102328565D01*
X102099158Y-102319069D01*
X102068770Y-102275671D01*
X102058293Y-102267296D01*
X102044845Y-102274365D01*
X101089095Y-103230115D01*
X101026783Y-103264141D01*
X100955968Y-103259076D01*
X100910905Y-103230115D01*
X99954433Y-102273643D01*
X99942658Y-102267213D01*
X99915508Y-102288218D01*
X99913113Y-102285123D01*
X99883762Y-102308580D01*
X99813142Y-102315884D01*
X99749784Y-102283848D01*
X99713804Y-102222644D01*
X99711930Y-102170095D01*
X99712578Y-102166421D01*
X99714000Y-102161114D01*
X99714480Y-102155634D01*
X99732866Y-101945475D01*
X99733345Y-101940000D01*
X99715527Y-101736342D01*
X99714479Y-101724360D01*
X99714479Y-101724359D01*
X99714000Y-101718886D01*
X99712576Y-101713571D01*
X99712135Y-101711069D01*
X99720002Y-101640510D01*
X99764768Y-101585405D01*
X99832219Y-101563250D01*
X99900940Y-101581078D01*
X99939433Y-101616915D01*
X100010834Y-101718886D01*
X100024561Y-101738490D01*
X100181510Y-101895439D01*
X100186018Y-101898596D01*
X100186021Y-101898598D01*
X100252969Y-101945475D01*
X100363327Y-102022749D01*
X100368309Y-102025072D01*
X100368314Y-102025075D01*
X100453055Y-102064590D01*
X100488900Y-102089690D01*
X100987188Y-102587978D01*
X101001132Y-102595592D01*
X101002965Y-102595461D01*
X101009580Y-102591210D01*
X101511100Y-102089690D01*
X101546945Y-102064590D01*
X101631686Y-102025075D01*
X101631691Y-102025072D01*
X101636673Y-102022749D01*
X101747031Y-101945475D01*
X101813979Y-101898598D01*
X101813982Y-101898596D01*
X101818490Y-101895439D01*
X101975439Y-101738490D01*
X101992888Y-101713571D01*
X102099592Y-101561181D01*
X102099593Y-101561179D01*
X102102749Y-101556672D01*
X102105072Y-101551690D01*
X102105075Y-101551685D01*
X102194230Y-101360492D01*
X102194231Y-101360490D01*
X102196553Y-101355510D01*
X102202412Y-101333646D01*
X102252576Y-101146429D01*
X102252576Y-101146427D01*
X102254000Y-101141114D01*
X102273345Y-100920000D01*
X102254000Y-100698886D01*
X102240196Y-100647367D01*
X102197976Y-100489800D01*
X102197975Y-100489798D01*
X102197126Y-100486630D01*
X103292482Y-100486630D01*
X103292998Y-100492774D01*
X103307478Y-100665208D01*
X103308121Y-100672867D01*
X103359636Y-100852520D01*
X103381392Y-100894852D01*
X103407942Y-100946513D01*
X103445064Y-101018746D01*
X103448887Y-101023570D01*
X103448890Y-101023574D01*
X103530089Y-101126021D01*
X103561152Y-101165212D01*
X103565846Y-101169207D01*
X103694760Y-101278922D01*
X103703478Y-101286342D01*
X103866621Y-101377519D01*
X104044367Y-101435272D01*
X104229945Y-101457401D01*
X104236080Y-101456929D01*
X104236082Y-101456929D01*
X104292119Y-101452617D01*
X104416287Y-101443063D01*
X104596296Y-101392804D01*
X104601785Y-101390031D01*
X104601791Y-101390029D01*
X104680637Y-101350200D01*
X104763114Y-101308538D01*
X104769783Y-101303328D01*
X104846889Y-101243085D01*
X104910387Y-101193475D01*
X104914413Y-101188811D01*
X104914416Y-101188808D01*
X105028480Y-101056663D01*
X105032507Y-101051998D01*
X105083972Y-100961402D01*
X105098045Y-100936630D01*
X116692482Y-100936630D01*
X116692998Y-100942774D01*
X116702562Y-101056663D01*
X116708121Y-101122867D01*
X116759636Y-101302520D01*
X116781392Y-101344852D01*
X116839234Y-101457401D01*
X116845064Y-101468746D01*
X116848887Y-101473570D01*
X116848890Y-101473574D01*
X116937527Y-101585405D01*
X116961152Y-101615212D01*
X116965846Y-101619207D01*
X117073783Y-101711069D01*
X117103478Y-101736342D01*
X117266621Y-101827519D01*
X117444367Y-101885272D01*
X117629945Y-101907401D01*
X117636080Y-101906929D01*
X117636082Y-101906929D01*
X117692119Y-101902617D01*
X117816287Y-101893063D01*
X117996296Y-101842804D01*
X118001785Y-101840031D01*
X118001791Y-101840029D01*
X118084987Y-101798003D01*
X118163114Y-101758538D01*
X118183787Y-101742387D01*
X118223871Y-101711069D01*
X118310387Y-101643475D01*
X118314413Y-101638811D01*
X118314416Y-101638808D01*
X118428480Y-101506663D01*
X118432507Y-101501998D01*
X118493597Y-101394459D01*
X118521778Y-101344852D01*
X118521779Y-101344851D01*
X118524821Y-101339495D01*
X118539041Y-101296750D01*
X118574948Y-101188808D01*
X118583814Y-101162157D01*
X118597141Y-101056663D01*
X118606796Y-100980241D01*
X118606797Y-100980232D01*
X118607238Y-100976738D01*
X118607611Y-100950000D01*
X118589373Y-100763999D01*
X118585419Y-100750901D01*
X118557359Y-100657963D01*
X118535355Y-100585083D01*
X118447615Y-100420066D01*
X118434727Y-100404264D01*
X118333388Y-100280010D01*
X118333385Y-100280007D01*
X118329493Y-100275235D01*
X118324744Y-100271306D01*
X118190239Y-100160034D01*
X118190236Y-100160032D01*
X118185489Y-100156105D01*
X118180064Y-100153172D01*
X118180060Y-100153169D01*
X118102166Y-100111051D01*
X118051757Y-100061057D01*
X118036380Y-99991745D01*
X118060916Y-99925123D01*
X118105284Y-99887750D01*
X118129250Y-99875644D01*
X118163114Y-99858538D01*
X118191524Y-99836342D01*
X118242338Y-99796641D01*
X118310387Y-99743475D01*
X118314413Y-99738811D01*
X118314416Y-99738808D01*
X118428480Y-99606663D01*
X118432507Y-99601998D01*
X118511947Y-99462157D01*
X118521778Y-99444852D01*
X118521779Y-99444851D01*
X118524821Y-99439495D01*
X118528383Y-99428789D01*
X118577798Y-99280241D01*
X118583814Y-99262157D01*
X118590755Y-99207213D01*
X118606796Y-99080241D01*
X118606797Y-99080232D01*
X118607238Y-99076738D01*
X118607611Y-99050000D01*
X118589373Y-98863999D01*
X118585419Y-98850901D01*
X118545610Y-98719050D01*
X118535355Y-98685083D01*
X118447615Y-98520066D01*
X118398654Y-98460034D01*
X118333388Y-98380010D01*
X118333385Y-98380007D01*
X118329493Y-98375235D01*
X118324744Y-98371306D01*
X118190239Y-98260034D01*
X118190236Y-98260032D01*
X118185489Y-98256105D01*
X118021089Y-98167214D01*
X117931822Y-98139581D01*
X117848441Y-98113770D01*
X117848438Y-98113769D01*
X117842554Y-98111948D01*
X117836429Y-98111304D01*
X117836428Y-98111304D01*
X117662813Y-98093056D01*
X117662812Y-98093056D01*
X117656685Y-98092412D01*
X117538087Y-98103206D01*
X117476703Y-98108792D01*
X117476702Y-98108792D01*
X117470562Y-98109351D01*
X117464648Y-98111092D01*
X117464646Y-98111092D01*
X117449435Y-98115569D01*
X117291273Y-98162119D01*
X117285808Y-98164976D01*
X117208558Y-98205361D01*
X117125647Y-98248705D01*
X116979995Y-98365813D01*
X116859862Y-98508981D01*
X116856899Y-98514370D01*
X116856896Y-98514375D01*
X116794632Y-98627635D01*
X116769826Y-98672757D01*
X116767965Y-98678624D01*
X116767964Y-98678626D01*
X116741570Y-98761829D01*
X116713315Y-98850901D01*
X116692482Y-99036630D01*
X116692998Y-99042774D01*
X116707517Y-99215671D01*
X116708121Y-99222867D01*
X116709819Y-99228788D01*
X116709819Y-99228789D01*
X116713829Y-99242774D01*
X116759636Y-99402520D01*
X116845064Y-99568746D01*
X116848887Y-99573570D01*
X116848890Y-99573574D01*
X116928218Y-99673660D01*
X116961152Y-99715212D01*
X116965846Y-99719207D01*
X117084802Y-99820447D01*
X117103478Y-99836342D01*
X117199553Y-99890036D01*
X117249259Y-99940729D01*
X117263668Y-100010248D01*
X117238204Y-100076521D01*
X117196458Y-100111686D01*
X117140418Y-100140983D01*
X117125647Y-100148705D01*
X116979995Y-100265813D01*
X116859862Y-100408981D01*
X116856899Y-100414370D01*
X116856896Y-100414375D01*
X116811741Y-100496513D01*
X116769826Y-100572757D01*
X116713315Y-100750901D01*
X116692482Y-100936630D01*
X105098045Y-100936630D01*
X105121778Y-100894852D01*
X105121779Y-100894851D01*
X105124821Y-100889495D01*
X105135507Y-100857374D01*
X105156119Y-100795410D01*
X105183814Y-100712157D01*
X105199122Y-100590983D01*
X105206796Y-100530241D01*
X105206797Y-100530232D01*
X105207238Y-100526738D01*
X105207611Y-100500000D01*
X105189373Y-100313999D01*
X105185419Y-100300901D01*
X105162217Y-100224055D01*
X105135355Y-100135083D01*
X105047615Y-99970066D01*
X105035996Y-99955820D01*
X105008440Y-99890389D01*
X105020633Y-99820447D01*
X105029591Y-99805376D01*
X105032507Y-99801998D01*
X105084552Y-99710381D01*
X105121778Y-99644852D01*
X105121779Y-99644851D01*
X105124821Y-99639495D01*
X105139091Y-99596600D01*
X105181867Y-99468009D01*
X105183814Y-99462157D01*
X105192096Y-99396600D01*
X105206796Y-99280241D01*
X105206797Y-99280232D01*
X105207238Y-99276738D01*
X105207611Y-99250000D01*
X105189373Y-99063999D01*
X105185419Y-99050901D01*
X105137136Y-98890983D01*
X105135355Y-98885083D01*
X105047615Y-98720066D01*
X105034727Y-98704264D01*
X104933388Y-98580010D01*
X104933385Y-98580007D01*
X104929493Y-98575235D01*
X104924744Y-98571306D01*
X104790239Y-98460034D01*
X104790236Y-98460032D01*
X104785489Y-98456105D01*
X104621089Y-98367214D01*
X104531822Y-98339581D01*
X104448441Y-98313770D01*
X104448438Y-98313769D01*
X104442554Y-98311948D01*
X104436429Y-98311304D01*
X104436428Y-98311304D01*
X104262813Y-98293056D01*
X104262812Y-98293056D01*
X104256685Y-98292412D01*
X104138087Y-98303206D01*
X104076703Y-98308792D01*
X104076702Y-98308792D01*
X104070562Y-98309351D01*
X104064648Y-98311092D01*
X104064646Y-98311092D01*
X103942466Y-98347052D01*
X103891273Y-98362119D01*
X103725647Y-98448705D01*
X103579995Y-98565813D01*
X103459862Y-98708981D01*
X103456899Y-98714370D01*
X103456896Y-98714375D01*
X103386896Y-98841707D01*
X103369826Y-98872757D01*
X103313315Y-99050901D01*
X103305339Y-99122012D01*
X103293362Y-99228789D01*
X103292482Y-99236630D01*
X103308121Y-99422867D01*
X103359636Y-99602520D01*
X103381392Y-99644852D01*
X103432077Y-99743475D01*
X103445064Y-99768746D01*
X103448891Y-99773575D01*
X103448894Y-99773579D01*
X103465959Y-99795110D01*
X103492597Y-99860920D01*
X103479426Y-99930684D01*
X103467214Y-99949114D01*
X103467304Y-99949176D01*
X103463819Y-99954266D01*
X103459862Y-99958981D01*
X103456899Y-99964370D01*
X103456896Y-99964375D01*
X103403162Y-100062119D01*
X103369826Y-100122757D01*
X103367965Y-100128624D01*
X103367964Y-100128626D01*
X103360179Y-100153169D01*
X103313315Y-100300901D01*
X103292482Y-100486630D01*
X102197126Y-100486630D01*
X102196553Y-100484490D01*
X102169049Y-100425507D01*
X102105075Y-100288315D01*
X102105072Y-100288310D01*
X102102749Y-100283328D01*
X102097082Y-100275235D01*
X101978598Y-100106021D01*
X101978596Y-100106018D01*
X101975439Y-100101510D01*
X101818490Y-99944561D01*
X101813982Y-99941404D01*
X101813979Y-99941402D01*
X101736553Y-99887188D01*
X101636673Y-99817251D01*
X101631691Y-99814928D01*
X101631686Y-99814925D01*
X101440492Y-99725770D01*
X101440491Y-99725769D01*
X101435510Y-99723447D01*
X101430202Y-99722025D01*
X101430200Y-99722024D01*
X101226429Y-99667424D01*
X101226427Y-99667424D01*
X101221114Y-99666000D01*
X101000000Y-99646655D01*
X100778886Y-99666000D01*
X100773573Y-99667424D01*
X100773571Y-99667424D01*
X100569800Y-99722024D01*
X100569798Y-99722025D01*
X100564490Y-99723447D01*
X100559510Y-99725769D01*
X100559508Y-99725770D01*
X100368315Y-99814925D01*
X100368310Y-99814928D01*
X100363328Y-99817251D01*
X100358821Y-99820407D01*
X100358819Y-99820408D01*
X100186021Y-99941402D01*
X100186018Y-99941404D01*
X100181510Y-99944561D01*
X100024561Y-100101510D01*
X100021403Y-100106020D01*
X100021398Y-100106026D01*
X99938754Y-100224055D01*
X99883297Y-100268384D01*
X99812678Y-100275693D01*
X99749318Y-100243663D01*
X99713332Y-100182462D01*
X99711455Y-100129907D01*
X99713986Y-100115552D01*
X99732365Y-99905475D01*
X99732365Y-99894525D01*
X99713986Y-99684453D01*
X99712083Y-99673660D01*
X99657505Y-99469972D01*
X99653759Y-99459680D01*
X99564641Y-99268565D01*
X99559158Y-99259069D01*
X99528770Y-99215671D01*
X99518293Y-99207296D01*
X99504845Y-99214365D01*
X98832022Y-99887188D01*
X98824408Y-99901132D01*
X98824539Y-99902965D01*
X98828790Y-99909580D01*
X99505567Y-100586357D01*
X99517342Y-100592787D01*
X99544492Y-100571782D01*
X99546887Y-100574877D01*
X99576238Y-100551420D01*
X99646858Y-100544116D01*
X99710216Y-100576152D01*
X99746196Y-100637356D01*
X99748070Y-100689905D01*
X99747422Y-100693579D01*
X99746000Y-100698886D01*
X99745522Y-100704355D01*
X99745521Y-100704358D01*
X99731901Y-100860039D01*
X99726655Y-100920000D01*
X99727134Y-100925475D01*
X99745521Y-101135634D01*
X99746000Y-101141114D01*
X99747423Y-101146425D01*
X99747865Y-101148931D01*
X99739998Y-101219490D01*
X99695232Y-101274595D01*
X99627781Y-101296750D01*
X99559060Y-101278922D01*
X99520567Y-101243085D01*
X99438598Y-101126021D01*
X99438596Y-101126018D01*
X99435439Y-101121510D01*
X99278490Y-100964561D01*
X99273982Y-100961404D01*
X99273979Y-100961402D01*
X99198313Y-100908420D01*
X99096673Y-100837251D01*
X99091691Y-100834928D01*
X99091686Y-100834925D01*
X99006945Y-100795410D01*
X98971100Y-100770310D01*
X98472812Y-100272022D01*
X98458868Y-100264408D01*
X98457035Y-100264539D01*
X98450420Y-100268790D01*
X97948900Y-100770310D01*
X97913056Y-100795409D01*
X97828320Y-100834922D01*
X97828309Y-100834928D01*
X97823328Y-100837251D01*
X97818821Y-100840407D01*
X97818819Y-100840408D01*
X97646021Y-100961402D01*
X97646018Y-100961404D01*
X97641510Y-100964561D01*
X97484561Y-101121510D01*
X97481404Y-101126018D01*
X97481402Y-101126021D01*
X97367040Y-101289348D01*
X97357251Y-101303328D01*
X97354928Y-101308310D01*
X97354925Y-101308315D01*
X97311148Y-101402195D01*
X97263447Y-101504490D01*
X97262025Y-101509798D01*
X97262024Y-101509800D01*
X97207424Y-101713571D01*
X97206000Y-101718886D01*
X97186655Y-101940000D01*
X97206000Y-102161114D01*
X97263447Y-102375510D01*
X97265769Y-102380490D01*
X97265770Y-102380492D01*
X97354925Y-102571685D01*
X97354928Y-102571690D01*
X97357251Y-102576672D01*
X97360407Y-102581179D01*
X97360408Y-102581181D01*
X97481399Y-102753974D01*
X97484561Y-102758490D01*
X97596976Y-102870905D01*
X97631002Y-102933217D01*
X97625937Y-103004032D01*
X97596976Y-103049095D01*
X97484561Y-103161510D01*
X97481404Y-103166018D01*
X97481402Y-103166021D01*
X97415271Y-103260466D01*
X97357251Y-103343328D01*
X97354928Y-103348310D01*
X97354925Y-103348315D01*
X97335474Y-103390028D01*
X97263447Y-103544490D01*
X97262025Y-103549798D01*
X97262024Y-103549800D01*
X97245064Y-103613096D01*
X97206000Y-103758886D01*
X97186655Y-103980000D01*
X90008500Y-103980000D01*
X90008500Y-99905475D01*
X97187635Y-99905475D01*
X97206014Y-100115547D01*
X97207917Y-100126340D01*
X97262495Y-100330028D01*
X97266241Y-100340320D01*
X97355359Y-100531435D01*
X97360842Y-100540931D01*
X97391230Y-100584329D01*
X97401707Y-100592704D01*
X97415155Y-100585635D01*
X98087978Y-99912812D01*
X98095592Y-99898868D01*
X98095461Y-99897035D01*
X98091210Y-99890420D01*
X97414433Y-99213643D01*
X97402658Y-99207213D01*
X97390643Y-99216509D01*
X97360842Y-99259069D01*
X97355359Y-99268565D01*
X97266241Y-99459680D01*
X97262495Y-99469972D01*
X97207917Y-99673660D01*
X97206014Y-99684453D01*
X97187635Y-99894525D01*
X97187635Y-99905475D01*
X90008500Y-99905475D01*
X90008500Y-98841707D01*
X97767296Y-98841707D01*
X97774365Y-98855155D01*
X98447188Y-99527978D01*
X98461132Y-99535592D01*
X98462965Y-99535461D01*
X98469580Y-99531210D01*
X99146357Y-98854433D01*
X99152787Y-98842658D01*
X99143491Y-98830643D01*
X99100931Y-98800842D01*
X99091435Y-98795359D01*
X98900320Y-98706241D01*
X98890028Y-98702495D01*
X98686340Y-98647917D01*
X98675547Y-98646014D01*
X98465475Y-98627635D01*
X98454525Y-98627635D01*
X98244453Y-98646014D01*
X98233660Y-98647917D01*
X98029972Y-98702495D01*
X98019680Y-98706241D01*
X97828565Y-98795359D01*
X97819069Y-98800842D01*
X97775671Y-98831230D01*
X97767296Y-98841707D01*
X90008500Y-98841707D01*
X90008500Y-96450000D01*
X94496372Y-96450000D01*
X94516854Y-96710249D01*
X94518008Y-96715056D01*
X94518009Y-96715062D01*
X94549638Y-96846803D01*
X94577796Y-96964089D01*
X94579689Y-96968660D01*
X94579690Y-96968662D01*
X94666728Y-97178789D01*
X94677697Y-97205271D01*
X94814097Y-97427856D01*
X94983637Y-97626363D01*
X95182144Y-97795903D01*
X95404729Y-97932303D01*
X95409299Y-97934196D01*
X95409303Y-97934198D01*
X95641338Y-98030310D01*
X95645911Y-98032204D01*
X95734931Y-98053576D01*
X95894938Y-98091991D01*
X95894944Y-98091992D01*
X95899751Y-98093146D01*
X95990884Y-98100318D01*
X96092385Y-98108307D01*
X96092394Y-98108307D01*
X96094842Y-98108500D01*
X96225158Y-98108500D01*
X96227606Y-98108307D01*
X96227615Y-98108307D01*
X96329116Y-98100318D01*
X96420249Y-98093146D01*
X96425056Y-98091992D01*
X96425062Y-98091991D01*
X96585069Y-98053576D01*
X96674089Y-98032204D01*
X96678662Y-98030310D01*
X96910697Y-97934198D01*
X96910701Y-97934196D01*
X96915271Y-97932303D01*
X97137856Y-97795903D01*
X97336363Y-97626363D01*
X97505903Y-97427856D01*
X97642303Y-97205271D01*
X97653273Y-97178789D01*
X97740310Y-96968662D01*
X97740311Y-96968660D01*
X97742204Y-96964089D01*
X97770362Y-96846803D01*
X97801991Y-96715062D01*
X97801992Y-96715056D01*
X97803146Y-96710249D01*
X97811823Y-96600000D01*
X109743910Y-96600000D01*
X109762618Y-96777991D01*
X109764658Y-96784269D01*
X109764658Y-96784270D01*
X109778864Y-96827991D01*
X109817923Y-96948203D01*
X109821226Y-96953925D01*
X109821227Y-96953926D01*
X109833011Y-96974336D01*
X109849749Y-97043331D01*
X109843725Y-97076270D01*
X109812618Y-97172009D01*
X109793910Y-97350000D01*
X109812618Y-97527991D01*
X109867923Y-97698203D01*
X109957409Y-97853197D01*
X109961827Y-97858104D01*
X109961828Y-97858105D01*
X110028636Y-97932303D01*
X110077164Y-97986199D01*
X110082506Y-97990080D01*
X110082508Y-97990082D01*
X110208699Y-98081765D01*
X110221955Y-98091396D01*
X110227983Y-98094080D01*
X110227985Y-98094081D01*
X110379419Y-98161503D01*
X110385454Y-98164190D01*
X110472984Y-98182795D01*
X110554057Y-98200028D01*
X110554061Y-98200028D01*
X110560514Y-98201400D01*
X110739486Y-98201400D01*
X110745939Y-98200028D01*
X110745943Y-98200028D01*
X110877494Y-98172066D01*
X110914546Y-98164190D01*
X110920579Y-98161504D01*
X110920582Y-98161503D01*
X111023752Y-98115569D01*
X111094119Y-98106135D01*
X111126248Y-98115569D01*
X111229418Y-98161503D01*
X111229421Y-98161504D01*
X111235454Y-98164190D01*
X111272506Y-98172066D01*
X111404057Y-98200028D01*
X111404061Y-98200028D01*
X111410514Y-98201400D01*
X111589486Y-98201400D01*
X111595939Y-98200028D01*
X111595943Y-98200028D01*
X111677016Y-98182795D01*
X111764546Y-98164190D01*
X111770581Y-98161503D01*
X111922015Y-98094081D01*
X111922017Y-98094080D01*
X111928045Y-98091396D01*
X111941301Y-98081765D01*
X112067492Y-97990082D01*
X112067494Y-97990080D01*
X112072836Y-97986199D01*
X112121364Y-97932303D01*
X112188172Y-97858105D01*
X112188173Y-97858104D01*
X112192591Y-97853197D01*
X112282077Y-97698203D01*
X112337382Y-97527991D01*
X112356090Y-97350000D01*
X112337382Y-97172009D01*
X112282077Y-97001797D01*
X112273321Y-96986630D01*
X113542482Y-96986630D01*
X113542998Y-96992774D01*
X113557522Y-97165730D01*
X113558121Y-97172867D01*
X113609636Y-97352520D01*
X113695064Y-97518746D01*
X113698887Y-97523570D01*
X113698890Y-97523574D01*
X113782907Y-97629576D01*
X113811152Y-97665212D01*
X113953478Y-97786342D01*
X114116621Y-97877519D01*
X114294367Y-97935272D01*
X114479945Y-97957401D01*
X114486080Y-97956929D01*
X114486082Y-97956929D01*
X114542119Y-97952617D01*
X114666287Y-97943063D01*
X114846296Y-97892804D01*
X114851785Y-97890031D01*
X114851791Y-97890029D01*
X114981206Y-97824656D01*
X115013114Y-97808538D01*
X115037853Y-97789210D01*
X115103844Y-97763033D01*
X115115424Y-97762500D01*
X118211972Y-97762500D01*
X118280093Y-97782502D01*
X118301067Y-97799405D01*
X122242862Y-101741200D01*
X122276888Y-101803512D01*
X122275890Y-101861310D01*
X122257296Y-101934525D01*
X122213981Y-102105077D01*
X122187050Y-102372526D01*
X122187274Y-102377192D01*
X122187274Y-102377197D01*
X122189179Y-102416851D01*
X122199947Y-102641019D01*
X122252388Y-102904656D01*
X122343220Y-103157646D01*
X122345432Y-103161762D01*
X122345433Y-103161765D01*
X122400442Y-103264141D01*
X122470450Y-103394431D01*
X122473241Y-103398168D01*
X122473245Y-103398175D01*
X122554887Y-103507506D01*
X122631281Y-103609810D01*
X122634590Y-103613090D01*
X122634595Y-103613096D01*
X122760852Y-103738255D01*
X122822180Y-103799050D01*
X122825942Y-103801808D01*
X122825945Y-103801811D01*
X122937927Y-103883919D01*
X123038954Y-103957995D01*
X123043089Y-103960171D01*
X123043093Y-103960173D01*
X123270864Y-104080010D01*
X123276840Y-104083154D01*
X123530613Y-104171775D01*
X123535206Y-104172647D01*
X123790109Y-104221042D01*
X123790112Y-104221042D01*
X123794698Y-104221913D01*
X123922370Y-104226929D01*
X124058625Y-104232283D01*
X124058630Y-104232283D01*
X124063293Y-104232466D01*
X124167607Y-104221042D01*
X124325844Y-104203713D01*
X124325850Y-104203712D01*
X124330497Y-104203203D01*
X124373558Y-104191866D01*
X124585918Y-104135956D01*
X124585920Y-104135955D01*
X124590441Y-104134765D01*
X124594738Y-104132919D01*
X124833120Y-104030502D01*
X124833122Y-104030501D01*
X124837414Y-104028657D01*
X124971227Y-103945851D01*
X125062017Y-103889669D01*
X125062021Y-103889666D01*
X125065990Y-103887210D01*
X125271149Y-103713530D01*
X125448382Y-103511434D01*
X125593797Y-103285361D01*
X125704199Y-103040278D01*
X125714272Y-103004561D01*
X125775893Y-102786072D01*
X125775894Y-102786069D01*
X125777163Y-102781568D01*
X125783712Y-102730093D01*
X125810688Y-102518045D01*
X125810688Y-102518041D01*
X125811086Y-102514915D01*
X125813571Y-102420000D01*
X125793650Y-102151937D01*
X125782020Y-102100538D01*
X125735361Y-101894331D01*
X125735360Y-101894326D01*
X125734327Y-101889763D01*
X125636902Y-101639238D01*
X125503518Y-101405864D01*
X125493223Y-101392804D01*
X125423803Y-101304746D01*
X125337105Y-101194769D01*
X125141317Y-101010591D01*
X124920457Y-100857374D01*
X124916264Y-100855306D01*
X124683564Y-100740551D01*
X124683561Y-100740550D01*
X124679376Y-100738486D01*
X124423370Y-100656538D01*
X124418763Y-100655788D01*
X124418760Y-100655787D01*
X124162674Y-100614081D01*
X124162675Y-100614081D01*
X124158063Y-100613330D01*
X124027719Y-100611624D01*
X123893961Y-100609873D01*
X123893958Y-100609873D01*
X123889284Y-100609812D01*
X123622937Y-100646060D01*
X123447898Y-100697079D01*
X123376903Y-100696938D01*
X123323546Y-100665208D01*
X119950864Y-97292526D01*
X122187050Y-97292526D01*
X122199947Y-97561019D01*
X122252388Y-97824656D01*
X122343220Y-98077646D01*
X122345432Y-98081762D01*
X122345433Y-98081765D01*
X122359955Y-98108792D01*
X122470450Y-98314431D01*
X122473241Y-98318168D01*
X122473245Y-98318175D01*
X122515854Y-98375235D01*
X122631281Y-98529810D01*
X122634590Y-98533090D01*
X122634595Y-98533096D01*
X122812023Y-98708981D01*
X122822180Y-98719050D01*
X122825942Y-98721808D01*
X122825945Y-98721811D01*
X122933730Y-98800842D01*
X123038954Y-98877995D01*
X123043089Y-98880171D01*
X123043093Y-98880173D01*
X123272698Y-99000975D01*
X123276840Y-99003154D01*
X123355162Y-99030505D01*
X123497585Y-99080241D01*
X123530613Y-99091775D01*
X123535206Y-99092647D01*
X123790109Y-99141042D01*
X123790112Y-99141042D01*
X123794698Y-99141913D01*
X123922370Y-99146929D01*
X124058625Y-99152283D01*
X124058630Y-99152283D01*
X124063293Y-99152466D01*
X124167607Y-99141042D01*
X124325844Y-99123713D01*
X124325850Y-99123712D01*
X124330497Y-99123203D01*
X124335021Y-99122012D01*
X124585918Y-99055956D01*
X124585920Y-99055955D01*
X124590441Y-99054765D01*
X124618351Y-99042774D01*
X124833120Y-98950502D01*
X124833122Y-98950501D01*
X124837414Y-98948657D01*
X124960067Y-98872757D01*
X125062017Y-98809669D01*
X125062021Y-98809666D01*
X125065990Y-98807210D01*
X125271149Y-98633530D01*
X125448382Y-98431434D01*
X125484531Y-98375235D01*
X125591269Y-98209291D01*
X125593797Y-98205361D01*
X125704199Y-97960278D01*
X125741209Y-97829051D01*
X125775893Y-97706072D01*
X125775894Y-97706069D01*
X125777163Y-97701568D01*
X125795043Y-97561019D01*
X125810688Y-97438045D01*
X125810688Y-97438041D01*
X125811086Y-97434915D01*
X125811173Y-97431621D01*
X125813488Y-97343160D01*
X125813571Y-97340000D01*
X125793650Y-97071937D01*
X125792619Y-97067379D01*
X125735361Y-96814331D01*
X125735360Y-96814326D01*
X125734327Y-96809763D01*
X125636902Y-96559238D01*
X125503518Y-96325864D01*
X125499317Y-96320534D01*
X125420360Y-96220378D01*
X125337105Y-96114769D01*
X125141317Y-95930591D01*
X124936488Y-95788495D01*
X124924299Y-95780039D01*
X124924296Y-95780037D01*
X124920457Y-95777374D01*
X124916264Y-95775306D01*
X124683564Y-95660551D01*
X124683561Y-95660550D01*
X124679376Y-95658486D01*
X124631745Y-95643239D01*
X124577621Y-95625914D01*
X124423370Y-95576538D01*
X124418763Y-95575788D01*
X124418760Y-95575787D01*
X124162674Y-95534081D01*
X124162675Y-95534081D01*
X124158063Y-95533330D01*
X124027719Y-95531624D01*
X123893961Y-95529873D01*
X123893958Y-95529873D01*
X123889284Y-95529812D01*
X123622937Y-95566060D01*
X123364874Y-95641278D01*
X123120763Y-95753815D01*
X123069112Y-95787679D01*
X122899881Y-95898631D01*
X122899876Y-95898635D01*
X122895968Y-95901197D01*
X122851683Y-95940723D01*
X122716584Y-96061304D01*
X122695426Y-96080188D01*
X122523544Y-96286854D01*
X122521121Y-96290847D01*
X122441530Y-96422009D01*
X122384096Y-96516656D01*
X122382287Y-96520970D01*
X122382285Y-96520974D01*
X122304985Y-96705315D01*
X122280148Y-96764545D01*
X122213981Y-97025077D01*
X122187050Y-97292526D01*
X119950864Y-97292526D01*
X119166810Y-96508472D01*
X119154423Y-96494059D01*
X119145795Y-96482335D01*
X119141454Y-96476436D01*
X119100945Y-96442021D01*
X119093429Y-96435091D01*
X119087685Y-96429347D01*
X119084811Y-96427073D01*
X119084804Y-96427067D01*
X119065289Y-96411628D01*
X119061885Y-96408837D01*
X119011528Y-96366055D01*
X119011524Y-96366052D01*
X119005949Y-96361316D01*
X118999432Y-96357988D01*
X118994368Y-96354611D01*
X118989144Y-96351384D01*
X118983400Y-96346840D01*
X118917014Y-96315813D01*
X118916918Y-96315768D01*
X118912967Y-96313837D01*
X118867943Y-96290847D01*
X118847596Y-96280457D01*
X118840481Y-96278716D01*
X118834735Y-96276579D01*
X118828952Y-96274655D01*
X118822321Y-96271556D01*
X118750443Y-96256606D01*
X118746171Y-96255639D01*
X118674888Y-96238196D01*
X118669289Y-96237849D01*
X118669285Y-96237848D01*
X118663670Y-96237500D01*
X118663672Y-96237461D01*
X118659771Y-96237228D01*
X118655412Y-96236839D01*
X118648244Y-96235348D01*
X118640927Y-96235546D01*
X118570423Y-96237454D01*
X118567014Y-96237500D01*
X118143617Y-96237500D01*
X118075496Y-96217498D01*
X118029003Y-96163842D01*
X118018899Y-96093568D01*
X118034061Y-96049264D01*
X118121774Y-95894860D01*
X118121777Y-95894854D01*
X118124821Y-95889495D01*
X118135991Y-95855919D01*
X118155058Y-95798600D01*
X118183814Y-95712157D01*
X118190774Y-95657063D01*
X118206796Y-95530241D01*
X118206797Y-95530232D01*
X118207238Y-95526738D01*
X118207611Y-95500000D01*
X118189373Y-95313999D01*
X118185419Y-95300901D01*
X118137136Y-95140983D01*
X118135355Y-95135083D01*
X118047615Y-94970066D01*
X117965750Y-94869690D01*
X117933388Y-94830010D01*
X117933385Y-94830007D01*
X117929493Y-94825235D01*
X117924744Y-94821306D01*
X117790239Y-94710034D01*
X117790236Y-94710032D01*
X117785489Y-94706105D01*
X117621089Y-94617214D01*
X117531821Y-94589581D01*
X117448441Y-94563770D01*
X117448438Y-94563769D01*
X117442554Y-94561948D01*
X117436429Y-94561304D01*
X117436428Y-94561304D01*
X117262813Y-94543056D01*
X117262812Y-94543056D01*
X117256685Y-94542412D01*
X117138087Y-94553206D01*
X117076703Y-94558792D01*
X117076702Y-94558792D01*
X117070562Y-94559351D01*
X117064648Y-94561092D01*
X117064646Y-94561092D01*
X116942466Y-94597052D01*
X116891273Y-94612119D01*
X116725647Y-94698705D01*
X116579995Y-94815813D01*
X116459862Y-94958981D01*
X116456899Y-94964370D01*
X116456896Y-94964375D01*
X116383509Y-95097868D01*
X116369826Y-95122757D01*
X116313315Y-95300901D01*
X116292482Y-95486630D01*
X116292998Y-95492774D01*
X116307087Y-95660551D01*
X116308121Y-95672867D01*
X116359636Y-95852520D01*
X116445064Y-96018746D01*
X116448887Y-96023570D01*
X116448890Y-96023574D01*
X116456548Y-96033235D01*
X116483186Y-96099045D01*
X116470016Y-96168809D01*
X116421219Y-96220378D01*
X116357803Y-96237500D01*
X115118802Y-96237500D01*
X115050681Y-96217498D01*
X115043236Y-96212056D01*
X115040239Y-96210034D01*
X115035489Y-96206105D01*
X114871089Y-96117214D01*
X114751478Y-96080188D01*
X114698441Y-96063770D01*
X114698438Y-96063769D01*
X114692554Y-96061948D01*
X114686429Y-96061304D01*
X114686428Y-96061304D01*
X114512813Y-96043056D01*
X114512812Y-96043056D01*
X114506685Y-96042412D01*
X114401356Y-96051998D01*
X114326703Y-96058792D01*
X114326702Y-96058792D01*
X114320562Y-96059351D01*
X114314648Y-96061092D01*
X114314646Y-96061092D01*
X114260355Y-96077071D01*
X114141273Y-96112119D01*
X114135808Y-96114976D01*
X113983337Y-96194685D01*
X113975647Y-96198705D01*
X113829995Y-96315813D01*
X113709862Y-96458981D01*
X113706899Y-96464370D01*
X113706896Y-96464375D01*
X113652352Y-96563592D01*
X113619826Y-96622757D01*
X113617965Y-96628624D01*
X113617964Y-96628626D01*
X113611184Y-96650000D01*
X113563315Y-96800901D01*
X113542482Y-96986630D01*
X112273321Y-96986630D01*
X112262947Y-96968662D01*
X112206982Y-96871729D01*
X112190244Y-96802734D01*
X112190791Y-96795558D01*
X112205400Y-96656565D01*
X112206090Y-96650000D01*
X112192075Y-96516656D01*
X112188072Y-96478573D01*
X112188072Y-96478572D01*
X112187382Y-96472009D01*
X112132077Y-96301797D01*
X112105427Y-96255637D01*
X112045892Y-96152521D01*
X112042591Y-96146803D01*
X112002720Y-96102521D01*
X111927258Y-96018712D01*
X111927257Y-96018711D01*
X111922836Y-96013801D01*
X111860777Y-95968712D01*
X111783387Y-95912485D01*
X111783386Y-95912484D01*
X111778045Y-95908604D01*
X111772017Y-95905920D01*
X111772015Y-95905919D01*
X111620577Y-95838495D01*
X111620576Y-95838495D01*
X111614546Y-95835810D01*
X111527016Y-95817205D01*
X111445943Y-95799972D01*
X111445939Y-95799972D01*
X111439486Y-95798600D01*
X111260514Y-95798600D01*
X111254061Y-95799972D01*
X111254057Y-95799972D01*
X111172984Y-95817205D01*
X111085454Y-95835810D01*
X111079422Y-95838496D01*
X111073142Y-95840536D01*
X111072480Y-95838498D01*
X111012042Y-95846606D01*
X110979905Y-95837171D01*
X110864546Y-95785810D01*
X110777016Y-95767205D01*
X110695943Y-95749972D01*
X110695939Y-95749972D01*
X110689486Y-95748600D01*
X110510514Y-95748600D01*
X110504061Y-95749972D01*
X110504057Y-95749972D01*
X110422984Y-95767205D01*
X110335454Y-95785810D01*
X110329424Y-95788495D01*
X110329423Y-95788495D01*
X110177985Y-95855919D01*
X110177983Y-95855920D01*
X110171955Y-95858604D01*
X110166614Y-95862484D01*
X110166613Y-95862485D01*
X110068461Y-95933797D01*
X110027164Y-95963801D01*
X110022743Y-95968711D01*
X110022742Y-95968712D01*
X109919129Y-96083787D01*
X109907409Y-96096803D01*
X109875240Y-96152521D01*
X109825776Y-96238196D01*
X109817923Y-96251797D01*
X109762618Y-96422009D01*
X109743910Y-96600000D01*
X97811823Y-96600000D01*
X97823628Y-96450000D01*
X97803146Y-96189751D01*
X97801992Y-96184944D01*
X97801991Y-96184938D01*
X97748900Y-95963801D01*
X97742204Y-95935911D01*
X97740310Y-95931338D01*
X97644198Y-95699303D01*
X97644196Y-95699299D01*
X97642303Y-95694729D01*
X97505903Y-95472144D01*
X97336363Y-95273637D01*
X97137856Y-95104097D01*
X96915271Y-94967697D01*
X96910701Y-94965804D01*
X96910697Y-94965802D01*
X96678662Y-94869690D01*
X96678660Y-94869689D01*
X96674089Y-94867796D01*
X96585069Y-94846424D01*
X96425062Y-94808009D01*
X96425056Y-94808008D01*
X96420249Y-94806854D01*
X96329116Y-94799682D01*
X96227615Y-94791693D01*
X96227606Y-94791693D01*
X96225158Y-94791500D01*
X96094842Y-94791500D01*
X96092394Y-94791693D01*
X96092385Y-94791693D01*
X95990884Y-94799682D01*
X95899751Y-94806854D01*
X95894944Y-94808008D01*
X95894938Y-94808009D01*
X95734931Y-94846424D01*
X95645911Y-94867796D01*
X95641340Y-94869689D01*
X95641338Y-94869690D01*
X95409303Y-94965802D01*
X95409299Y-94965804D01*
X95404729Y-94967697D01*
X95182144Y-95104097D01*
X94983637Y-95273637D01*
X94814097Y-95472144D01*
X94677697Y-95694729D01*
X94675804Y-95699299D01*
X94675802Y-95699303D01*
X94579690Y-95931338D01*
X94577796Y-95935911D01*
X94571100Y-95963801D01*
X94518009Y-96184938D01*
X94518008Y-96184944D01*
X94516854Y-96189751D01*
X94496372Y-96450000D01*
X90008500Y-96450000D01*
X90008500Y-92553250D01*
X90010246Y-92532345D01*
X90012770Y-92517344D01*
X90012770Y-92517341D01*
X90013576Y-92512552D01*
X90013729Y-92500000D01*
X90012003Y-92487947D01*
X90011001Y-92461845D01*
X90024998Y-92248299D01*
X90027149Y-92231959D01*
X90074748Y-91992660D01*
X90079014Y-91976740D01*
X90157439Y-91745708D01*
X90163746Y-91730481D01*
X90271657Y-91511658D01*
X90279898Y-91497384D01*
X90415447Y-91294522D01*
X90425480Y-91281447D01*
X90586352Y-91098007D01*
X90598007Y-91086352D01*
X90781447Y-90925480D01*
X90794522Y-90915447D01*
X90997384Y-90779898D01*
X91011658Y-90771657D01*
X91230481Y-90663746D01*
X91245708Y-90657439D01*
X91392387Y-90607648D01*
X91476743Y-90579013D01*
X91492657Y-90574749D01*
X91640430Y-90545355D01*
X91731959Y-90527149D01*
X91748299Y-90524998D01*
X91889563Y-90515738D01*
X91958237Y-90511237D01*
X91981350Y-90512267D01*
X91984854Y-90512310D01*
X91993724Y-90513691D01*
X92002626Y-90512527D01*
X92002628Y-90512527D01*
X92019449Y-90510327D01*
X92025286Y-90509564D01*
X92041621Y-90508500D01*
X119004774Y-90508500D01*
X119072895Y-90528502D01*
G37*
G04 #@! TD.AperFunction*
M02*
