G04 #@! TF.GenerationSoftware,KiCad,Pcbnew,(6.0.8-1)-1*
G04 #@! TF.CreationDate,2022-11-19T13:53:03+02:00*
G04 #@! TF.ProjectId,AidonToRS485,4169646f-6e54-46f5-9253-3438352e6b69,1*
G04 #@! TF.SameCoordinates,Original*
G04 #@! TF.FileFunction,Copper,L1,Top*
G04 #@! TF.FilePolarity,Positive*
%FSLAX46Y46*%
G04 Gerber Fmt 4.6, Leading zero omitted, Abs format (unit mm)*
G04 Created by KiCad (PCBNEW (6.0.8-1)-1) date 2022-11-19 13:53:03*
%MOMM*%
%LPD*%
G01*
G04 APERTURE LIST*
G04 Aperture macros list*
%AMRoundRect*
0 Rectangle with rounded corners*
0 $1 Rounding radius*
0 $2 $3 $4 $5 $6 $7 $8 $9 X,Y pos of 4 corners*
0 Add a 4 corners polygon primitive as box body*
4,1,4,$2,$3,$4,$5,$6,$7,$8,$9,$2,$3,0*
0 Add four circle primitives for the rounded corners*
1,1,$1+$1,$2,$3*
1,1,$1+$1,$4,$5*
1,1,$1+$1,$6,$7*
1,1,$1+$1,$8,$9*
0 Add four rect primitives between the rounded corners*
20,1,$1+$1,$2,$3,$4,$5,0*
20,1,$1+$1,$4,$5,$6,$7,0*
20,1,$1+$1,$6,$7,$8,$9,0*
20,1,$1+$1,$8,$9,$2,$3,0*%
G04 Aperture macros list end*
G04 #@! TA.AperFunction,SMDPad,CuDef*
%ADD10RoundRect,0.250000X0.250000X0.475000X-0.250000X0.475000X-0.250000X-0.475000X0.250000X-0.475000X0*%
G04 #@! TD*
G04 #@! TA.AperFunction,SMDPad,CuDef*
%ADD11R,1.525000X0.650000*%
G04 #@! TD*
G04 #@! TA.AperFunction,ComponentPad*
%ADD12R,1.520000X1.520000*%
G04 #@! TD*
G04 #@! TA.AperFunction,ComponentPad*
%ADD13C,1.520000*%
G04 #@! TD*
G04 #@! TA.AperFunction,SMDPad,CuDef*
%ADD14RoundRect,0.150000X-0.587500X-0.150000X0.587500X-0.150000X0.587500X0.150000X-0.587500X0.150000X0*%
G04 #@! TD*
G04 #@! TA.AperFunction,ComponentPad*
%ADD15R,1.700000X1.700000*%
G04 #@! TD*
G04 #@! TA.AperFunction,ComponentPad*
%ADD16O,1.700000X1.700000*%
G04 #@! TD*
G04 #@! TA.AperFunction,ComponentPad*
%ADD17R,2.600000X2.600000*%
G04 #@! TD*
G04 #@! TA.AperFunction,ComponentPad*
%ADD18C,2.600000*%
G04 #@! TD*
G04 #@! TA.AperFunction,SMDPad,CuDef*
%ADD19RoundRect,0.243750X-0.243750X-0.456250X0.243750X-0.456250X0.243750X0.456250X-0.243750X0.456250X0*%
G04 #@! TD*
G04 #@! TA.AperFunction,SMDPad,CuDef*
%ADD20RoundRect,0.250000X-0.450000X0.262500X-0.450000X-0.262500X0.450000X-0.262500X0.450000X0.262500X0*%
G04 #@! TD*
G04 #@! TA.AperFunction,SMDPad,CuDef*
%ADD21RoundRect,0.250000X-0.262500X-0.450000X0.262500X-0.450000X0.262500X0.450000X-0.262500X0.450000X0*%
G04 #@! TD*
G04 #@! TA.AperFunction,SMDPad,CuDef*
%ADD22RoundRect,0.250000X-0.475000X0.250000X-0.475000X-0.250000X0.475000X-0.250000X0.475000X0.250000X0*%
G04 #@! TD*
G04 #@! TA.AperFunction,SMDPad,CuDef*
%ADD23RoundRect,0.150000X0.150000X-0.587500X0.150000X0.587500X-0.150000X0.587500X-0.150000X-0.587500X0*%
G04 #@! TD*
G04 #@! TA.AperFunction,ViaPad*
%ADD24C,4.000000*%
G04 #@! TD*
G04 #@! TA.AperFunction,ViaPad*
%ADD25C,0.889000*%
G04 #@! TD*
G04 #@! TA.AperFunction,ViaPad*
%ADD26C,5.000000*%
G04 #@! TD*
G04 #@! TA.AperFunction,ViaPad*
%ADD27C,0.685800*%
G04 #@! TD*
G04 #@! TA.AperFunction,Conductor*
%ADD28C,0.508000*%
G04 #@! TD*
G04 #@! TA.AperFunction,Conductor*
%ADD29C,0.762000*%
G04 #@! TD*
G04 #@! TA.AperFunction,Conductor*
%ADD30C,0.254000*%
G04 #@! TD*
G04 APERTURE END LIST*
D10*
X110950000Y-95500000D03*
X109050000Y-95500000D03*
D11*
X105788000Y-98095000D03*
X105788000Y-99365000D03*
X105788000Y-100635000D03*
X105788000Y-101905000D03*
X111212000Y-101905000D03*
X111212000Y-100635000D03*
X111212000Y-99365000D03*
X111212000Y-98095000D03*
D12*
X101000000Y-105000000D03*
D13*
X98460000Y-103980000D03*
X101000000Y-102960000D03*
X98460000Y-101940000D03*
X101000000Y-100920000D03*
X98460000Y-99900000D03*
D14*
X114625000Y-99050000D03*
X114625000Y-100950000D03*
X116500000Y-100000000D03*
D15*
X120225000Y-92000000D03*
D16*
X122765000Y-92000000D03*
D17*
X124000000Y-107500000D03*
D18*
X124000000Y-102420000D03*
X124000000Y-97340000D03*
D19*
X109062500Y-111500000D03*
X110937500Y-111500000D03*
D20*
X116000000Y-106175000D03*
X116000000Y-108000000D03*
D21*
X114087500Y-95500000D03*
X115912500Y-95500000D03*
D22*
X105250000Y-109850000D03*
X105250000Y-111750000D03*
D23*
X105050000Y-107437500D03*
X106950000Y-107437500D03*
X106000000Y-105562500D03*
D20*
X110000000Y-106087500D03*
X110000000Y-107912500D03*
X113000000Y-106087500D03*
X113000000Y-107912500D03*
D19*
X114312500Y-111500000D03*
X116187500Y-111500000D03*
D24*
X132000000Y-107000000D03*
D25*
X115050000Y-100000000D03*
D26*
X93000000Y-112000000D03*
X131500000Y-112000000D03*
X93000000Y-93000000D03*
D25*
X102450000Y-103250000D03*
D26*
X131500000Y-93000000D03*
D24*
X132000000Y-98000000D03*
D27*
X110650000Y-97350000D03*
D25*
X104250000Y-100500000D03*
X110000000Y-104750000D03*
D27*
X111350000Y-96650000D03*
X111500000Y-97350000D03*
D25*
X113000000Y-104750000D03*
X104250000Y-99250000D03*
X116000000Y-104750000D03*
D27*
X110600000Y-96600000D03*
D25*
X107875000Y-111475000D03*
X105250000Y-108750000D03*
X112250000Y-111500000D03*
X113000000Y-109000000D03*
X117650000Y-99050000D03*
X114500000Y-97000000D03*
X117650000Y-100950000D03*
X107200000Y-105550000D03*
X108625000Y-107800000D03*
X117250000Y-95500000D03*
D28*
X109000000Y-95450000D02*
X109050000Y-95500000D01*
X107600000Y-95800000D02*
X107750000Y-95950000D01*
X108400000Y-95950000D02*
X107900000Y-95450000D01*
X107850000Y-95950000D02*
X109050000Y-95950000D01*
X116500000Y-100000000D02*
X115050000Y-100000000D01*
X107600000Y-95300000D02*
X107600000Y-95800000D01*
X107850000Y-95050000D02*
X107600000Y-95300000D01*
X107900000Y-95450000D02*
X109000000Y-95450000D01*
D29*
X102160000Y-102960000D02*
X102450000Y-103250000D01*
D28*
X109050000Y-95950000D02*
X108400000Y-95950000D01*
X109050000Y-95050000D02*
X107850000Y-95050000D01*
D29*
X101000000Y-102960000D02*
X102160000Y-102960000D01*
D28*
X107750000Y-95950000D02*
X107850000Y-95950000D01*
D29*
X111200000Y-96000000D02*
X110950000Y-95800000D01*
D28*
X105788000Y-99365000D02*
X104365000Y-99365000D01*
D29*
X110650000Y-97350000D02*
X110600000Y-96600000D01*
X110950000Y-96750000D02*
X111350000Y-96650000D01*
D28*
X113000000Y-106087500D02*
X113000000Y-104750000D01*
X104365000Y-99365000D02*
X104250000Y-99250000D01*
X110700000Y-97950000D02*
X110700000Y-97350000D01*
X111212000Y-98095000D02*
X110845000Y-98095000D01*
D29*
X110700000Y-97350000D02*
X110650000Y-97350000D01*
X111350000Y-96650000D02*
X111200000Y-96000000D01*
X111500000Y-97350000D02*
X111500000Y-97300000D01*
D28*
X110700000Y-98050000D02*
X110700000Y-97950000D01*
X110950000Y-95100000D02*
X110950000Y-95500000D01*
X110900000Y-97550000D02*
X111500000Y-97550000D01*
X111700000Y-98050000D02*
X111700000Y-97750000D01*
X110845000Y-98095000D02*
X110700000Y-98050000D01*
D29*
X110700000Y-96300000D02*
X110850000Y-96150000D01*
X111500000Y-97550000D02*
X111500000Y-97350000D01*
D28*
X111500000Y-97550000D02*
X111700000Y-98050000D01*
X110750000Y-95700000D02*
X110950000Y-95100000D01*
X105788000Y-100635000D02*
X104385000Y-100635000D01*
X110000000Y-106087500D02*
X110000000Y-104750000D01*
D29*
X110950000Y-95800000D02*
X110950000Y-95500000D01*
X110600000Y-96600000D02*
X110700000Y-96300000D01*
X111500000Y-97300000D02*
X110950000Y-96750000D01*
D28*
X110700000Y-97350000D02*
X110900000Y-97550000D01*
X104385000Y-100635000D02*
X104250000Y-100500000D01*
X116000000Y-106175000D02*
X116000000Y-104750000D01*
X105250000Y-108750000D02*
X105250000Y-109850000D01*
X107875000Y-111475000D02*
X109037500Y-111475000D01*
X105050000Y-107437500D02*
X105050000Y-108550000D01*
X109037500Y-111475000D02*
X109062500Y-111500000D01*
X105050000Y-108550000D02*
X105250000Y-108750000D01*
X116000000Y-108000000D02*
X116000000Y-111312500D01*
X116000000Y-111312500D02*
X116187500Y-111500000D01*
X113000000Y-109000000D02*
X113000000Y-107912500D01*
X110937500Y-111500000D02*
X112250000Y-111500000D01*
X117650000Y-99050000D02*
X114625000Y-99050000D01*
X113200000Y-99050000D02*
X114625000Y-99050000D01*
X111212000Y-99365000D02*
X112885000Y-99365000D01*
X112885000Y-99365000D02*
X113200000Y-99050000D01*
X114087500Y-96587500D02*
X114500000Y-97000000D01*
X113200000Y-100950000D02*
X114625000Y-100950000D01*
X115000000Y-100950000D02*
X114625000Y-100950000D01*
X117650000Y-100950000D02*
X114625000Y-100950000D01*
X114087500Y-95500000D02*
X114087500Y-96587500D01*
D30*
X114625000Y-100950000D02*
X114625000Y-100975000D01*
D28*
X114675000Y-101000000D02*
X115000000Y-100950000D01*
X111212000Y-100635000D02*
X112885000Y-100635000D01*
X112885000Y-100635000D02*
X113200000Y-100950000D01*
X106000000Y-102117000D02*
X105788000Y-101905000D01*
X106000000Y-105562500D02*
X106000000Y-102117000D01*
X110000000Y-107912500D02*
X108737500Y-107912500D01*
X108737500Y-107912500D02*
X108625000Y-107800000D01*
X107200000Y-105550000D02*
X106012500Y-105550000D01*
X106012500Y-105550000D02*
X106000000Y-105562500D01*
X115912500Y-95500000D02*
X117250000Y-95500000D01*
G04 #@! TA.AperFunction,Conductor*
G36*
X119072895Y-90528502D02*
G01*
X119119388Y-90582158D01*
X119129492Y-90652432D01*
X119099998Y-90717012D01*
X119080339Y-90735326D01*
X119026989Y-90775310D01*
X119011739Y-90786739D01*
X118924385Y-90903295D01*
X118873255Y-91039684D01*
X118866500Y-91101866D01*
X118866500Y-92898134D01*
X118873255Y-92960316D01*
X118924385Y-93096705D01*
X119011739Y-93213261D01*
X119128295Y-93300615D01*
X119264684Y-93351745D01*
X119326866Y-93358500D01*
X121123134Y-93358500D01*
X121185316Y-93351745D01*
X121321705Y-93300615D01*
X121438261Y-93213261D01*
X121525615Y-93096705D01*
X121547799Y-93037529D01*
X121569598Y-92979382D01*
X121612240Y-92922618D01*
X121678802Y-92897918D01*
X121748150Y-92913126D01*
X121782817Y-92941114D01*
X121811250Y-92973938D01*
X121983126Y-93116632D01*
X122176000Y-93229338D01*
X122384692Y-93309030D01*
X122389760Y-93310061D01*
X122389763Y-93310062D01*
X122497017Y-93331883D01*
X122603597Y-93353567D01*
X122608772Y-93353757D01*
X122608774Y-93353757D01*
X122821673Y-93361564D01*
X122821677Y-93361564D01*
X122826837Y-93361753D01*
X122831957Y-93361097D01*
X122831959Y-93361097D01*
X123043288Y-93334025D01*
X123043289Y-93334025D01*
X123048416Y-93333368D01*
X123053366Y-93331883D01*
X123257429Y-93270661D01*
X123257434Y-93270659D01*
X123262384Y-93269174D01*
X123462994Y-93170896D01*
X123644860Y-93041173D01*
X123803096Y-92883489D01*
X123933453Y-92702077D01*
X124007008Y-92553250D01*
X124030136Y-92506453D01*
X124030137Y-92506451D01*
X124032430Y-92501811D01*
X124097370Y-92288069D01*
X124126529Y-92066590D01*
X124128156Y-92000000D01*
X124109852Y-91777361D01*
X124055431Y-91560702D01*
X123966354Y-91355840D01*
X123845014Y-91168277D01*
X123694670Y-91003051D01*
X123690619Y-90999852D01*
X123690615Y-90999848D01*
X123523414Y-90867800D01*
X123523410Y-90867798D01*
X123519359Y-90864598D01*
X123323789Y-90756638D01*
X123318624Y-90754809D01*
X123314285Y-90753272D01*
X123256750Y-90711677D01*
X123230835Y-90645579D01*
X123244770Y-90575964D01*
X123294129Y-90524933D01*
X123356347Y-90508500D01*
X131950633Y-90508500D01*
X131970018Y-90510000D01*
X131984851Y-90512310D01*
X131984855Y-90512310D01*
X131993724Y-90513691D01*
X132010012Y-90511561D01*
X132034589Y-90510767D01*
X132061441Y-90512527D01*
X132251701Y-90524998D01*
X132268041Y-90527149D01*
X132359570Y-90545355D01*
X132507343Y-90574749D01*
X132523257Y-90579013D01*
X132607613Y-90607648D01*
X132754292Y-90657439D01*
X132769519Y-90663746D01*
X132988342Y-90771657D01*
X133002616Y-90779898D01*
X133205478Y-90915447D01*
X133218553Y-90925480D01*
X133401993Y-91086352D01*
X133413648Y-91098007D01*
X133574520Y-91281447D01*
X133584553Y-91294522D01*
X133720102Y-91497384D01*
X133728343Y-91511658D01*
X133836254Y-91730481D01*
X133842561Y-91745708D01*
X133920986Y-91976740D01*
X133925252Y-91992660D01*
X133972851Y-92231959D01*
X133975002Y-92248299D01*
X133988763Y-92458236D01*
X133987733Y-92481350D01*
X133987690Y-92484854D01*
X133986309Y-92493724D01*
X133987473Y-92502626D01*
X133987473Y-92502628D01*
X133990436Y-92525283D01*
X133991500Y-92541621D01*
X133991500Y-112450633D01*
X133990000Y-112470018D01*
X133987690Y-112484851D01*
X133987690Y-112484855D01*
X133986309Y-112493724D01*
X133988136Y-112507694D01*
X133988439Y-112510010D01*
X133989233Y-112534590D01*
X133975002Y-112751701D01*
X133972851Y-112768041D01*
X133925252Y-113007340D01*
X133920986Y-113023260D01*
X133842561Y-113254292D01*
X133836254Y-113269519D01*
X133728343Y-113488342D01*
X133720102Y-113502616D01*
X133584553Y-113705478D01*
X133574520Y-113718553D01*
X133413648Y-113901993D01*
X133401993Y-113913648D01*
X133218553Y-114074520D01*
X133205478Y-114084553D01*
X133002616Y-114220102D01*
X132988342Y-114228343D01*
X132769519Y-114336254D01*
X132754292Y-114342561D01*
X132638776Y-114381774D01*
X132523257Y-114420987D01*
X132507343Y-114425251D01*
X132387691Y-114449051D01*
X132268041Y-114472851D01*
X132251701Y-114475002D01*
X132110437Y-114484262D01*
X132041763Y-114488763D01*
X132018650Y-114487733D01*
X132015146Y-114487690D01*
X132006276Y-114486309D01*
X131997374Y-114487473D01*
X131997372Y-114487473D01*
X131983915Y-114489233D01*
X131974714Y-114490436D01*
X131958379Y-114491500D01*
X92049367Y-114491500D01*
X92029982Y-114490000D01*
X92015149Y-114487690D01*
X92015145Y-114487690D01*
X92006276Y-114486309D01*
X91989988Y-114488439D01*
X91965411Y-114489233D01*
X91920801Y-114486309D01*
X91748299Y-114475002D01*
X91731959Y-114472851D01*
X91612309Y-114449051D01*
X91492657Y-114425251D01*
X91476743Y-114420987D01*
X91361224Y-114381774D01*
X91245708Y-114342561D01*
X91230481Y-114336254D01*
X91011658Y-114228343D01*
X90997384Y-114220102D01*
X90794522Y-114084553D01*
X90781447Y-114074520D01*
X90598007Y-113913648D01*
X90586352Y-113901993D01*
X90425480Y-113718553D01*
X90415447Y-113705478D01*
X90279898Y-113502616D01*
X90271657Y-113488342D01*
X90163746Y-113269519D01*
X90157439Y-113254292D01*
X90079014Y-113023260D01*
X90074748Y-113007340D01*
X90027149Y-112768041D01*
X90024998Y-112751701D01*
X90012016Y-112553651D01*
X90011476Y-112545407D01*
X90012650Y-112522232D01*
X90012334Y-112522204D01*
X90012770Y-112517344D01*
X90013576Y-112512552D01*
X90013729Y-112500000D01*
X90009773Y-112472376D01*
X90008500Y-112454514D01*
X90008500Y-112047095D01*
X104017001Y-112047095D01*
X104017338Y-112053614D01*
X104027257Y-112149206D01*
X104030149Y-112162600D01*
X104081588Y-112316784D01*
X104087761Y-112329962D01*
X104173063Y-112467807D01*
X104182099Y-112479208D01*
X104296829Y-112593739D01*
X104308240Y-112602751D01*
X104446243Y-112687816D01*
X104459424Y-112693963D01*
X104613710Y-112745138D01*
X104627086Y-112748005D01*
X104721438Y-112757672D01*
X104727854Y-112758000D01*
X104977885Y-112758000D01*
X104993124Y-112753525D01*
X104994329Y-112752135D01*
X104996000Y-112744452D01*
X104996000Y-112739884D01*
X105504000Y-112739884D01*
X105508475Y-112755123D01*
X105509865Y-112756328D01*
X105517548Y-112757999D01*
X105772095Y-112757999D01*
X105778614Y-112757662D01*
X105874206Y-112747743D01*
X105887600Y-112744851D01*
X106041784Y-112693412D01*
X106054962Y-112687239D01*
X106192807Y-112601937D01*
X106204208Y-112592901D01*
X106318739Y-112478171D01*
X106327751Y-112466760D01*
X106412816Y-112328757D01*
X106418963Y-112315576D01*
X106470138Y-112161290D01*
X106473005Y-112147914D01*
X106482672Y-112053562D01*
X106483000Y-112047145D01*
X106483000Y-112022115D01*
X106478525Y-112006876D01*
X106477135Y-112005671D01*
X106469452Y-112004000D01*
X105522115Y-112004000D01*
X105506876Y-112008475D01*
X105505671Y-112009865D01*
X105504000Y-112017548D01*
X105504000Y-112739884D01*
X104996000Y-112739884D01*
X104996000Y-112022115D01*
X104991525Y-112006876D01*
X104990135Y-112005671D01*
X104982452Y-112004000D01*
X104035116Y-112004000D01*
X104019877Y-112008475D01*
X104018672Y-112009865D01*
X104017001Y-112017548D01*
X104017001Y-112047095D01*
X90008500Y-112047095D01*
X90008500Y-108450000D01*
X94496372Y-108450000D01*
X94516854Y-108710249D01*
X94518008Y-108715056D01*
X94518009Y-108715062D01*
X94538618Y-108800901D01*
X94577796Y-108964089D01*
X94579689Y-108968660D01*
X94579690Y-108968662D01*
X94666728Y-109178789D01*
X94677697Y-109205271D01*
X94814097Y-109427856D01*
X94983637Y-109626363D01*
X95182144Y-109795903D01*
X95404729Y-109932303D01*
X95409299Y-109934196D01*
X95409303Y-109934198D01*
X95641338Y-110030310D01*
X95645911Y-110032204D01*
X95734931Y-110053576D01*
X95894938Y-110091991D01*
X95894944Y-110091992D01*
X95899751Y-110093146D01*
X95990884Y-110100318D01*
X96092385Y-110108307D01*
X96092394Y-110108307D01*
X96094842Y-110108500D01*
X96225158Y-110108500D01*
X96227606Y-110108307D01*
X96227615Y-110108307D01*
X96329116Y-110100318D01*
X96420249Y-110093146D01*
X96425056Y-110091992D01*
X96425062Y-110091991D01*
X96585069Y-110053576D01*
X96674089Y-110032204D01*
X96678662Y-110030310D01*
X96910697Y-109934198D01*
X96910701Y-109934196D01*
X96915271Y-109932303D01*
X97137856Y-109795903D01*
X97336363Y-109626363D01*
X97505903Y-109427856D01*
X97642303Y-109205271D01*
X97653273Y-109178789D01*
X97740310Y-108968662D01*
X97740311Y-108968660D01*
X97742204Y-108964089D01*
X97781382Y-108800901D01*
X97801991Y-108715062D01*
X97801992Y-108715056D01*
X97803146Y-108710249D01*
X97823628Y-108450000D01*
X97803146Y-108189751D01*
X97801992Y-108184944D01*
X97801991Y-108184938D01*
X97743359Y-107940723D01*
X97742204Y-107935911D01*
X97680370Y-107786630D01*
X97644198Y-107699303D01*
X97644196Y-107699299D01*
X97642303Y-107694729D01*
X97505903Y-107472144D01*
X97336363Y-107273637D01*
X97137856Y-107104097D01*
X96915271Y-106967697D01*
X96910701Y-106965804D01*
X96910697Y-106965802D01*
X96678662Y-106869690D01*
X96678660Y-106869689D01*
X96674089Y-106867796D01*
X96568358Y-106842412D01*
X96425062Y-106808009D01*
X96425056Y-106808008D01*
X96420249Y-106806854D01*
X96329116Y-106799682D01*
X96227615Y-106791693D01*
X96227606Y-106791693D01*
X96225158Y-106791500D01*
X96094842Y-106791500D01*
X96092394Y-106791693D01*
X96092385Y-106791693D01*
X95990884Y-106799682D01*
X95899751Y-106806854D01*
X95894944Y-106808008D01*
X95894938Y-106808009D01*
X95751642Y-106842412D01*
X95645911Y-106867796D01*
X95641340Y-106869689D01*
X95641338Y-106869690D01*
X95409303Y-106965802D01*
X95409299Y-106965804D01*
X95404729Y-106967697D01*
X95182144Y-107104097D01*
X94983637Y-107273637D01*
X94814097Y-107472144D01*
X94677697Y-107694729D01*
X94675804Y-107699299D01*
X94675802Y-107699303D01*
X94639630Y-107786630D01*
X94577796Y-107935911D01*
X94576641Y-107940723D01*
X94518009Y-108184938D01*
X94518008Y-108184944D01*
X94516854Y-108189751D01*
X94496372Y-108450000D01*
X90008500Y-108450000D01*
X90008500Y-103980000D01*
X97186655Y-103980000D01*
X97206000Y-104201114D01*
X97263447Y-104415510D01*
X97265769Y-104420490D01*
X97265770Y-104420492D01*
X97354925Y-104611685D01*
X97354928Y-104611690D01*
X97357251Y-104616672D01*
X97360407Y-104621179D01*
X97360408Y-104621181D01*
X97468318Y-104775292D01*
X97484561Y-104798490D01*
X97641510Y-104955439D01*
X97646018Y-104958596D01*
X97646021Y-104958598D01*
X97721687Y-105011580D01*
X97823327Y-105082749D01*
X97828309Y-105085072D01*
X97828314Y-105085075D01*
X98019508Y-105174230D01*
X98024490Y-105176553D01*
X98029798Y-105177975D01*
X98029800Y-105177976D01*
X98233571Y-105232576D01*
X98233573Y-105232576D01*
X98238886Y-105234000D01*
X98460000Y-105253345D01*
X98681114Y-105234000D01*
X98686427Y-105232576D01*
X98686429Y-105232576D01*
X98890200Y-105177976D01*
X98890202Y-105177975D01*
X98895510Y-105176553D01*
X98900492Y-105174230D01*
X99091686Y-105085075D01*
X99091691Y-105085072D01*
X99096673Y-105082749D01*
X99198313Y-105011580D01*
X99273979Y-104958598D01*
X99273982Y-104958596D01*
X99278490Y-104955439D01*
X99435439Y-104798490D01*
X99451683Y-104775292D01*
X99502287Y-104703021D01*
X99557744Y-104658693D01*
X99628363Y-104651384D01*
X99691724Y-104683415D01*
X99727709Y-104744616D01*
X99731500Y-104775292D01*
X99731500Y-105808134D01*
X99738255Y-105870316D01*
X99789385Y-106006705D01*
X99876739Y-106123261D01*
X99993295Y-106210615D01*
X100129684Y-106261745D01*
X100191866Y-106268500D01*
X101808134Y-106268500D01*
X101870316Y-106261745D01*
X102006705Y-106210615D01*
X102123261Y-106123261D01*
X102210615Y-106006705D01*
X102261745Y-105870316D01*
X102268500Y-105808134D01*
X102268500Y-104191866D01*
X102261745Y-104129684D01*
X102210615Y-103993295D01*
X102123261Y-103876739D01*
X102078419Y-103843131D01*
X102035904Y-103786273D01*
X102030878Y-103715455D01*
X102050771Y-103670036D01*
X102099155Y-103600936D01*
X102104641Y-103591435D01*
X102193759Y-103400320D01*
X102197505Y-103390028D01*
X102252083Y-103186340D01*
X102253986Y-103175547D01*
X102272365Y-102965475D01*
X102272365Y-102954525D01*
X102253986Y-102744453D01*
X102252083Y-102733660D01*
X102197505Y-102529972D01*
X102193759Y-102519680D01*
X102104641Y-102328565D01*
X102099158Y-102319069D01*
X102068770Y-102275671D01*
X102058293Y-102267296D01*
X102044845Y-102274365D01*
X101089095Y-103230115D01*
X101026783Y-103264141D01*
X100955968Y-103259076D01*
X100910905Y-103230115D01*
X99954433Y-102273643D01*
X99942658Y-102267213D01*
X99915508Y-102288218D01*
X99913113Y-102285123D01*
X99883762Y-102308580D01*
X99813142Y-102315884D01*
X99749784Y-102283848D01*
X99713804Y-102222644D01*
X99711930Y-102170095D01*
X99712578Y-102166421D01*
X99714000Y-102161114D01*
X99714480Y-102155634D01*
X99732866Y-101945475D01*
X99733345Y-101940000D01*
X99715413Y-101735035D01*
X99714479Y-101724360D01*
X99714479Y-101724359D01*
X99714000Y-101718886D01*
X99712576Y-101713571D01*
X99712135Y-101711069D01*
X99720002Y-101640510D01*
X99764768Y-101585405D01*
X99832219Y-101563250D01*
X99900940Y-101581078D01*
X99939433Y-101616915D01*
X100010834Y-101718886D01*
X100024561Y-101738490D01*
X100181510Y-101895439D01*
X100186018Y-101898596D01*
X100186021Y-101898598D01*
X100252969Y-101945475D01*
X100363327Y-102022749D01*
X100368309Y-102025072D01*
X100368314Y-102025075D01*
X100453055Y-102064590D01*
X100488900Y-102089690D01*
X100987188Y-102587978D01*
X101001132Y-102595592D01*
X101002965Y-102595461D01*
X101009580Y-102591210D01*
X101511100Y-102089690D01*
X101546945Y-102064590D01*
X101631686Y-102025075D01*
X101631691Y-102025072D01*
X101636673Y-102022749D01*
X101747031Y-101945475D01*
X101813979Y-101898598D01*
X101813982Y-101898596D01*
X101818490Y-101895439D01*
X101975439Y-101738490D01*
X101990135Y-101717503D01*
X102099592Y-101561181D01*
X102099593Y-101561179D01*
X102102749Y-101556672D01*
X102105072Y-101551690D01*
X102105075Y-101551685D01*
X102194230Y-101360492D01*
X102194231Y-101360490D01*
X102196553Y-101355510D01*
X102202412Y-101333646D01*
X102252576Y-101146429D01*
X102252576Y-101146427D01*
X102254000Y-101141114D01*
X102273345Y-100920000D01*
X102254000Y-100698886D01*
X102240196Y-100647368D01*
X102197976Y-100489800D01*
X102197975Y-100489798D01*
X102197126Y-100486630D01*
X103292482Y-100486630D01*
X103292998Y-100492774D01*
X103306750Y-100656538D01*
X103308121Y-100672867D01*
X103359636Y-100852520D01*
X103362451Y-100857997D01*
X103425767Y-100981197D01*
X103445064Y-101018746D01*
X103448887Y-101023570D01*
X103448890Y-101023574D01*
X103479711Y-101062460D01*
X103561152Y-101165212D01*
X103565846Y-101169207D01*
X103695291Y-101279374D01*
X103703478Y-101286342D01*
X103866621Y-101377519D01*
X104044367Y-101435272D01*
X104229945Y-101457401D01*
X104236080Y-101456929D01*
X104236081Y-101456929D01*
X104265457Y-101454669D01*
X104381335Y-101445752D01*
X104450788Y-101460469D01*
X104501260Y-101510400D01*
X104517000Y-101571381D01*
X104517000Y-102278134D01*
X104523755Y-102340316D01*
X104574885Y-102476705D01*
X104662239Y-102593261D01*
X104778795Y-102680615D01*
X104915184Y-102731745D01*
X104977366Y-102738500D01*
X105111500Y-102738500D01*
X105179621Y-102758502D01*
X105226114Y-102812158D01*
X105237500Y-102864500D01*
X105237500Y-104705015D01*
X105232497Y-104740167D01*
X105194438Y-104871169D01*
X105191500Y-104908498D01*
X105191500Y-106065500D01*
X105171498Y-106133621D01*
X105117842Y-106180114D01*
X105065500Y-106191500D01*
X104833498Y-106191500D01*
X104831050Y-106191693D01*
X104831042Y-106191693D01*
X104802579Y-106193933D01*
X104802574Y-106193934D01*
X104796169Y-106194438D01*
X104696231Y-106223472D01*
X104644012Y-106238643D01*
X104644010Y-106238644D01*
X104636399Y-106240855D01*
X104629572Y-106244892D01*
X104629573Y-106244892D01*
X104500020Y-106321509D01*
X104500017Y-106321511D01*
X104493193Y-106325547D01*
X104375547Y-106443193D01*
X104371511Y-106450017D01*
X104371509Y-106450020D01*
X104308356Y-106556807D01*
X104290855Y-106586399D01*
X104288644Y-106594010D01*
X104288643Y-106594012D01*
X104287226Y-106598889D01*
X104244438Y-106746169D01*
X104243934Y-106752574D01*
X104243933Y-106752579D01*
X104242840Y-106766468D01*
X104241500Y-106783498D01*
X104241500Y-108091502D01*
X104244438Y-108128831D01*
X104262137Y-108189751D01*
X104282497Y-108259832D01*
X104287500Y-108294985D01*
X104287500Y-108482624D01*
X104286067Y-108501574D01*
X104283876Y-108515973D01*
X104283876Y-108515979D01*
X104282776Y-108523208D01*
X104283369Y-108530500D01*
X104283369Y-108530503D01*
X104287085Y-108576183D01*
X104287500Y-108586398D01*
X104287500Y-108594525D01*
X104290811Y-108622924D01*
X104291240Y-108627264D01*
X104295930Y-108684926D01*
X104295560Y-108709185D01*
X104293169Y-108730502D01*
X104292482Y-108736630D01*
X104292998Y-108742773D01*
X104303587Y-108868868D01*
X104307702Y-108917879D01*
X104307702Y-108917881D01*
X104308121Y-108922867D01*
X104307173Y-108922947D01*
X104300362Y-108988094D01*
X104272985Y-109029237D01*
X104248616Y-109053649D01*
X104175695Y-109126697D01*
X104171855Y-109132927D01*
X104171854Y-109132928D01*
X104097641Y-109253324D01*
X104082885Y-109277262D01*
X104075848Y-109298478D01*
X104031687Y-109431621D01*
X104027203Y-109445139D01*
X104016500Y-109549600D01*
X104016500Y-110150400D01*
X104027474Y-110256166D01*
X104029655Y-110262702D01*
X104029655Y-110262704D01*
X104060641Y-110355580D01*
X104083450Y-110423946D01*
X104176522Y-110574348D01*
X104301697Y-110699305D01*
X104306235Y-110702102D01*
X104346824Y-110759353D01*
X104350054Y-110830276D01*
X104314428Y-110891687D01*
X104305932Y-110899062D01*
X104295793Y-110907098D01*
X104181261Y-111021829D01*
X104172249Y-111033240D01*
X104087184Y-111171243D01*
X104081037Y-111184424D01*
X104029862Y-111338710D01*
X104026995Y-111352086D01*
X104017328Y-111446438D01*
X104017000Y-111452855D01*
X104017000Y-111477885D01*
X104021475Y-111493124D01*
X104022865Y-111494329D01*
X104030548Y-111496000D01*
X106464884Y-111496000D01*
X106480123Y-111491525D01*
X106481328Y-111490135D01*
X106482999Y-111482452D01*
X106482999Y-111461630D01*
X106917482Y-111461630D01*
X106933121Y-111647867D01*
X106984636Y-111827520D01*
X107070064Y-111993746D01*
X107073887Y-111998570D01*
X107073890Y-111998574D01*
X107162075Y-112109835D01*
X107186152Y-112140212D01*
X107190846Y-112144207D01*
X107243252Y-112188808D01*
X107328478Y-112261342D01*
X107491621Y-112352519D01*
X107669367Y-112410272D01*
X107854945Y-112432401D01*
X107861080Y-112431929D01*
X107861082Y-112431929D01*
X108035145Y-112418536D01*
X108035149Y-112418535D01*
X108041287Y-112418063D01*
X108076011Y-112408368D01*
X108107409Y-112399602D01*
X108178399Y-112400549D01*
X108230310Y-112431788D01*
X108344166Y-112545446D01*
X108344171Y-112545450D01*
X108349347Y-112550617D01*
X108498671Y-112642661D01*
X108505619Y-112644966D01*
X108505620Y-112644966D01*
X108658634Y-112695719D01*
X108658636Y-112695719D01*
X108665165Y-112697885D01*
X108768769Y-112708500D01*
X109060234Y-112708500D01*
X109356230Y-112708499D01*
X109461129Y-112697616D01*
X109467660Y-112695437D01*
X109467665Y-112695436D01*
X109620578Y-112644420D01*
X109627526Y-112642102D01*
X109776689Y-112549797D01*
X109900617Y-112425653D01*
X109902419Y-112422730D01*
X109959029Y-112382592D01*
X110029952Y-112379358D01*
X110091364Y-112414982D01*
X110096916Y-112421378D01*
X110100203Y-112426689D01*
X110224347Y-112550617D01*
X110373671Y-112642661D01*
X110380619Y-112644966D01*
X110380620Y-112644966D01*
X110533634Y-112695719D01*
X110533636Y-112695719D01*
X110540165Y-112697885D01*
X110643769Y-112708500D01*
X110935234Y-112708500D01*
X111231230Y-112708499D01*
X111336129Y-112697616D01*
X111342660Y-112695437D01*
X111342665Y-112695436D01*
X111495578Y-112644420D01*
X111502526Y-112642102D01*
X111651689Y-112549797D01*
X111775617Y-112425653D01*
X111776904Y-112426938D01*
X111827142Y-112391325D01*
X111898065Y-112388099D01*
X111907034Y-112390650D01*
X111918757Y-112394459D01*
X112044367Y-112435272D01*
X112229945Y-112457401D01*
X112236080Y-112456929D01*
X112236082Y-112456929D01*
X112292119Y-112452617D01*
X112416287Y-112443063D01*
X112596296Y-112392804D01*
X112601785Y-112390031D01*
X112601791Y-112390029D01*
X112681999Y-112349512D01*
X112763114Y-112308538D01*
X112910387Y-112193475D01*
X112914413Y-112188811D01*
X112914416Y-112188808D01*
X113028480Y-112056663D01*
X113032507Y-112051998D01*
X113049483Y-112022115D01*
X113082794Y-111963478D01*
X113133833Y-111914127D01*
X113203451Y-111900205D01*
X113269545Y-111926131D01*
X113311130Y-111983674D01*
X113317677Y-112012713D01*
X113327165Y-112104169D01*
X113330058Y-112117564D01*
X113381036Y-112270365D01*
X113387210Y-112283543D01*
X113471744Y-112420149D01*
X113480780Y-112431550D01*
X113594479Y-112545051D01*
X113605890Y-112554063D01*
X113742654Y-112638365D01*
X113755832Y-112644509D01*
X113908740Y-112695227D01*
X113922106Y-112698093D01*
X114015601Y-112707672D01*
X114022016Y-112708000D01*
X114040385Y-112708000D01*
X114055624Y-112703525D01*
X114056829Y-112702135D01*
X114058500Y-112694452D01*
X114058500Y-112689884D01*
X114566500Y-112689884D01*
X114570975Y-112705123D01*
X114572365Y-112706328D01*
X114580048Y-112707999D01*
X114602933Y-112707999D01*
X114609452Y-112707662D01*
X114704170Y-112697834D01*
X114717564Y-112694942D01*
X114870365Y-112643964D01*
X114883543Y-112637790D01*
X115020149Y-112553256D01*
X115031550Y-112544220D01*
X115145051Y-112430521D01*
X115150794Y-112423249D01*
X115208711Y-112382186D01*
X115279634Y-112378954D01*
X115341046Y-112414579D01*
X115346840Y-112421254D01*
X115350203Y-112426689D01*
X115474347Y-112550617D01*
X115623671Y-112642661D01*
X115630619Y-112644966D01*
X115630620Y-112644966D01*
X115783634Y-112695719D01*
X115783636Y-112695719D01*
X115790165Y-112697885D01*
X115893769Y-112708500D01*
X116185234Y-112708500D01*
X116481230Y-112708499D01*
X116586129Y-112697616D01*
X116592660Y-112695437D01*
X116592665Y-112695436D01*
X116745578Y-112644420D01*
X116752526Y-112642102D01*
X116901689Y-112549797D01*
X117025617Y-112425653D01*
X117117661Y-112276329D01*
X117122632Y-112261342D01*
X117170719Y-112116366D01*
X117170719Y-112116364D01*
X117172885Y-112109835D01*
X117183500Y-112006231D01*
X117183499Y-110993770D01*
X117172616Y-110888871D01*
X117170437Y-110882340D01*
X117170436Y-110882335D01*
X117119420Y-110729422D01*
X117117102Y-110722474D01*
X117024797Y-110573311D01*
X116987726Y-110536304D01*
X116905833Y-110454554D01*
X116900653Y-110449383D01*
X116894421Y-110445542D01*
X116894419Y-110445540D01*
X116822385Y-110401138D01*
X116774891Y-110348367D01*
X116762500Y-110293878D01*
X116762500Y-109031335D01*
X116782502Y-108963214D01*
X116822197Y-108924191D01*
X116824208Y-108922947D01*
X116924348Y-108860978D01*
X116940629Y-108844669D01*
X122192001Y-108844669D01*
X122192371Y-108851490D01*
X122197895Y-108902352D01*
X122201521Y-108917604D01*
X122246676Y-109038054D01*
X122255214Y-109053649D01*
X122331715Y-109155724D01*
X122344276Y-109168285D01*
X122446351Y-109244786D01*
X122461946Y-109253324D01*
X122582394Y-109298478D01*
X122597649Y-109302105D01*
X122648514Y-109307631D01*
X122655328Y-109308000D01*
X123727885Y-109308000D01*
X123743124Y-109303525D01*
X123744329Y-109302135D01*
X123746000Y-109294452D01*
X123746000Y-109289884D01*
X124254000Y-109289884D01*
X124258475Y-109305123D01*
X124259865Y-109306328D01*
X124267548Y-109307999D01*
X125344669Y-109307999D01*
X125351490Y-109307629D01*
X125402352Y-109302105D01*
X125417604Y-109298479D01*
X125538054Y-109253324D01*
X125553649Y-109244786D01*
X125655724Y-109168285D01*
X125668285Y-109155724D01*
X125744786Y-109053649D01*
X125753324Y-109038054D01*
X125798478Y-108917606D01*
X125802105Y-108902351D01*
X125807631Y-108851486D01*
X125808000Y-108844672D01*
X125808000Y-107772115D01*
X125803525Y-107756876D01*
X125802135Y-107755671D01*
X125794452Y-107754000D01*
X124272115Y-107754000D01*
X124256876Y-107758475D01*
X124255671Y-107759865D01*
X124254000Y-107767548D01*
X124254000Y-109289884D01*
X123746000Y-109289884D01*
X123746000Y-107772115D01*
X123741525Y-107756876D01*
X123740135Y-107755671D01*
X123732452Y-107754000D01*
X122210116Y-107754000D01*
X122194877Y-107758475D01*
X122193672Y-107759865D01*
X122192001Y-107767548D01*
X122192001Y-108844669D01*
X116940629Y-108844669D01*
X117049305Y-108735803D01*
X117053146Y-108729572D01*
X117138275Y-108591468D01*
X117138276Y-108591466D01*
X117142115Y-108585238D01*
X117173041Y-108491998D01*
X117195632Y-108423889D01*
X117195632Y-108423887D01*
X117197797Y-108417361D01*
X117208500Y-108312900D01*
X117208500Y-107687100D01*
X117208163Y-107683850D01*
X117198238Y-107588192D01*
X117198237Y-107588188D01*
X117197526Y-107581334D01*
X117141550Y-107413554D01*
X117048478Y-107263152D01*
X117013149Y-107227885D01*
X122192000Y-107227885D01*
X122196475Y-107243124D01*
X122197865Y-107244329D01*
X122205548Y-107246000D01*
X123727885Y-107246000D01*
X123743124Y-107241525D01*
X123744329Y-107240135D01*
X123746000Y-107232452D01*
X123746000Y-107227885D01*
X124254000Y-107227885D01*
X124258475Y-107243124D01*
X124259865Y-107244329D01*
X124267548Y-107246000D01*
X125789884Y-107246000D01*
X125805123Y-107241525D01*
X125806328Y-107240135D01*
X125807999Y-107232452D01*
X125807999Y-106155331D01*
X125807629Y-106148510D01*
X125802105Y-106097648D01*
X125798479Y-106082396D01*
X125753324Y-105961946D01*
X125744786Y-105946351D01*
X125668285Y-105844276D01*
X125655724Y-105831715D01*
X125553649Y-105755214D01*
X125538054Y-105746676D01*
X125417606Y-105701522D01*
X125402351Y-105697895D01*
X125351486Y-105692369D01*
X125344672Y-105692000D01*
X124272115Y-105692000D01*
X124256876Y-105696475D01*
X124255671Y-105697865D01*
X124254000Y-105705548D01*
X124254000Y-107227885D01*
X123746000Y-107227885D01*
X123746000Y-105710116D01*
X123741525Y-105694877D01*
X123740135Y-105693672D01*
X123732452Y-105692001D01*
X122655331Y-105692001D01*
X122648510Y-105692371D01*
X122597648Y-105697895D01*
X122582396Y-105701521D01*
X122461946Y-105746676D01*
X122446351Y-105755214D01*
X122344276Y-105831715D01*
X122331715Y-105844276D01*
X122255214Y-105946351D01*
X122246676Y-105961946D01*
X122201522Y-106082394D01*
X122197895Y-106097649D01*
X122192369Y-106148514D01*
X122192000Y-106155328D01*
X122192000Y-107227885D01*
X117013149Y-107227885D01*
X116961891Y-107176716D01*
X116927812Y-107114434D01*
X116932815Y-107043614D01*
X116961736Y-106998525D01*
X117044134Y-106915983D01*
X117049305Y-106910803D01*
X117076527Y-106866641D01*
X117138275Y-106766468D01*
X117138276Y-106766466D01*
X117142115Y-106760238D01*
X117173041Y-106666998D01*
X117195632Y-106598889D01*
X117195632Y-106598887D01*
X117197797Y-106592361D01*
X117208500Y-106487900D01*
X117208500Y-105862100D01*
X117206651Y-105844276D01*
X117198238Y-105763192D01*
X117198237Y-105763188D01*
X117197526Y-105756334D01*
X117182107Y-105710116D01*
X117143868Y-105595502D01*
X117141550Y-105588554D01*
X117048478Y-105438152D01*
X116923303Y-105313195D01*
X116917071Y-105309353D01*
X116911328Y-105304818D01*
X116912257Y-105303641D01*
X116870312Y-105257042D01*
X116858882Y-105186972D01*
X116870766Y-105151151D01*
X116869270Y-105150485D01*
X116871778Y-105144851D01*
X116874821Y-105139495D01*
X116889091Y-105096600D01*
X116931867Y-104968009D01*
X116933814Y-104962157D01*
X116953998Y-104802387D01*
X116956796Y-104780241D01*
X116956797Y-104780232D01*
X116957238Y-104776738D01*
X116957611Y-104750000D01*
X116939373Y-104563999D01*
X116935419Y-104550901D01*
X116916760Y-104489103D01*
X116885355Y-104385083D01*
X116797615Y-104220066D01*
X116783862Y-104203203D01*
X116683388Y-104080010D01*
X116683385Y-104080007D01*
X116679493Y-104075235D01*
X116674744Y-104071306D01*
X116540239Y-103960034D01*
X116540236Y-103960032D01*
X116535489Y-103956105D01*
X116371089Y-103867214D01*
X116281821Y-103839581D01*
X116198441Y-103813770D01*
X116198438Y-103813769D01*
X116192554Y-103811948D01*
X116186429Y-103811304D01*
X116186428Y-103811304D01*
X116012813Y-103793056D01*
X116012812Y-103793056D01*
X116006685Y-103792412D01*
X115888087Y-103803206D01*
X115826703Y-103808792D01*
X115826702Y-103808792D01*
X115820562Y-103809351D01*
X115814648Y-103811092D01*
X115814646Y-103811092D01*
X115705785Y-103843132D01*
X115641273Y-103862119D01*
X115475647Y-103948705D01*
X115329995Y-104065813D01*
X115209862Y-104208981D01*
X115206899Y-104214370D01*
X115206896Y-104214375D01*
X115196951Y-104232466D01*
X115119826Y-104372757D01*
X115063315Y-104550901D01*
X115042482Y-104736630D01*
X115042998Y-104742774D01*
X115057122Y-104910968D01*
X115058121Y-104922867D01*
X115109636Y-105102520D01*
X115112449Y-105107994D01*
X115112452Y-105108001D01*
X115130712Y-105143530D01*
X115144060Y-105213261D01*
X115117590Y-105279138D01*
X115084950Y-105308268D01*
X115075652Y-105314022D01*
X114950695Y-105439197D01*
X114946855Y-105445427D01*
X114946854Y-105445428D01*
X114912566Y-105501054D01*
X114857885Y-105589762D01*
X114855581Y-105596709D01*
X114817966Y-105710116D01*
X114802203Y-105757639D01*
X114801503Y-105764475D01*
X114801502Y-105764478D01*
X114797379Y-105804717D01*
X114791500Y-105862100D01*
X114791500Y-106487900D01*
X114791837Y-106491146D01*
X114791837Y-106491150D01*
X114801033Y-106579775D01*
X114802474Y-106593666D01*
X114804655Y-106600202D01*
X114804655Y-106600204D01*
X114829348Y-106674217D01*
X114858450Y-106761446D01*
X114951522Y-106911848D01*
X115007469Y-106967697D01*
X115038109Y-106998284D01*
X115072188Y-107060566D01*
X115067185Y-107131386D01*
X115038264Y-107176475D01*
X114971731Y-107243124D01*
X114950695Y-107264197D01*
X114946857Y-107270424D01*
X114946854Y-107270428D01*
X114912566Y-107326054D01*
X114857885Y-107414762D01*
X114802203Y-107582639D01*
X114801503Y-107589475D01*
X114801502Y-107589478D01*
X114797091Y-107632531D01*
X114791500Y-107687100D01*
X114791500Y-108312900D01*
X114791837Y-108316146D01*
X114791837Y-108316150D01*
X114798990Y-108385083D01*
X114802474Y-108418666D01*
X114804655Y-108425202D01*
X114804655Y-108425204D01*
X114830134Y-108501574D01*
X114858450Y-108586446D01*
X114951522Y-108736848D01*
X115076697Y-108861805D01*
X115082927Y-108865645D01*
X115082928Y-108865646D01*
X115177616Y-108924013D01*
X115225110Y-108976786D01*
X115237500Y-109031273D01*
X115237500Y-110358347D01*
X115217498Y-110426468D01*
X115163842Y-110472961D01*
X115093568Y-110483065D01*
X115033408Y-110457229D01*
X115019110Y-110445937D01*
X114882346Y-110361635D01*
X114869168Y-110355491D01*
X114716260Y-110304773D01*
X114702894Y-110301907D01*
X114609399Y-110292328D01*
X114602984Y-110292000D01*
X114584615Y-110292000D01*
X114569376Y-110296475D01*
X114568171Y-110297865D01*
X114566500Y-110305548D01*
X114566500Y-112689884D01*
X114058500Y-112689884D01*
X114058500Y-110310116D01*
X114054025Y-110294877D01*
X114052635Y-110293672D01*
X114044952Y-110292001D01*
X114022067Y-110292001D01*
X114015548Y-110292338D01*
X113920830Y-110302166D01*
X113907436Y-110305058D01*
X113754635Y-110356036D01*
X113741457Y-110362210D01*
X113604851Y-110446744D01*
X113593450Y-110455780D01*
X113479949Y-110569479D01*
X113470937Y-110580890D01*
X113386635Y-110717654D01*
X113380491Y-110730832D01*
X113329773Y-110883740D01*
X113326907Y-110897107D01*
X113317719Y-110986777D01*
X113290877Y-111052505D01*
X113232762Y-111093286D01*
X113161824Y-111096174D01*
X113100586Y-111060252D01*
X113081123Y-111033086D01*
X113050511Y-110975511D01*
X113050507Y-110975504D01*
X113047615Y-110970066D01*
X113018185Y-110933981D01*
X112933388Y-110830010D01*
X112933385Y-110830007D01*
X112929493Y-110825235D01*
X112887884Y-110790813D01*
X112790239Y-110710034D01*
X112790236Y-110710032D01*
X112785489Y-110706105D01*
X112621089Y-110617214D01*
X112503746Y-110580890D01*
X112448441Y-110563770D01*
X112448438Y-110563769D01*
X112442554Y-110561948D01*
X112436429Y-110561304D01*
X112436428Y-110561304D01*
X112262813Y-110543056D01*
X112262812Y-110543056D01*
X112256685Y-110542412D01*
X112138087Y-110553206D01*
X112076703Y-110558792D01*
X112076702Y-110558792D01*
X112070562Y-110559351D01*
X111902421Y-110608838D01*
X111831426Y-110608883D01*
X111776331Y-110571774D01*
X111774797Y-110573311D01*
X111655833Y-110454554D01*
X111650653Y-110449383D01*
X111644419Y-110445540D01*
X111609386Y-110423946D01*
X111501329Y-110357339D01*
X111494380Y-110355034D01*
X111341366Y-110304281D01*
X111341364Y-110304281D01*
X111334835Y-110302115D01*
X111231231Y-110291500D01*
X110939766Y-110291500D01*
X110643770Y-110291501D01*
X110538871Y-110302384D01*
X110532340Y-110304563D01*
X110532335Y-110304564D01*
X110401042Y-110348367D01*
X110372474Y-110357898D01*
X110223311Y-110450203D01*
X110099383Y-110574347D01*
X110097581Y-110577270D01*
X110040971Y-110617408D01*
X109970048Y-110620642D01*
X109908636Y-110585018D01*
X109903084Y-110578622D01*
X109899797Y-110573311D01*
X109862726Y-110536304D01*
X109780833Y-110454554D01*
X109775653Y-110449383D01*
X109769419Y-110445540D01*
X109734386Y-110423946D01*
X109626329Y-110357339D01*
X109619380Y-110355034D01*
X109466366Y-110304281D01*
X109466364Y-110304281D01*
X109459835Y-110302115D01*
X109356231Y-110291500D01*
X109064766Y-110291500D01*
X108768770Y-110291501D01*
X108663871Y-110302384D01*
X108657340Y-110304563D01*
X108657335Y-110304564D01*
X108526042Y-110348367D01*
X108497474Y-110357898D01*
X108348311Y-110450203D01*
X108343138Y-110455385D01*
X108269633Y-110529018D01*
X108207350Y-110563097D01*
X108143201Y-110560365D01*
X108094443Y-110545272D01*
X108073437Y-110538769D01*
X108073436Y-110538769D01*
X108067554Y-110536948D01*
X108061433Y-110536305D01*
X108061430Y-110536304D01*
X107887813Y-110518056D01*
X107887812Y-110518056D01*
X107881685Y-110517412D01*
X107763087Y-110528206D01*
X107701703Y-110533792D01*
X107701702Y-110533792D01*
X107695562Y-110534351D01*
X107689648Y-110536092D01*
X107689646Y-110536092D01*
X107584386Y-110567072D01*
X107516273Y-110587119D01*
X107510808Y-110589976D01*
X107398591Y-110648641D01*
X107350647Y-110673705D01*
X107204995Y-110790813D01*
X107084862Y-110933981D01*
X107081899Y-110939370D01*
X107081896Y-110939375D01*
X107036567Y-111021829D01*
X106994826Y-111097757D01*
X106938315Y-111275901D01*
X106917482Y-111461630D01*
X106482999Y-111461630D01*
X106482999Y-111452905D01*
X106482662Y-111446386D01*
X106472743Y-111350794D01*
X106469851Y-111337400D01*
X106418412Y-111183216D01*
X106412239Y-111170038D01*
X106326937Y-111032193D01*
X106317901Y-111020792D01*
X106203172Y-110906262D01*
X106194238Y-110899206D01*
X106153177Y-110841288D01*
X106149947Y-110770365D01*
X106185574Y-110708954D01*
X106193407Y-110702154D01*
X106199348Y-110698478D01*
X106324305Y-110573303D01*
X106347242Y-110536092D01*
X106413275Y-110428968D01*
X106413276Y-110428966D01*
X106417115Y-110422738D01*
X106455985Y-110305548D01*
X106470632Y-110261389D01*
X106470632Y-110261387D01*
X106472797Y-110254861D01*
X106483500Y-110150400D01*
X106483500Y-109549600D01*
X106480299Y-109518746D01*
X106473238Y-109450692D01*
X106473237Y-109450688D01*
X106472526Y-109443834D01*
X106468452Y-109431621D01*
X106418868Y-109283002D01*
X106416550Y-109276054D01*
X106323478Y-109125652D01*
X106224846Y-109027192D01*
X106190767Y-108964910D01*
X106188858Y-108922227D01*
X106189458Y-108917482D01*
X106201103Y-108825299D01*
X106206796Y-108780240D01*
X106206797Y-108780233D01*
X106207238Y-108776738D01*
X106207611Y-108750000D01*
X106206829Y-108742021D01*
X106199401Y-108666264D01*
X106212661Y-108596517D01*
X106261524Y-108545010D01*
X106330476Y-108528097D01*
X106392422Y-108550881D01*
X106393502Y-108549055D01*
X106529779Y-108629648D01*
X106544210Y-108635893D01*
X106678605Y-108674939D01*
X106692706Y-108674899D01*
X106696000Y-108667630D01*
X106696000Y-107709615D01*
X106691525Y-107694376D01*
X106690135Y-107693171D01*
X106682452Y-107691500D01*
X106160116Y-107691500D01*
X106144877Y-107695975D01*
X106143672Y-107697365D01*
X106142001Y-107705048D01*
X106142001Y-107984386D01*
X106121999Y-108052507D01*
X106068343Y-108099000D01*
X105998069Y-108109104D01*
X105933489Y-108079610D01*
X105931693Y-108077932D01*
X105929493Y-108075235D01*
X105904185Y-108054299D01*
X105864447Y-107995467D01*
X105858500Y-107957214D01*
X105858500Y-106934500D01*
X105878502Y-106866379D01*
X105932158Y-106819886D01*
X105984500Y-106808500D01*
X106016000Y-106808500D01*
X106084121Y-106828502D01*
X106130614Y-106882158D01*
X106142000Y-106934500D01*
X106142000Y-107165385D01*
X106146475Y-107180624D01*
X106147865Y-107181829D01*
X106155548Y-107183500D01*
X107078000Y-107183500D01*
X107146121Y-107203502D01*
X107192614Y-107257158D01*
X107204000Y-107309500D01*
X107204000Y-108661878D01*
X107207973Y-108675409D01*
X107215871Y-108676544D01*
X107355790Y-108635893D01*
X107370221Y-108629648D01*
X107499678Y-108553089D01*
X107512104Y-108543449D01*
X107618449Y-108437104D01*
X107628091Y-108424675D01*
X107652676Y-108383102D01*
X107704568Y-108334649D01*
X107774418Y-108321943D01*
X107840050Y-108349017D01*
X107859875Y-108368975D01*
X107936152Y-108465212D01*
X107940846Y-108469207D01*
X107974370Y-108497738D01*
X108078478Y-108586342D01*
X108241621Y-108677519D01*
X108419367Y-108735272D01*
X108604945Y-108757401D01*
X108611080Y-108756929D01*
X108611082Y-108756929D01*
X108667119Y-108752617D01*
X108791287Y-108743063D01*
X108797215Y-108741408D01*
X108797220Y-108741407D01*
X108919017Y-108707401D01*
X108990007Y-108708348D01*
X109041917Y-108739586D01*
X109070416Y-108768035D01*
X109076697Y-108774305D01*
X109082927Y-108778145D01*
X109082928Y-108778146D01*
X109220090Y-108862694D01*
X109227262Y-108867115D01*
X109307005Y-108893564D01*
X109388611Y-108920632D01*
X109388613Y-108920632D01*
X109395139Y-108922797D01*
X109401975Y-108923497D01*
X109401978Y-108923498D01*
X109445031Y-108927909D01*
X109499600Y-108933500D01*
X110500400Y-108933500D01*
X110503646Y-108933163D01*
X110503650Y-108933163D01*
X110599308Y-108923238D01*
X110599312Y-108923237D01*
X110606166Y-108922526D01*
X110612702Y-108920345D01*
X110612704Y-108920345D01*
X110744806Y-108876272D01*
X110773946Y-108866550D01*
X110924348Y-108773478D01*
X111049305Y-108648303D01*
X111080212Y-108598163D01*
X111138275Y-108503968D01*
X111138276Y-108503966D01*
X111142115Y-108497738D01*
X111197797Y-108329861D01*
X111198609Y-108321943D01*
X111208172Y-108228598D01*
X111208500Y-108225400D01*
X111791500Y-108225400D01*
X111791837Y-108228646D01*
X111791837Y-108228650D01*
X111800911Y-108316098D01*
X111802474Y-108331166D01*
X111804655Y-108337702D01*
X111804655Y-108337704D01*
X111815088Y-108368975D01*
X111858450Y-108498946D01*
X111951522Y-108649348D01*
X111956704Y-108654521D01*
X112024381Y-108722081D01*
X112058460Y-108784364D01*
X112060578Y-108825299D01*
X112045010Y-108964089D01*
X112042482Y-108986630D01*
X112058121Y-109172867D01*
X112109636Y-109352520D01*
X112195064Y-109518746D01*
X112198887Y-109523570D01*
X112198890Y-109523574D01*
X112282907Y-109629576D01*
X112311152Y-109665212D01*
X112315846Y-109669207D01*
X112348819Y-109697269D01*
X112453478Y-109786342D01*
X112616621Y-109877519D01*
X112794367Y-109935272D01*
X112979945Y-109957401D01*
X112986080Y-109956929D01*
X112986082Y-109956929D01*
X113042119Y-109952617D01*
X113166287Y-109943063D01*
X113346296Y-109892804D01*
X113351785Y-109890031D01*
X113351791Y-109890029D01*
X113429159Y-109850947D01*
X113513114Y-109808538D01*
X113533403Y-109792687D01*
X113565486Y-109767621D01*
X113660387Y-109693475D01*
X113664413Y-109688811D01*
X113664416Y-109688808D01*
X113778480Y-109556663D01*
X113782507Y-109551998D01*
X113839326Y-109451978D01*
X113871778Y-109394852D01*
X113871779Y-109394851D01*
X113874821Y-109389495D01*
X113889091Y-109346600D01*
X113914229Y-109271032D01*
X113933814Y-109212157D01*
X113943823Y-109132928D01*
X113956796Y-109030241D01*
X113956797Y-109030232D01*
X113957238Y-109026738D01*
X113957611Y-109000000D01*
X113943979Y-108860978D01*
X113940217Y-108822606D01*
X113953476Y-108752858D01*
X113976443Y-108721292D01*
X114044134Y-108653483D01*
X114049305Y-108648303D01*
X114080212Y-108598163D01*
X114138275Y-108503968D01*
X114138276Y-108503966D01*
X114142115Y-108497738D01*
X114197797Y-108329861D01*
X114198609Y-108321943D01*
X114208172Y-108228598D01*
X114208500Y-108225400D01*
X114208500Y-107599600D01*
X114207450Y-107589478D01*
X114198238Y-107500692D01*
X114198237Y-107500688D01*
X114197526Y-107493834D01*
X114173061Y-107420502D01*
X114143868Y-107333002D01*
X114141550Y-107326054D01*
X114048478Y-107175652D01*
X113961891Y-107089216D01*
X113927812Y-107026934D01*
X113932815Y-106956114D01*
X113961736Y-106911025D01*
X114044134Y-106828483D01*
X114049305Y-106823303D01*
X114058430Y-106808500D01*
X114138275Y-106678968D01*
X114138276Y-106678966D01*
X114142115Y-106672738D01*
X114197797Y-106504861D01*
X114199865Y-106484683D01*
X114208172Y-106403598D01*
X114208500Y-106400400D01*
X114208500Y-105774600D01*
X114207450Y-105764478D01*
X114198238Y-105675692D01*
X114198237Y-105675688D01*
X114197526Y-105668834D01*
X114173061Y-105595502D01*
X114143868Y-105508002D01*
X114141550Y-105501054D01*
X114048478Y-105350652D01*
X113923303Y-105225695D01*
X113924909Y-105224086D01*
X113890220Y-105175164D01*
X113886985Y-105104241D01*
X113889815Y-105094422D01*
X113931867Y-104968009D01*
X113933814Y-104962157D01*
X113953998Y-104802387D01*
X113956796Y-104780241D01*
X113956797Y-104780232D01*
X113957238Y-104776738D01*
X113957611Y-104750000D01*
X113939373Y-104563999D01*
X113935419Y-104550901D01*
X113916760Y-104489103D01*
X113885355Y-104385083D01*
X113797615Y-104220066D01*
X113783862Y-104203203D01*
X113683388Y-104080010D01*
X113683385Y-104080007D01*
X113679493Y-104075235D01*
X113674744Y-104071306D01*
X113540239Y-103960034D01*
X113540236Y-103960032D01*
X113535489Y-103956105D01*
X113371089Y-103867214D01*
X113281821Y-103839581D01*
X113198441Y-103813770D01*
X113198438Y-103813769D01*
X113192554Y-103811948D01*
X113186429Y-103811304D01*
X113186428Y-103811304D01*
X113012813Y-103793056D01*
X113012812Y-103793056D01*
X113006685Y-103792412D01*
X112888087Y-103803206D01*
X112826703Y-103808792D01*
X112826702Y-103808792D01*
X112820562Y-103809351D01*
X112814648Y-103811092D01*
X112814646Y-103811092D01*
X112705785Y-103843132D01*
X112641273Y-103862119D01*
X112475647Y-103948705D01*
X112329995Y-104065813D01*
X112209862Y-104208981D01*
X112206899Y-104214370D01*
X112206896Y-104214375D01*
X112196951Y-104232466D01*
X112119826Y-104372757D01*
X112063315Y-104550901D01*
X112042482Y-104736630D01*
X112042998Y-104742774D01*
X112057122Y-104910968D01*
X112058121Y-104922867D01*
X112107939Y-105096600D01*
X112109318Y-105101410D01*
X112108868Y-105172405D01*
X112073557Y-105224431D01*
X112075652Y-105226522D01*
X111950695Y-105351697D01*
X111946855Y-105357927D01*
X111946854Y-105357928D01*
X111946751Y-105358096D01*
X111857885Y-105502262D01*
X111855581Y-105509209D01*
X111826559Y-105596709D01*
X111802203Y-105670139D01*
X111801503Y-105676975D01*
X111801502Y-105676978D01*
X111798575Y-105705548D01*
X111791500Y-105774600D01*
X111791500Y-106400400D01*
X111791837Y-106403646D01*
X111791837Y-106403650D01*
X111800911Y-106491098D01*
X111802474Y-106506166D01*
X111804655Y-106512702D01*
X111804655Y-106512704D01*
X111827032Y-106579775D01*
X111858450Y-106673946D01*
X111951522Y-106824348D01*
X111970178Y-106842971D01*
X112038109Y-106910784D01*
X112072188Y-106973066D01*
X112067185Y-107043886D01*
X112038264Y-107088975D01*
X112011473Y-107115813D01*
X111950695Y-107176697D01*
X111946855Y-107182927D01*
X111946854Y-107182928D01*
X111868834Y-107309500D01*
X111857885Y-107327262D01*
X111855581Y-107334209D01*
X111826559Y-107421709D01*
X111802203Y-107495139D01*
X111791500Y-107599600D01*
X111791500Y-108225400D01*
X111208500Y-108225400D01*
X111208500Y-107599600D01*
X111207450Y-107589478D01*
X111198238Y-107500692D01*
X111198237Y-107500688D01*
X111197526Y-107493834D01*
X111173061Y-107420502D01*
X111143868Y-107333002D01*
X111141550Y-107326054D01*
X111048478Y-107175652D01*
X110961891Y-107089216D01*
X110927812Y-107026934D01*
X110932815Y-106956114D01*
X110961736Y-106911025D01*
X111044134Y-106828483D01*
X111049305Y-106823303D01*
X111058430Y-106808500D01*
X111138275Y-106678968D01*
X111138276Y-106678966D01*
X111142115Y-106672738D01*
X111197797Y-106504861D01*
X111199865Y-106484683D01*
X111208172Y-106403598D01*
X111208500Y-106400400D01*
X111208500Y-105774600D01*
X111207450Y-105764478D01*
X111198238Y-105675692D01*
X111198237Y-105675688D01*
X111197526Y-105668834D01*
X111173061Y-105595502D01*
X111143868Y-105508002D01*
X111141550Y-105501054D01*
X111048478Y-105350652D01*
X110923303Y-105225695D01*
X110924909Y-105224086D01*
X110890220Y-105175164D01*
X110886985Y-105104241D01*
X110889815Y-105094422D01*
X110931867Y-104968009D01*
X110933814Y-104962157D01*
X110953998Y-104802387D01*
X110956796Y-104780241D01*
X110956797Y-104780232D01*
X110957238Y-104776738D01*
X110957611Y-104750000D01*
X110939373Y-104563999D01*
X110935419Y-104550901D01*
X110916760Y-104489103D01*
X110885355Y-104385083D01*
X110797615Y-104220066D01*
X110783862Y-104203203D01*
X110683388Y-104080010D01*
X110683385Y-104080007D01*
X110679493Y-104075235D01*
X110674744Y-104071306D01*
X110540239Y-103960034D01*
X110540236Y-103960032D01*
X110535489Y-103956105D01*
X110371089Y-103867214D01*
X110281821Y-103839581D01*
X110198441Y-103813770D01*
X110198438Y-103813769D01*
X110192554Y-103811948D01*
X110186429Y-103811304D01*
X110186428Y-103811304D01*
X110012813Y-103793056D01*
X110012812Y-103793056D01*
X110006685Y-103792412D01*
X109888087Y-103803206D01*
X109826703Y-103808792D01*
X109826702Y-103808792D01*
X109820562Y-103809351D01*
X109814648Y-103811092D01*
X109814646Y-103811092D01*
X109705785Y-103843132D01*
X109641273Y-103862119D01*
X109475647Y-103948705D01*
X109329995Y-104065813D01*
X109209862Y-104208981D01*
X109206899Y-104214370D01*
X109206896Y-104214375D01*
X109196951Y-104232466D01*
X109119826Y-104372757D01*
X109063315Y-104550901D01*
X109042482Y-104736630D01*
X109042998Y-104742774D01*
X109057122Y-104910968D01*
X109058121Y-104922867D01*
X109107939Y-105096600D01*
X109109318Y-105101410D01*
X109108868Y-105172405D01*
X109073557Y-105224431D01*
X109075652Y-105226522D01*
X108950695Y-105351697D01*
X108946855Y-105357927D01*
X108946854Y-105357928D01*
X108946751Y-105358096D01*
X108857885Y-105502262D01*
X108855581Y-105509209D01*
X108826559Y-105596709D01*
X108802203Y-105670139D01*
X108801503Y-105676975D01*
X108801502Y-105676978D01*
X108798575Y-105705548D01*
X108791500Y-105774600D01*
X108791500Y-106400400D01*
X108791837Y-106403646D01*
X108791837Y-106403650D01*
X108800911Y-106491098D01*
X108802474Y-106506166D01*
X108858450Y-106673946D01*
X108859810Y-106676144D01*
X108870300Y-106744390D01*
X108841436Y-106809254D01*
X108782085Y-106848216D01*
X108732244Y-106852981D01*
X108637814Y-106843056D01*
X108637812Y-106843056D01*
X108631685Y-106842412D01*
X108515555Y-106852981D01*
X108451703Y-106858792D01*
X108451702Y-106858792D01*
X108445562Y-106859351D01*
X108439648Y-106861092D01*
X108439646Y-106861092D01*
X108410433Y-106869690D01*
X108266273Y-106912119D01*
X108260808Y-106914976D01*
X108149691Y-106973066D01*
X108100647Y-106998705D01*
X108044792Y-107043614D01*
X107962951Y-107109416D01*
X107897329Y-107136513D01*
X107827474Y-107123830D01*
X107775566Y-107075394D01*
X107757999Y-107011220D01*
X107757999Y-106786017D01*
X107757805Y-106781080D01*
X107755570Y-106752664D01*
X107753270Y-106740069D01*
X107710893Y-106594210D01*
X107704646Y-106579775D01*
X107673672Y-106527399D01*
X107656213Y-106458583D01*
X107678730Y-106391252D01*
X107712609Y-106358793D01*
X107713114Y-106358538D01*
X107860387Y-106243475D01*
X107864413Y-106238811D01*
X107864416Y-106238808D01*
X107978480Y-106106663D01*
X107982507Y-106101998D01*
X108074821Y-105939495D01*
X108133814Y-105762157D01*
X108142112Y-105696475D01*
X108156796Y-105580241D01*
X108156797Y-105580232D01*
X108157238Y-105576738D01*
X108157611Y-105550000D01*
X108139373Y-105363999D01*
X108133782Y-105345479D01*
X108107081Y-105257042D01*
X108085355Y-105185083D01*
X107997615Y-105020066D01*
X107955158Y-104968009D01*
X107883388Y-104880010D01*
X107883385Y-104880007D01*
X107879493Y-104875235D01*
X107874578Y-104871169D01*
X107740239Y-104760034D01*
X107740236Y-104760032D01*
X107735489Y-104756105D01*
X107571089Y-104667214D01*
X107475903Y-104637749D01*
X107398441Y-104613770D01*
X107398438Y-104613769D01*
X107392554Y-104611948D01*
X107386429Y-104611304D01*
X107386428Y-104611304D01*
X107212813Y-104593056D01*
X107212812Y-104593056D01*
X107206685Y-104592412D01*
X107129364Y-104599449D01*
X107026703Y-104608792D01*
X107026702Y-104608792D01*
X107020562Y-104609351D01*
X107014648Y-104611092D01*
X107014646Y-104611092D01*
X106924075Y-104637749D01*
X106853079Y-104637795D01*
X106793328Y-104599449D01*
X106763794Y-104534887D01*
X106762500Y-104516876D01*
X106762500Y-102769652D01*
X106782502Y-102701531D01*
X106812935Y-102668826D01*
X106906581Y-102598642D01*
X106913761Y-102593261D01*
X107001115Y-102476705D01*
X107052245Y-102340316D01*
X107059000Y-102278134D01*
X107059000Y-102274669D01*
X109941501Y-102274669D01*
X109941871Y-102281490D01*
X109947395Y-102332352D01*
X109951021Y-102347604D01*
X109996176Y-102468054D01*
X110004714Y-102483649D01*
X110081215Y-102585724D01*
X110093776Y-102598285D01*
X110195851Y-102674786D01*
X110211446Y-102683324D01*
X110331894Y-102728478D01*
X110347149Y-102732105D01*
X110398014Y-102737631D01*
X110404828Y-102738000D01*
X110939885Y-102738000D01*
X110955124Y-102733525D01*
X110956329Y-102732135D01*
X110958000Y-102724452D01*
X110958000Y-102719884D01*
X111466000Y-102719884D01*
X111470475Y-102735123D01*
X111471865Y-102736328D01*
X111479548Y-102737999D01*
X112019169Y-102737999D01*
X112025990Y-102737629D01*
X112076852Y-102732105D01*
X112092104Y-102728479D01*
X112212554Y-102683324D01*
X112228149Y-102674786D01*
X112330224Y-102598285D01*
X112342785Y-102585724D01*
X112419286Y-102483649D01*
X112427824Y-102468054D01*
X112463636Y-102372526D01*
X122187050Y-102372526D01*
X122187274Y-102377192D01*
X122187274Y-102377197D01*
X122189179Y-102416851D01*
X122199947Y-102641019D01*
X122252388Y-102904656D01*
X122343220Y-103157646D01*
X122345432Y-103161762D01*
X122345433Y-103161765D01*
X122400442Y-103264141D01*
X122470450Y-103394431D01*
X122473241Y-103398168D01*
X122473245Y-103398175D01*
X122554887Y-103507506D01*
X122631281Y-103609810D01*
X122634590Y-103613090D01*
X122634595Y-103613096D01*
X122760852Y-103738255D01*
X122822180Y-103799050D01*
X122825942Y-103801808D01*
X122825945Y-103801811D01*
X122937927Y-103883919D01*
X123038954Y-103957995D01*
X123043089Y-103960171D01*
X123043093Y-103960173D01*
X123270864Y-104080010D01*
X123276840Y-104083154D01*
X123530613Y-104171775D01*
X123535206Y-104172647D01*
X123790109Y-104221042D01*
X123790112Y-104221042D01*
X123794698Y-104221913D01*
X123922370Y-104226929D01*
X124058625Y-104232283D01*
X124058630Y-104232283D01*
X124063293Y-104232466D01*
X124167607Y-104221042D01*
X124325844Y-104203713D01*
X124325850Y-104203712D01*
X124330497Y-104203203D01*
X124373558Y-104191866D01*
X124585918Y-104135956D01*
X124585920Y-104135955D01*
X124590441Y-104134765D01*
X124594738Y-104132919D01*
X124833120Y-104030502D01*
X124833122Y-104030501D01*
X124837414Y-104028657D01*
X124971227Y-103945851D01*
X125062017Y-103889669D01*
X125062021Y-103889666D01*
X125065990Y-103887210D01*
X125271149Y-103713530D01*
X125448382Y-103511434D01*
X125593797Y-103285361D01*
X125704199Y-103040278D01*
X125714272Y-103004561D01*
X125775893Y-102786072D01*
X125775894Y-102786069D01*
X125777163Y-102781568D01*
X125790006Y-102680615D01*
X125810688Y-102518045D01*
X125810688Y-102518041D01*
X125811086Y-102514915D01*
X125813571Y-102420000D01*
X125807649Y-102340316D01*
X125793996Y-102156592D01*
X125793996Y-102156591D01*
X125793650Y-102151937D01*
X125782020Y-102100538D01*
X125735361Y-101894331D01*
X125735360Y-101894326D01*
X125734327Y-101889763D01*
X125636902Y-101639238D01*
X125503518Y-101405864D01*
X125496925Y-101397500D01*
X125426617Y-101308315D01*
X125337105Y-101194769D01*
X125141317Y-101010591D01*
X124920457Y-100857374D01*
X124916264Y-100855306D01*
X124683564Y-100740551D01*
X124683561Y-100740550D01*
X124679376Y-100738486D01*
X124631745Y-100723239D01*
X124539061Y-100693571D01*
X124423370Y-100656538D01*
X124418763Y-100655788D01*
X124418760Y-100655787D01*
X124162674Y-100614081D01*
X124162675Y-100614081D01*
X124158063Y-100613330D01*
X124027719Y-100611624D01*
X123893961Y-100609873D01*
X123893958Y-100609873D01*
X123889284Y-100609812D01*
X123622937Y-100646060D01*
X123364874Y-100721278D01*
X123120763Y-100833815D01*
X123116854Y-100836378D01*
X122899881Y-100978631D01*
X122899876Y-100978635D01*
X122895968Y-100981197D01*
X122859443Y-101013797D01*
X122700077Y-101156037D01*
X122695426Y-101160188D01*
X122523544Y-101366854D01*
X122521121Y-101370847D01*
X122388934Y-101588684D01*
X122384096Y-101596656D01*
X122382287Y-101600970D01*
X122382285Y-101600974D01*
X122316028Y-101758980D01*
X122280148Y-101844545D01*
X122213981Y-102105077D01*
X122187050Y-102372526D01*
X112463636Y-102372526D01*
X112472978Y-102347606D01*
X112476605Y-102332351D01*
X112482131Y-102281486D01*
X112482500Y-102274672D01*
X112482500Y-102177115D01*
X112478025Y-102161876D01*
X112476635Y-102160671D01*
X112468952Y-102159000D01*
X111484115Y-102159000D01*
X111468876Y-102163475D01*
X111467671Y-102164865D01*
X111466000Y-102172548D01*
X111466000Y-102719884D01*
X110958000Y-102719884D01*
X110958000Y-102177115D01*
X110953525Y-102161876D01*
X110952135Y-102160671D01*
X110944452Y-102159000D01*
X109959616Y-102159000D01*
X109944377Y-102163475D01*
X109943172Y-102164865D01*
X109941501Y-102172548D01*
X109941501Y-102274669D01*
X107059000Y-102274669D01*
X107059000Y-101531866D01*
X107052245Y-101469684D01*
X107028320Y-101405864D01*
X107004266Y-101341699D01*
X107004264Y-101341696D01*
X107001115Y-101333295D01*
X106997773Y-101328836D01*
X106982970Y-101261152D01*
X106997567Y-101211439D01*
X107001115Y-101206705D01*
X107006790Y-101191569D01*
X107049471Y-101077715D01*
X107052245Y-101070316D01*
X107059000Y-101008134D01*
X107059000Y-100261866D01*
X107052245Y-100199684D01*
X107024750Y-100126340D01*
X107004266Y-100071699D01*
X107004264Y-100071696D01*
X107001115Y-100063295D01*
X106997773Y-100058836D01*
X106982970Y-99991152D01*
X106997567Y-99941439D01*
X107001115Y-99936705D01*
X107010318Y-99912158D01*
X107049471Y-99807715D01*
X107052245Y-99800316D01*
X107059000Y-99738134D01*
X107059000Y-98991866D01*
X107052245Y-98929684D01*
X107024035Y-98854433D01*
X107004266Y-98801699D01*
X107004264Y-98801696D01*
X107001115Y-98793295D01*
X106997773Y-98788836D01*
X106982970Y-98721152D01*
X106997567Y-98671439D01*
X107001115Y-98666705D01*
X107008159Y-98647917D01*
X107049471Y-98537715D01*
X107052245Y-98530316D01*
X107059000Y-98468134D01*
X107059000Y-97721866D01*
X107052245Y-97659684D01*
X107001115Y-97523295D01*
X106913761Y-97406739D01*
X106797205Y-97319385D01*
X106660816Y-97268255D01*
X106598634Y-97261500D01*
X104977366Y-97261500D01*
X104915184Y-97268255D01*
X104778795Y-97319385D01*
X104662239Y-97406739D01*
X104574885Y-97523295D01*
X104523755Y-97659684D01*
X104517000Y-97721866D01*
X104517000Y-98179835D01*
X104496998Y-98247956D01*
X104443342Y-98294449D01*
X104377829Y-98305145D01*
X104262813Y-98293056D01*
X104262812Y-98293056D01*
X104256685Y-98292412D01*
X104158586Y-98301340D01*
X104076703Y-98308792D01*
X104076702Y-98308792D01*
X104070562Y-98309351D01*
X104064648Y-98311092D01*
X104064646Y-98311092D01*
X103942466Y-98347052D01*
X103891273Y-98362119D01*
X103885808Y-98364976D01*
X103734213Y-98444227D01*
X103725647Y-98448705D01*
X103579995Y-98565813D01*
X103459862Y-98708981D01*
X103456899Y-98714370D01*
X103456896Y-98714375D01*
X103386896Y-98841707D01*
X103369826Y-98872757D01*
X103367965Y-98878624D01*
X103367964Y-98878626D01*
X103349275Y-98937540D01*
X103313315Y-99050901D01*
X103292482Y-99236630D01*
X103308121Y-99422867D01*
X103359636Y-99602520D01*
X103362451Y-99607997D01*
X103432077Y-99743475D01*
X103445064Y-99768746D01*
X103448891Y-99773575D01*
X103448894Y-99773579D01*
X103465959Y-99795110D01*
X103492597Y-99860920D01*
X103479426Y-99930684D01*
X103467214Y-99949114D01*
X103467304Y-99949176D01*
X103463819Y-99954266D01*
X103459862Y-99958981D01*
X103456899Y-99964370D01*
X103456896Y-99964375D01*
X103385176Y-100094835D01*
X103369826Y-100122757D01*
X103367965Y-100128624D01*
X103367964Y-100128626D01*
X103362948Y-100144438D01*
X103313315Y-100300901D01*
X103292482Y-100486630D01*
X102197126Y-100486630D01*
X102196553Y-100484490D01*
X102169049Y-100425507D01*
X102105075Y-100288315D01*
X102105072Y-100288310D01*
X102102749Y-100283328D01*
X102097082Y-100275235D01*
X101978598Y-100106021D01*
X101978596Y-100106018D01*
X101975439Y-100101510D01*
X101818490Y-99944561D01*
X101813982Y-99941404D01*
X101813979Y-99941402D01*
X101735082Y-99886158D01*
X101636673Y-99817251D01*
X101631691Y-99814928D01*
X101631686Y-99814925D01*
X101440492Y-99725770D01*
X101440491Y-99725769D01*
X101435510Y-99723447D01*
X101430202Y-99722025D01*
X101430200Y-99722024D01*
X101226429Y-99667424D01*
X101226427Y-99667424D01*
X101221114Y-99666000D01*
X101000000Y-99646655D01*
X100778886Y-99666000D01*
X100773573Y-99667424D01*
X100773571Y-99667424D01*
X100569800Y-99722024D01*
X100569798Y-99722025D01*
X100564490Y-99723447D01*
X100559510Y-99725769D01*
X100559508Y-99725770D01*
X100368315Y-99814925D01*
X100368310Y-99814928D01*
X100363328Y-99817251D01*
X100358821Y-99820407D01*
X100358819Y-99820408D01*
X100186021Y-99941402D01*
X100186018Y-99941404D01*
X100181510Y-99944561D01*
X100024561Y-100101510D01*
X100021403Y-100106020D01*
X100021398Y-100106026D01*
X99938754Y-100224055D01*
X99883297Y-100268384D01*
X99812678Y-100275693D01*
X99749318Y-100243663D01*
X99713332Y-100182462D01*
X99711455Y-100129907D01*
X99713986Y-100115552D01*
X99732365Y-99905475D01*
X99732365Y-99894525D01*
X99713986Y-99684453D01*
X99712083Y-99673660D01*
X99657505Y-99469972D01*
X99653759Y-99459680D01*
X99564641Y-99268565D01*
X99559158Y-99259069D01*
X99528770Y-99215671D01*
X99518293Y-99207296D01*
X99504845Y-99214365D01*
X98832022Y-99887188D01*
X98824408Y-99901132D01*
X98824539Y-99902965D01*
X98828790Y-99909580D01*
X99505567Y-100586357D01*
X99517342Y-100592787D01*
X99544492Y-100571782D01*
X99546887Y-100574877D01*
X99576238Y-100551420D01*
X99646858Y-100544116D01*
X99710216Y-100576152D01*
X99746196Y-100637356D01*
X99748070Y-100689905D01*
X99747422Y-100693579D01*
X99746000Y-100698886D01*
X99745522Y-100704355D01*
X99745521Y-100704358D01*
X99731901Y-100860039D01*
X99726655Y-100920000D01*
X99727134Y-100925475D01*
X99745521Y-101135634D01*
X99746000Y-101141114D01*
X99747423Y-101146425D01*
X99747865Y-101148931D01*
X99739998Y-101219490D01*
X99695232Y-101274595D01*
X99627781Y-101296750D01*
X99559060Y-101278922D01*
X99520567Y-101243085D01*
X99438598Y-101126021D01*
X99438596Y-101126018D01*
X99435439Y-101121510D01*
X99278490Y-100964561D01*
X99273982Y-100961404D01*
X99273979Y-100961402D01*
X99198313Y-100908420D01*
X99096673Y-100837251D01*
X99091691Y-100834928D01*
X99091686Y-100834925D01*
X99006945Y-100795410D01*
X98971100Y-100770310D01*
X98472812Y-100272022D01*
X98458868Y-100264408D01*
X98457035Y-100264539D01*
X98450420Y-100268790D01*
X97948900Y-100770310D01*
X97913056Y-100795409D01*
X97828320Y-100834922D01*
X97828309Y-100834928D01*
X97823328Y-100837251D01*
X97818821Y-100840407D01*
X97818819Y-100840408D01*
X97646021Y-100961402D01*
X97646018Y-100961404D01*
X97641510Y-100964561D01*
X97484561Y-101121510D01*
X97481404Y-101126018D01*
X97481402Y-101126021D01*
X97367040Y-101289348D01*
X97357251Y-101303328D01*
X97354928Y-101308310D01*
X97354925Y-101308315D01*
X97279677Y-101469684D01*
X97263447Y-101504490D01*
X97262025Y-101509798D01*
X97262024Y-101509800D01*
X97207804Y-101712152D01*
X97206000Y-101718886D01*
X97186655Y-101940000D01*
X97206000Y-102161114D01*
X97207424Y-102166427D01*
X97207424Y-102166429D01*
X97255970Y-102347604D01*
X97263447Y-102375510D01*
X97265769Y-102380490D01*
X97265770Y-102380492D01*
X97354925Y-102571685D01*
X97354928Y-102571690D01*
X97357251Y-102576672D01*
X97360407Y-102581179D01*
X97360408Y-102581181D01*
X97481399Y-102753974D01*
X97484561Y-102758490D01*
X97596976Y-102870905D01*
X97631002Y-102933217D01*
X97625937Y-103004032D01*
X97596976Y-103049095D01*
X97484561Y-103161510D01*
X97481404Y-103166018D01*
X97481402Y-103166021D01*
X97415271Y-103260466D01*
X97357251Y-103343328D01*
X97354928Y-103348310D01*
X97354925Y-103348315D01*
X97335474Y-103390028D01*
X97263447Y-103544490D01*
X97262025Y-103549798D01*
X97262024Y-103549800D01*
X97245064Y-103613096D01*
X97206000Y-103758886D01*
X97186655Y-103980000D01*
X90008500Y-103980000D01*
X90008500Y-99905475D01*
X97187635Y-99905475D01*
X97206014Y-100115547D01*
X97207917Y-100126340D01*
X97262495Y-100330028D01*
X97266241Y-100340320D01*
X97355359Y-100531435D01*
X97360842Y-100540931D01*
X97391230Y-100584329D01*
X97401707Y-100592704D01*
X97415155Y-100585635D01*
X98087978Y-99912812D01*
X98095592Y-99898868D01*
X98095461Y-99897035D01*
X98091210Y-99890420D01*
X97414433Y-99213643D01*
X97402658Y-99207213D01*
X97390643Y-99216509D01*
X97360842Y-99259069D01*
X97355359Y-99268565D01*
X97266241Y-99459680D01*
X97262495Y-99469972D01*
X97207917Y-99673660D01*
X97206014Y-99684453D01*
X97187635Y-99894525D01*
X97187635Y-99905475D01*
X90008500Y-99905475D01*
X90008500Y-98841707D01*
X97767296Y-98841707D01*
X97774365Y-98855155D01*
X98447188Y-99527978D01*
X98461132Y-99535592D01*
X98462965Y-99535461D01*
X98469580Y-99531210D01*
X99146357Y-98854433D01*
X99152787Y-98842658D01*
X99143491Y-98830643D01*
X99100931Y-98800842D01*
X99091435Y-98795359D01*
X98900320Y-98706241D01*
X98890028Y-98702495D01*
X98686340Y-98647917D01*
X98675547Y-98646014D01*
X98465475Y-98627635D01*
X98454525Y-98627635D01*
X98244453Y-98646014D01*
X98233660Y-98647917D01*
X98029972Y-98702495D01*
X98019680Y-98706241D01*
X97828565Y-98795359D01*
X97819069Y-98800842D01*
X97775671Y-98831230D01*
X97767296Y-98841707D01*
X90008500Y-98841707D01*
X90008500Y-96450000D01*
X94496372Y-96450000D01*
X94516854Y-96710249D01*
X94518008Y-96715056D01*
X94518009Y-96715062D01*
X94538342Y-96799752D01*
X94577796Y-96964089D01*
X94579689Y-96968660D01*
X94579690Y-96968662D01*
X94664275Y-97172867D01*
X94677697Y-97205271D01*
X94814097Y-97427856D01*
X94983637Y-97626363D01*
X95182144Y-97795903D01*
X95404729Y-97932303D01*
X95409299Y-97934196D01*
X95409303Y-97934198D01*
X95641338Y-98030310D01*
X95645911Y-98032204D01*
X95703396Y-98046005D01*
X95894938Y-98091991D01*
X95894944Y-98091992D01*
X95899751Y-98093146D01*
X95990884Y-98100318D01*
X96092385Y-98108307D01*
X96092394Y-98108307D01*
X96094842Y-98108500D01*
X96225158Y-98108500D01*
X96227606Y-98108307D01*
X96227615Y-98108307D01*
X96329116Y-98100318D01*
X96420249Y-98093146D01*
X96425056Y-98091992D01*
X96425062Y-98091991D01*
X96616604Y-98046005D01*
X96674089Y-98032204D01*
X96678662Y-98030310D01*
X96910697Y-97934198D01*
X96910701Y-97934196D01*
X96915271Y-97932303D01*
X97137856Y-97795903D01*
X97336363Y-97626363D01*
X97505903Y-97427856D01*
X97642303Y-97205271D01*
X97655726Y-97172867D01*
X97740310Y-96968662D01*
X97740311Y-96968660D01*
X97742204Y-96964089D01*
X97781658Y-96799752D01*
X97801991Y-96715062D01*
X97801992Y-96715056D01*
X97803146Y-96710249D01*
X97823628Y-96450000D01*
X97803146Y-96189751D01*
X97801992Y-96184944D01*
X97801991Y-96184938D01*
X97762895Y-96022095D01*
X108042001Y-96022095D01*
X108042338Y-96028614D01*
X108052257Y-96124206D01*
X108055149Y-96137600D01*
X108106588Y-96291784D01*
X108112761Y-96304962D01*
X108198063Y-96442807D01*
X108207099Y-96454208D01*
X108321829Y-96568739D01*
X108333240Y-96577751D01*
X108471243Y-96662816D01*
X108484424Y-96668963D01*
X108638710Y-96720138D01*
X108652086Y-96723005D01*
X108746438Y-96732672D01*
X108752854Y-96733000D01*
X108777885Y-96733000D01*
X108793124Y-96728525D01*
X108794329Y-96727135D01*
X108796000Y-96719452D01*
X108796000Y-96714884D01*
X109304000Y-96714884D01*
X109308475Y-96730123D01*
X109309865Y-96731328D01*
X109317548Y-96732999D01*
X109347095Y-96732999D01*
X109353614Y-96732662D01*
X109449206Y-96722743D01*
X109462600Y-96719851D01*
X109556245Y-96688609D01*
X109627195Y-96686025D01*
X109688279Y-96722209D01*
X109720103Y-96785673D01*
X109721842Y-96799751D01*
X109726886Y-96875413D01*
X109760221Y-97375436D01*
X109760500Y-97383817D01*
X109760500Y-97443490D01*
X109761873Y-97449948D01*
X109775909Y-97515986D01*
X109776818Y-97520705D01*
X109787505Y-97582482D01*
X109789452Y-97593739D01*
X109791908Y-97599874D01*
X109792288Y-97601217D01*
X109797602Y-97618696D01*
X109798003Y-97619931D01*
X109799375Y-97626385D01*
X109802058Y-97632411D01*
X109829521Y-97694094D01*
X109831392Y-97698522D01*
X109858933Y-97767330D01*
X109862606Y-97772814D01*
X109863217Y-97773972D01*
X109872061Y-97789990D01*
X109872742Y-97791169D01*
X109875427Y-97797200D01*
X109879307Y-97802541D01*
X109879308Y-97802542D01*
X109913436Y-97849515D01*
X109937500Y-97923576D01*
X109937500Y-97991629D01*
X109936425Y-98008056D01*
X109932392Y-98038726D01*
X109933132Y-98046001D01*
X109933132Y-98046005D01*
X109936962Y-98083654D01*
X109937397Y-98089092D01*
X109937500Y-98090862D01*
X109937500Y-98094525D01*
X109939456Y-98111304D01*
X109940152Y-98117272D01*
X109941000Y-98131863D01*
X109941000Y-98468134D01*
X109947755Y-98530316D01*
X109950529Y-98537715D01*
X109991842Y-98647917D01*
X109998885Y-98666705D01*
X110002227Y-98671164D01*
X110017030Y-98738848D01*
X110002433Y-98788561D01*
X109998885Y-98793295D01*
X109995736Y-98801696D01*
X109995734Y-98801699D01*
X109975965Y-98854433D01*
X109947755Y-98929684D01*
X109941000Y-98991866D01*
X109941000Y-99738134D01*
X109947755Y-99800316D01*
X109950529Y-99807715D01*
X109989683Y-99912158D01*
X109998885Y-99936705D01*
X110002227Y-99941164D01*
X110017030Y-100008848D01*
X110002433Y-100058561D01*
X109998885Y-100063295D01*
X109995736Y-100071696D01*
X109995734Y-100071699D01*
X109975250Y-100126340D01*
X109947755Y-100199684D01*
X109941000Y-100261866D01*
X109941000Y-101008134D01*
X109947755Y-101070316D01*
X109950529Y-101077715D01*
X109993211Y-101191569D01*
X109998885Y-101206705D01*
X110002471Y-101211490D01*
X110017318Y-101279374D01*
X110002149Y-101331035D01*
X109996177Y-101341942D01*
X109951022Y-101462394D01*
X109947395Y-101477649D01*
X109941869Y-101528514D01*
X109941500Y-101535328D01*
X109941500Y-101632885D01*
X109945975Y-101648124D01*
X109947365Y-101649329D01*
X109955048Y-101651000D01*
X112464384Y-101651000D01*
X112479623Y-101646525D01*
X112480828Y-101645135D01*
X112482499Y-101637452D01*
X112482499Y-101614448D01*
X112502501Y-101546327D01*
X112556157Y-101499834D01*
X112626431Y-101489730D01*
X112691756Y-101520094D01*
X112692315Y-101520653D01*
X112695178Y-101522918D01*
X112695188Y-101522927D01*
X112714711Y-101538372D01*
X112718115Y-101541163D01*
X112768472Y-101583945D01*
X112768476Y-101583948D01*
X112774051Y-101588684D01*
X112780568Y-101592012D01*
X112785632Y-101595389D01*
X112790856Y-101598616D01*
X112796600Y-101603160D01*
X112803231Y-101606259D01*
X112863082Y-101634232D01*
X112867033Y-101636163D01*
X112892817Y-101649329D01*
X112932404Y-101669543D01*
X112939519Y-101671284D01*
X112945265Y-101673421D01*
X112951048Y-101675345D01*
X112957679Y-101678444D01*
X113029557Y-101693394D01*
X113033829Y-101694361D01*
X113105112Y-101711804D01*
X113110711Y-101712151D01*
X113110715Y-101712152D01*
X113116330Y-101712500D01*
X113116328Y-101712539D01*
X113120229Y-101712772D01*
X113124588Y-101713161D01*
X113131756Y-101714652D01*
X113139073Y-101714454D01*
X113209577Y-101712546D01*
X113212986Y-101712500D01*
X113767515Y-101712500D01*
X113802667Y-101717503D01*
X113933669Y-101755562D01*
X113940074Y-101756066D01*
X113940079Y-101756067D01*
X113968542Y-101758307D01*
X113968550Y-101758307D01*
X113970998Y-101758500D01*
X114590190Y-101758500D01*
X114601181Y-101758980D01*
X114697053Y-101767374D01*
X114702639Y-101766866D01*
X114702644Y-101766866D01*
X114705853Y-101766574D01*
X114708247Y-101766356D01*
X114749788Y-101759965D01*
X114768948Y-101758500D01*
X115279002Y-101758500D01*
X115281450Y-101758307D01*
X115281458Y-101758307D01*
X115309921Y-101756067D01*
X115309926Y-101756066D01*
X115316331Y-101755562D01*
X115447333Y-101717503D01*
X115482485Y-101712500D01*
X117030742Y-101712500D01*
X117101529Y-101734683D01*
X117103478Y-101736342D01*
X117266621Y-101827519D01*
X117444367Y-101885272D01*
X117629945Y-101907401D01*
X117636080Y-101906929D01*
X117636082Y-101906929D01*
X117692119Y-101902617D01*
X117816287Y-101893063D01*
X117996296Y-101842804D01*
X118001785Y-101840031D01*
X118001791Y-101840029D01*
X118079159Y-101800947D01*
X118163114Y-101758538D01*
X118183787Y-101742387D01*
X118224638Y-101710470D01*
X118310387Y-101643475D01*
X118314413Y-101638811D01*
X118314416Y-101638808D01*
X118403776Y-101535283D01*
X118432507Y-101501998D01*
X118502139Y-101379423D01*
X118521778Y-101344852D01*
X118521779Y-101344851D01*
X118524821Y-101339495D01*
X118526884Y-101333295D01*
X118574030Y-101191569D01*
X118583814Y-101162157D01*
X118596409Y-101062460D01*
X118606796Y-100980241D01*
X118606797Y-100980232D01*
X118607238Y-100976738D01*
X118607611Y-100950000D01*
X118589373Y-100763999D01*
X118535355Y-100585083D01*
X118447615Y-100420066D01*
X118443720Y-100415290D01*
X118333388Y-100280010D01*
X118333385Y-100280007D01*
X118329493Y-100275235D01*
X118324744Y-100271306D01*
X118190239Y-100160034D01*
X118190236Y-100160032D01*
X118185489Y-100156105D01*
X118180064Y-100153172D01*
X118180060Y-100153169D01*
X118102166Y-100111051D01*
X118051757Y-100061057D01*
X118036380Y-99991745D01*
X118060916Y-99925123D01*
X118105284Y-99887750D01*
X118157618Y-99861314D01*
X118163114Y-99858538D01*
X118191524Y-99836342D01*
X118237634Y-99800316D01*
X118310387Y-99743475D01*
X118314413Y-99738811D01*
X118314416Y-99738808D01*
X118428480Y-99606663D01*
X118432507Y-99601998D01*
X118507508Y-99469972D01*
X118521778Y-99444852D01*
X118521779Y-99444851D01*
X118524821Y-99439495D01*
X118528383Y-99428789D01*
X118581867Y-99268009D01*
X118583814Y-99262157D01*
X118590755Y-99207213D01*
X118606796Y-99080241D01*
X118606797Y-99080232D01*
X118607238Y-99076738D01*
X118607611Y-99050000D01*
X118589373Y-98863999D01*
X118579480Y-98831230D01*
X118566760Y-98789103D01*
X118535355Y-98685083D01*
X118447615Y-98520066D01*
X118405260Y-98468134D01*
X118333388Y-98380010D01*
X118333385Y-98380007D01*
X118329493Y-98375235D01*
X118315388Y-98363566D01*
X118190239Y-98260034D01*
X118190236Y-98260032D01*
X118185489Y-98256105D01*
X118021089Y-98167214D01*
X117906889Y-98131863D01*
X117848441Y-98113770D01*
X117848438Y-98113769D01*
X117842554Y-98111948D01*
X117836429Y-98111304D01*
X117836428Y-98111304D01*
X117662813Y-98093056D01*
X117662812Y-98093056D01*
X117656685Y-98092412D01*
X117538087Y-98103206D01*
X117476703Y-98108792D01*
X117476702Y-98108792D01*
X117470562Y-98109351D01*
X117464648Y-98111092D01*
X117464646Y-98111092D01*
X117418934Y-98124546D01*
X117291273Y-98162119D01*
X117285808Y-98164976D01*
X117208558Y-98205361D01*
X117125647Y-98248705D01*
X117120844Y-98252567D01*
X117111977Y-98259696D01*
X117046355Y-98286793D01*
X117033025Y-98287500D01*
X115482485Y-98287500D01*
X115447332Y-98282497D01*
X115316331Y-98244438D01*
X115309926Y-98243934D01*
X115309921Y-98243933D01*
X115281458Y-98241693D01*
X115281450Y-98241693D01*
X115279002Y-98241500D01*
X113970998Y-98241500D01*
X113968550Y-98241693D01*
X113968542Y-98241693D01*
X113940079Y-98243933D01*
X113940074Y-98243934D01*
X113933669Y-98244438D01*
X113802668Y-98282497D01*
X113767515Y-98287500D01*
X113267368Y-98287500D01*
X113248420Y-98286067D01*
X113241033Y-98284943D01*
X113234024Y-98283877D01*
X113234022Y-98283877D01*
X113226792Y-98282777D01*
X113219500Y-98283370D01*
X113219497Y-98283370D01*
X113173825Y-98287085D01*
X113163611Y-98287500D01*
X113155475Y-98287500D01*
X113151840Y-98287924D01*
X113151837Y-98287924D01*
X113133835Y-98290023D01*
X113127084Y-98290810D01*
X113122713Y-98291243D01*
X113111701Y-98292138D01*
X113056872Y-98296597D01*
X113056869Y-98296598D01*
X113049573Y-98297191D01*
X113042611Y-98299446D01*
X113036607Y-98300646D01*
X113030660Y-98302052D01*
X113023393Y-98302899D01*
X112954388Y-98327947D01*
X112950227Y-98329375D01*
X112887391Y-98349731D01*
X112887389Y-98349732D01*
X112880425Y-98351988D01*
X112874168Y-98355785D01*
X112868587Y-98358340D01*
X112863134Y-98361071D01*
X112856259Y-98363566D01*
X112794835Y-98403837D01*
X112791155Y-98406158D01*
X112733225Y-98441310D01*
X112733220Y-98441314D01*
X112728419Y-98444227D01*
X112719995Y-98451668D01*
X112719969Y-98451638D01*
X112717041Y-98454236D01*
X112713686Y-98457041D01*
X112707565Y-98461054D01*
X112700475Y-98468539D01*
X112698699Y-98469572D01*
X112696913Y-98471065D01*
X112696657Y-98470759D01*
X112639108Y-98504238D01*
X112568181Y-98501093D01*
X112510214Y-98460101D01*
X112483611Y-98394277D01*
X112483000Y-98381888D01*
X112483000Y-97721866D01*
X112480291Y-97696930D01*
X112477098Y-97667534D01*
X112477098Y-97667532D01*
X112476245Y-97659684D01*
X112473472Y-97652285D01*
X112453017Y-97597723D01*
X112448379Y-97582482D01*
X112447949Y-97580661D01*
X112447101Y-97573393D01*
X112397061Y-97435536D01*
X112389500Y-97392545D01*
X112389500Y-97379924D01*
X112391051Y-97360213D01*
X112392142Y-97353326D01*
X112392142Y-97353324D01*
X112393174Y-97346809D01*
X112392818Y-97340000D01*
X112389673Y-97280007D01*
X112389500Y-97273413D01*
X112389500Y-97253380D01*
X112387406Y-97233455D01*
X112386889Y-97226881D01*
X112383734Y-97166680D01*
X112383734Y-97166677D01*
X112383388Y-97160084D01*
X112379876Y-97146976D01*
X112376275Y-97127543D01*
X112375547Y-97120618D01*
X112375545Y-97120609D01*
X112374855Y-97114044D01*
X112354180Y-97050412D01*
X112352311Y-97044104D01*
X112334994Y-96979475D01*
X112331998Y-96973595D01*
X112331996Y-96973590D01*
X112328834Y-96967385D01*
X112321269Y-96949121D01*
X112319119Y-96942504D01*
X112319117Y-96942499D01*
X112317075Y-96936215D01*
X112283624Y-96878276D01*
X112280477Y-96872480D01*
X112250192Y-96813043D01*
X112237088Y-96743267D01*
X112238359Y-96734040D01*
X112241118Y-96718331D01*
X112242261Y-96711826D01*
X112241369Y-96686735D01*
X112241159Y-96680831D01*
X112241559Y-96665361D01*
X112244265Y-96634474D01*
X112243256Y-96626243D01*
X112238235Y-96585323D01*
X112237377Y-96574458D01*
X112235852Y-96531565D01*
X112235852Y-96531563D01*
X112235617Y-96524963D01*
X112215167Y-96443164D01*
X112214632Y-96440936D01*
X112202884Y-96390029D01*
X112112970Y-96000400D01*
X113066500Y-96000400D01*
X113066837Y-96003646D01*
X113066837Y-96003650D01*
X113074779Y-96080188D01*
X113077474Y-96106166D01*
X113079655Y-96112702D01*
X113079655Y-96112704D01*
X113087961Y-96137600D01*
X113133450Y-96273946D01*
X113226522Y-96424348D01*
X113231704Y-96429521D01*
X113231708Y-96429526D01*
X113283719Y-96481446D01*
X113317799Y-96543728D01*
X113319329Y-96560785D01*
X113320276Y-96560708D01*
X113324585Y-96613683D01*
X113325000Y-96623898D01*
X113325000Y-96632025D01*
X113328311Y-96660424D01*
X113328738Y-96664744D01*
X113334691Y-96737926D01*
X113336947Y-96744888D01*
X113338143Y-96750876D01*
X113339551Y-96756833D01*
X113340399Y-96764107D01*
X113342897Y-96770989D01*
X113342898Y-96770993D01*
X113365445Y-96833107D01*
X113366855Y-96837211D01*
X113389487Y-96907075D01*
X113393287Y-96913338D01*
X113395825Y-96918880D01*
X113398567Y-96924356D01*
X113401066Y-96931241D01*
X113405081Y-96937365D01*
X113441315Y-96992632D01*
X113443630Y-96996300D01*
X113481727Y-97059081D01*
X113485441Y-97063286D01*
X113485443Y-97063289D01*
X113489167Y-97067505D01*
X113489138Y-97067531D01*
X113491737Y-97070461D01*
X113494542Y-97073816D01*
X113498554Y-97079935D01*
X113503867Y-97084968D01*
X113520896Y-97101099D01*
X113556595Y-97162467D01*
X113557667Y-97167461D01*
X113558121Y-97172867D01*
X113609636Y-97352520D01*
X113695064Y-97518746D01*
X113698887Y-97523570D01*
X113698890Y-97523574D01*
X113780378Y-97626385D01*
X113811152Y-97665212D01*
X113815846Y-97669207D01*
X113947856Y-97781557D01*
X113953478Y-97786342D01*
X114116621Y-97877519D01*
X114294367Y-97935272D01*
X114479945Y-97957401D01*
X114486080Y-97956929D01*
X114486082Y-97956929D01*
X114542119Y-97952617D01*
X114666287Y-97943063D01*
X114846296Y-97892804D01*
X114851785Y-97890031D01*
X114851791Y-97890029D01*
X114931993Y-97849515D01*
X115013114Y-97808538D01*
X115020789Y-97802542D01*
X115073702Y-97761201D01*
X115160387Y-97693475D01*
X115164413Y-97688811D01*
X115164416Y-97688808D01*
X115269976Y-97566515D01*
X115282507Y-97551998D01*
X115349019Y-97434915D01*
X115371778Y-97394852D01*
X115371779Y-97394851D01*
X115374821Y-97389495D01*
X115389091Y-97346600D01*
X115407079Y-97292526D01*
X122187050Y-97292526D01*
X122187274Y-97297192D01*
X122187274Y-97297197D01*
X122191248Y-97379924D01*
X122199947Y-97561019D01*
X122252388Y-97824656D01*
X122343220Y-98077646D01*
X122345432Y-98081762D01*
X122345433Y-98081765D01*
X122431366Y-98241693D01*
X122470450Y-98314431D01*
X122473241Y-98318168D01*
X122473245Y-98318175D01*
X122582674Y-98464717D01*
X122631281Y-98529810D01*
X122634590Y-98533090D01*
X122634595Y-98533096D01*
X122812023Y-98708981D01*
X122822180Y-98719050D01*
X122825942Y-98721808D01*
X122825945Y-98721811D01*
X122933730Y-98800842D01*
X123038954Y-98877995D01*
X123043089Y-98880171D01*
X123043093Y-98880173D01*
X123272698Y-99000975D01*
X123276840Y-99003154D01*
X123396761Y-99045032D01*
X123497585Y-99080241D01*
X123530613Y-99091775D01*
X123535206Y-99092647D01*
X123790109Y-99141042D01*
X123790112Y-99141042D01*
X123794698Y-99141913D01*
X123922370Y-99146929D01*
X124058625Y-99152283D01*
X124058630Y-99152283D01*
X124063293Y-99152466D01*
X124167607Y-99141042D01*
X124325844Y-99123713D01*
X124325850Y-99123712D01*
X124330497Y-99123203D01*
X124335021Y-99122012D01*
X124585918Y-99055956D01*
X124585920Y-99055955D01*
X124590441Y-99054765D01*
X124613095Y-99045032D01*
X124833120Y-98950502D01*
X124833122Y-98950501D01*
X124837414Y-98948657D01*
X124960067Y-98872757D01*
X125062017Y-98809669D01*
X125062021Y-98809666D01*
X125065990Y-98807210D01*
X125271149Y-98633530D01*
X125448382Y-98431434D01*
X125465376Y-98405015D01*
X125591269Y-98209291D01*
X125593797Y-98205361D01*
X125704199Y-97960278D01*
X125732733Y-97859106D01*
X125775893Y-97706072D01*
X125775894Y-97706069D01*
X125777163Y-97701568D01*
X125791709Y-97587226D01*
X125810688Y-97438045D01*
X125810688Y-97438041D01*
X125811086Y-97434915D01*
X125811173Y-97431621D01*
X125813243Y-97352520D01*
X125813571Y-97340000D01*
X125799727Y-97153706D01*
X125793996Y-97076592D01*
X125793996Y-97076591D01*
X125793650Y-97071937D01*
X125792619Y-97067379D01*
X125735361Y-96814331D01*
X125735360Y-96814326D01*
X125734327Y-96809763D01*
X125636902Y-96559238D01*
X125503518Y-96325864D01*
X125489860Y-96308538D01*
X125399151Y-96193475D01*
X125337105Y-96114769D01*
X125141317Y-95930591D01*
X124920457Y-95777374D01*
X124909793Y-95772115D01*
X124683564Y-95660551D01*
X124683561Y-95660550D01*
X124679376Y-95658486D01*
X124631745Y-95643239D01*
X124544997Y-95615471D01*
X124423370Y-95576538D01*
X124418763Y-95575788D01*
X124418760Y-95575787D01*
X124211846Y-95542089D01*
X124158063Y-95533330D01*
X124027719Y-95531624D01*
X123893961Y-95529873D01*
X123893958Y-95529873D01*
X123889284Y-95529812D01*
X123622937Y-95566060D01*
X123364874Y-95641278D01*
X123120763Y-95753815D01*
X123111535Y-95759865D01*
X122899881Y-95898631D01*
X122899876Y-95898635D01*
X122895968Y-95901197D01*
X122851683Y-95940723D01*
X122760514Y-96022095D01*
X122695426Y-96080188D01*
X122523544Y-96286854D01*
X122384096Y-96516656D01*
X122382287Y-96520970D01*
X122382285Y-96520974D01*
X122302916Y-96710249D01*
X122280148Y-96764545D01*
X122213981Y-97025077D01*
X122187050Y-97292526D01*
X115407079Y-97292526D01*
X115414230Y-97271029D01*
X115433814Y-97212157D01*
X115451634Y-97071099D01*
X115456796Y-97030241D01*
X115456797Y-97030232D01*
X115457238Y-97026738D01*
X115457611Y-97000000D01*
X115442333Y-96844190D01*
X115455592Y-96774444D01*
X115504455Y-96722936D01*
X115580573Y-96706551D01*
X115596397Y-96708172D01*
X115596400Y-96708172D01*
X115599600Y-96708500D01*
X116225400Y-96708500D01*
X116228646Y-96708163D01*
X116228650Y-96708163D01*
X116324308Y-96698238D01*
X116324312Y-96698237D01*
X116331166Y-96697526D01*
X116337702Y-96695345D01*
X116337704Y-96695345D01*
X116491998Y-96643868D01*
X116498946Y-96641550D01*
X116649348Y-96548478D01*
X116774305Y-96423303D01*
X116775985Y-96424981D01*
X116824629Y-96390503D01*
X116895553Y-96387282D01*
X116904513Y-96389831D01*
X116918757Y-96394459D01*
X117044367Y-96435272D01*
X117229945Y-96457401D01*
X117236080Y-96456929D01*
X117236082Y-96456929D01*
X117292119Y-96452617D01*
X117416287Y-96443063D01*
X117596296Y-96392804D01*
X117601785Y-96390031D01*
X117601791Y-96390029D01*
X117680980Y-96350027D01*
X117763114Y-96308538D01*
X117785086Y-96291372D01*
X117823259Y-96261547D01*
X117910387Y-96193475D01*
X117914413Y-96188811D01*
X117914416Y-96188808D01*
X118008174Y-96080188D01*
X118032507Y-96051998D01*
X118116403Y-95904314D01*
X118121778Y-95894852D01*
X118121779Y-95894851D01*
X118124821Y-95889495D01*
X118183814Y-95712157D01*
X118190774Y-95657063D01*
X118206796Y-95530241D01*
X118206797Y-95530232D01*
X118207238Y-95526738D01*
X118207611Y-95500000D01*
X118189373Y-95313999D01*
X118135355Y-95135083D01*
X118047615Y-94970066D01*
X118043720Y-94965290D01*
X117933388Y-94830010D01*
X117933385Y-94830007D01*
X117929493Y-94825235D01*
X117924744Y-94821306D01*
X117790239Y-94710034D01*
X117790236Y-94710032D01*
X117785489Y-94706105D01*
X117621089Y-94617214D01*
X117510329Y-94582928D01*
X117448441Y-94563770D01*
X117448438Y-94563769D01*
X117442554Y-94561948D01*
X117436429Y-94561304D01*
X117436428Y-94561304D01*
X117262813Y-94543056D01*
X117262812Y-94543056D01*
X117256685Y-94542412D01*
X117154663Y-94551697D01*
X117076703Y-94558792D01*
X117076702Y-94558792D01*
X117070562Y-94559351D01*
X117064648Y-94561092D01*
X117064646Y-94561092D01*
X116899849Y-94609595D01*
X116828853Y-94609641D01*
X116775452Y-94573674D01*
X116773478Y-94575652D01*
X116736025Y-94538264D01*
X116648303Y-94450695D01*
X116617494Y-94431704D01*
X116503968Y-94361725D01*
X116503966Y-94361724D01*
X116497738Y-94357885D01*
X116337254Y-94304655D01*
X116336389Y-94304368D01*
X116336387Y-94304368D01*
X116329861Y-94302203D01*
X116323025Y-94301503D01*
X116323022Y-94301502D01*
X116279969Y-94297091D01*
X116225400Y-94291500D01*
X115599600Y-94291500D01*
X115596354Y-94291837D01*
X115596350Y-94291837D01*
X115500692Y-94301762D01*
X115500688Y-94301763D01*
X115493834Y-94302474D01*
X115487298Y-94304655D01*
X115487296Y-94304655D01*
X115389796Y-94337184D01*
X115326054Y-94358450D01*
X115175652Y-94451522D01*
X115170479Y-94456704D01*
X115089216Y-94538109D01*
X115026934Y-94572188D01*
X114956114Y-94567185D01*
X114911025Y-94538264D01*
X114828483Y-94455866D01*
X114823303Y-94450695D01*
X114792494Y-94431704D01*
X114678968Y-94361725D01*
X114678966Y-94361724D01*
X114672738Y-94357885D01*
X114512254Y-94304655D01*
X114511389Y-94304368D01*
X114511387Y-94304368D01*
X114504861Y-94302203D01*
X114498025Y-94301503D01*
X114498022Y-94301502D01*
X114454969Y-94297091D01*
X114400400Y-94291500D01*
X113774600Y-94291500D01*
X113771354Y-94291837D01*
X113771350Y-94291837D01*
X113675692Y-94301762D01*
X113675688Y-94301763D01*
X113668834Y-94302474D01*
X113662298Y-94304655D01*
X113662296Y-94304655D01*
X113564796Y-94337184D01*
X113501054Y-94358450D01*
X113350652Y-94451522D01*
X113225695Y-94576697D01*
X113221855Y-94582927D01*
X113221854Y-94582928D01*
X113143505Y-94710034D01*
X113132885Y-94727262D01*
X113077203Y-94895139D01*
X113066500Y-94999600D01*
X113066500Y-96000400D01*
X112112970Y-96000400D01*
X112074006Y-95831556D01*
X112072450Y-95823679D01*
X112063606Y-95769903D01*
X112063606Y-95769901D01*
X112062534Y-95763386D01*
X112036070Y-95695650D01*
X112034299Y-95690827D01*
X112023167Y-95658486D01*
X112010637Y-95622087D01*
X112006660Y-95615467D01*
X111997303Y-95596424D01*
X111996894Y-95595377D01*
X111994491Y-95589226D01*
X111979238Y-95566041D01*
X111958500Y-95496789D01*
X111958500Y-94974600D01*
X111950965Y-94901978D01*
X111948238Y-94875692D01*
X111948237Y-94875688D01*
X111947526Y-94868834D01*
X111931670Y-94821306D01*
X111893868Y-94708002D01*
X111891550Y-94701054D01*
X111798478Y-94550652D01*
X111673303Y-94425695D01*
X111667072Y-94421854D01*
X111528968Y-94336725D01*
X111528966Y-94336724D01*
X111522738Y-94332885D01*
X111428121Y-94301502D01*
X111361389Y-94279368D01*
X111361387Y-94279368D01*
X111354861Y-94277203D01*
X111348025Y-94276503D01*
X111348022Y-94276502D01*
X111304969Y-94272091D01*
X111250400Y-94266500D01*
X110649600Y-94266500D01*
X110646354Y-94266837D01*
X110646350Y-94266837D01*
X110550692Y-94276762D01*
X110550688Y-94276763D01*
X110543834Y-94277474D01*
X110537298Y-94279655D01*
X110537296Y-94279655D01*
X110471034Y-94301762D01*
X110376054Y-94333450D01*
X110225652Y-94426522D01*
X110100695Y-94551697D01*
X110097898Y-94556235D01*
X110040647Y-94596824D01*
X109969724Y-94600054D01*
X109908313Y-94564428D01*
X109900938Y-94555932D01*
X109892902Y-94545793D01*
X109778171Y-94431261D01*
X109766760Y-94422249D01*
X109628757Y-94337184D01*
X109615576Y-94331037D01*
X109461290Y-94279862D01*
X109447914Y-94276995D01*
X109353562Y-94267328D01*
X109347145Y-94267000D01*
X109322115Y-94267000D01*
X109306876Y-94271475D01*
X109305671Y-94272865D01*
X109304000Y-94280548D01*
X109304000Y-96714884D01*
X108796000Y-96714884D01*
X108796000Y-95772115D01*
X108791525Y-95756876D01*
X108790135Y-95755671D01*
X108782452Y-95754000D01*
X108060116Y-95754000D01*
X108044877Y-95758475D01*
X108043672Y-95759865D01*
X108042001Y-95767548D01*
X108042001Y-96022095D01*
X97762895Y-96022095D01*
X97758467Y-96003650D01*
X97742204Y-95935911D01*
X97740310Y-95931338D01*
X97644198Y-95699303D01*
X97644196Y-95699299D01*
X97642303Y-95694729D01*
X97505903Y-95472144D01*
X97336363Y-95273637D01*
X97282794Y-95227885D01*
X108042000Y-95227885D01*
X108046475Y-95243124D01*
X108047865Y-95244329D01*
X108055548Y-95246000D01*
X108777885Y-95246000D01*
X108793124Y-95241525D01*
X108794329Y-95240135D01*
X108796000Y-95232452D01*
X108796000Y-94285116D01*
X108791525Y-94269877D01*
X108790135Y-94268672D01*
X108782452Y-94267001D01*
X108752905Y-94267001D01*
X108746386Y-94267338D01*
X108650794Y-94277257D01*
X108637400Y-94280149D01*
X108483216Y-94331588D01*
X108470038Y-94337761D01*
X108332193Y-94423063D01*
X108320792Y-94432099D01*
X108206261Y-94546829D01*
X108197249Y-94558240D01*
X108112184Y-94696243D01*
X108106037Y-94709424D01*
X108054862Y-94863710D01*
X108051995Y-94877086D01*
X108042328Y-94971438D01*
X108042000Y-94977855D01*
X108042000Y-95227885D01*
X97282794Y-95227885D01*
X97137856Y-95104097D01*
X96915271Y-94967697D01*
X96910701Y-94965804D01*
X96910697Y-94965802D01*
X96678662Y-94869690D01*
X96678660Y-94869689D01*
X96674089Y-94867796D01*
X96585069Y-94846424D01*
X96425062Y-94808009D01*
X96425056Y-94808008D01*
X96420249Y-94806854D01*
X96329116Y-94799682D01*
X96227615Y-94791693D01*
X96227606Y-94791693D01*
X96225158Y-94791500D01*
X96094842Y-94791500D01*
X96092394Y-94791693D01*
X96092385Y-94791693D01*
X95990884Y-94799682D01*
X95899751Y-94806854D01*
X95894944Y-94808008D01*
X95894938Y-94808009D01*
X95734931Y-94846424D01*
X95645911Y-94867796D01*
X95641340Y-94869689D01*
X95641338Y-94869690D01*
X95409303Y-94965802D01*
X95409299Y-94965804D01*
X95404729Y-94967697D01*
X95182144Y-95104097D01*
X94983637Y-95273637D01*
X94814097Y-95472144D01*
X94677697Y-95694729D01*
X94675804Y-95699299D01*
X94675802Y-95699303D01*
X94579690Y-95931338D01*
X94577796Y-95935911D01*
X94561533Y-96003650D01*
X94518009Y-96184938D01*
X94518008Y-96184944D01*
X94516854Y-96189751D01*
X94496372Y-96450000D01*
X90008500Y-96450000D01*
X90008500Y-92553250D01*
X90010246Y-92532345D01*
X90012770Y-92517344D01*
X90012770Y-92517341D01*
X90013576Y-92512552D01*
X90013729Y-92500000D01*
X90012003Y-92487947D01*
X90011001Y-92461845D01*
X90024998Y-92248299D01*
X90027149Y-92231959D01*
X90074748Y-91992660D01*
X90079014Y-91976740D01*
X90157439Y-91745708D01*
X90163746Y-91730481D01*
X90271657Y-91511658D01*
X90279898Y-91497384D01*
X90415447Y-91294522D01*
X90425480Y-91281447D01*
X90586352Y-91098007D01*
X90598007Y-91086352D01*
X90781447Y-90925480D01*
X90794522Y-90915447D01*
X90997384Y-90779898D01*
X91011658Y-90771657D01*
X91230481Y-90663746D01*
X91245708Y-90657439D01*
X91392387Y-90607648D01*
X91476743Y-90579013D01*
X91492657Y-90574749D01*
X91640430Y-90545355D01*
X91731959Y-90527149D01*
X91748299Y-90524998D01*
X91889563Y-90515738D01*
X91958237Y-90511237D01*
X91981350Y-90512267D01*
X91984854Y-90512310D01*
X91993724Y-90513691D01*
X92002626Y-90512527D01*
X92002628Y-90512527D01*
X92019449Y-90510327D01*
X92025286Y-90509564D01*
X92041621Y-90508500D01*
X119004774Y-90508500D01*
X119072895Y-90528502D01*
G37*
G04 #@! TD.AperFunction*
G04 #@! TA.AperFunction,Conductor*
G36*
X113802667Y-99817503D02*
G01*
X113933669Y-99855562D01*
X113940074Y-99856066D01*
X113940079Y-99856067D01*
X113968542Y-99858307D01*
X113968550Y-99858307D01*
X113970998Y-99858500D01*
X115279002Y-99858500D01*
X115281450Y-99858307D01*
X115281458Y-99858307D01*
X115309921Y-99856067D01*
X115309926Y-99856066D01*
X115316331Y-99855562D01*
X115447333Y-99817503D01*
X115482485Y-99812500D01*
X116628000Y-99812500D01*
X116696121Y-99832502D01*
X116742614Y-99886158D01*
X116754000Y-99938500D01*
X116754000Y-100061500D01*
X116733998Y-100129621D01*
X116680342Y-100176114D01*
X116628000Y-100187500D01*
X115482485Y-100187500D01*
X115447332Y-100182497D01*
X115447212Y-100182462D01*
X115316331Y-100144438D01*
X115309926Y-100143934D01*
X115309921Y-100143933D01*
X115281458Y-100141693D01*
X115281450Y-100141693D01*
X115279002Y-100141500D01*
X113970998Y-100141500D01*
X113968550Y-100141693D01*
X113968542Y-100141693D01*
X113940079Y-100143933D01*
X113940074Y-100143934D01*
X113933669Y-100144438D01*
X113802788Y-100182462D01*
X113802668Y-100182497D01*
X113767515Y-100187500D01*
X113568028Y-100187500D01*
X113499907Y-100167498D01*
X113478933Y-100150595D01*
X113471810Y-100143472D01*
X113459424Y-100129060D01*
X113450792Y-100117331D01*
X113446454Y-100111436D01*
X113440876Y-100106697D01*
X113440874Y-100106695D01*
X113426914Y-100094835D01*
X113387950Y-100035486D01*
X113387258Y-99964493D01*
X113417021Y-99912158D01*
X113430988Y-99897414D01*
X113433366Y-99894972D01*
X113478933Y-99849405D01*
X113541245Y-99815379D01*
X113568028Y-99812500D01*
X113767515Y-99812500D01*
X113802667Y-99817503D01*
G37*
G04 #@! TD.AperFunction*
M02*
