M48
; DRILL file {KiCad (6.0.8-1)-1} date 2022 November 19, Saturday 12:38:26
; FORMAT={-:-/ absolute / metric / decimal}
; #@! TF.CreationDate,2022-11-19T12:38:26+02:00
; #@! TF.GenerationSoftware,Kicad,Pcbnew,(6.0.8-1)-1
; #@! TF.FileFunction,Plated,1,4,PTH
FMAT,2
METRIC
; #@! TA.AperFunction,Plated,PTH,ViaDrill
T1C0.330
; #@! TA.AperFunction,Plated,PTH,ViaDrill
T2C0.381
; #@! TA.AperFunction,Plated,PTH,ComponentDrill
T3C0.900
; #@! TA.AperFunction,Plated,PTH,ComponentDrill
T4C1.000
; #@! TA.AperFunction,Plated,PTH,ComponentDrill
T5C1.300
; #@! TA.AperFunction,Plated,PTH,ViaDrill
T6C2.500
; #@! TA.AperFunction,Plated,PTH,ViaDrill
T7C3.000
%
G90
G05
T1
X110.6Y-96.6
X110.65Y-97.35
X111.35Y-96.65
X111.5Y-97.35
T2
X102.45Y-103.25
X104.25Y-99.25
X104.25Y-100.5
X105.25Y-108.75
X107.2Y-105.55
X107.875Y-111.475
X108.625Y-107.8
X110.0Y-104.75
X112.25Y-111.5
X113.0Y-104.75
X113.0Y-109.0
X114.5Y-97.0
X115.05Y-100.0
X116.0Y-104.75
X117.25Y-95.5
X117.65Y-99.05
X117.65Y-100.95
T3
X98.46Y-99.9
X98.46Y-101.94
X98.46Y-103.98
X101.0Y-100.92
X101.0Y-102.96
X101.0Y-105.0
T4
X120.225Y-92.0
X122.765Y-92.0
T5
X124.0Y-97.34
X124.0Y-102.42
X124.0Y-107.5
T6
X93.0Y-93.0
X93.0Y-112.0
X131.5Y-93.0
X131.5Y-112.0
T7
X132.0Y-98.0
X132.0Y-107.0
T0
M30
