%TF.GenerationSoftware,KiCad,Pcbnew,(6.0.8-1)-1*%
%TF.CreationDate,2022-11-19T12:38:28+02:00*%
%TF.ProjectId,AidonToRS485,4169646f-6e54-46f5-9253-3438352e6b69,1*%
%TF.SameCoordinates,Original*%
%TF.FileFunction,Drillmap*%
%TF.FilePolarity,Positive*%
%FSLAX45Y45*%
G04 Gerber Fmt 4.5, Leading zero omitted, Abs format (unit mm)*
G04 Created by KiCad (PCBNEW (6.0.8-1)-1) date 2022-11-19 12:38:28*
%MOMM*%
%LPD*%
G01*
G04 APERTURE LIST*
%ADD10C,0.038100*%
%ADD11C,0.200000*%
%ADD12C,0.230000*%
G04 APERTURE END LIST*
D10*
X8950000Y-11250000D02*
G75*
G03*
X9200000Y-11500000I250000J0D01*
G01*
X8950000Y-11250000D02*
X8950000Y-9250000D01*
X13450000Y-9250000D02*
X13450000Y-11250000D01*
X13200000Y-9000000D02*
X9200000Y-9000000D01*
X9200000Y-11500000D02*
X13200000Y-11500000D01*
X13200000Y-11500000D02*
G75*
G03*
X13450000Y-11250000I0J250000D01*
G01*
X9200000Y-9000000D02*
G75*
G03*
X8950000Y-9250000I0J-250000D01*
G01*
X13450000Y-9250000D02*
G75*
G03*
X13200000Y-9000000I-250000J0D01*
G01*
D11*
D12*
X9501000Y-9530000D02*
X9731000Y-9760000D01*
X9731000Y-9530000D02*
X9501000Y-9760000D01*
X9501000Y-10730000D02*
X9731000Y-10960000D01*
X9731000Y-10730000D02*
X9501000Y-10960000D01*
D11*
X9205714Y-11812381D02*
X9205714Y-11612381D01*
X9253333Y-11612381D01*
X9281905Y-11621905D01*
X9300952Y-11640953D01*
X9310476Y-11660000D01*
X9320000Y-11698095D01*
X9320000Y-11726667D01*
X9310476Y-11764762D01*
X9300952Y-11783810D01*
X9281905Y-11802857D01*
X9253333Y-11812381D01*
X9205714Y-11812381D01*
X9405714Y-11812381D02*
X9405714Y-11679048D01*
X9405714Y-11717143D02*
X9415238Y-11698095D01*
X9424762Y-11688572D01*
X9443809Y-11679048D01*
X9462857Y-11679048D01*
X9529524Y-11812381D02*
X9529524Y-11679048D01*
X9529524Y-11612381D02*
X9520000Y-11621905D01*
X9529524Y-11631429D01*
X9539047Y-11621905D01*
X9529524Y-11612381D01*
X9529524Y-11631429D01*
X9653333Y-11812381D02*
X9634285Y-11802857D01*
X9624762Y-11783810D01*
X9624762Y-11612381D01*
X9758095Y-11812381D02*
X9739047Y-11802857D01*
X9729524Y-11783810D01*
X9729524Y-11612381D01*
X9986666Y-11812381D02*
X9986666Y-11612381D01*
X10053333Y-11755238D01*
X10120000Y-11612381D01*
X10120000Y-11812381D01*
X10300952Y-11812381D02*
X10300952Y-11707619D01*
X10291428Y-11688572D01*
X10272381Y-11679048D01*
X10234285Y-11679048D01*
X10215238Y-11688572D01*
X10300952Y-11802857D02*
X10281905Y-11812381D01*
X10234285Y-11812381D01*
X10215238Y-11802857D01*
X10205714Y-11783810D01*
X10205714Y-11764762D01*
X10215238Y-11745714D01*
X10234285Y-11736191D01*
X10281905Y-11736191D01*
X10300952Y-11726667D01*
X10396190Y-11679048D02*
X10396190Y-11879048D01*
X10396190Y-11688572D02*
X10415238Y-11679048D01*
X10453333Y-11679048D01*
X10472381Y-11688572D01*
X10481905Y-11698095D01*
X10491428Y-11717143D01*
X10491428Y-11774286D01*
X10481905Y-11793333D01*
X10472381Y-11802857D01*
X10453333Y-11812381D01*
X10415238Y-11812381D01*
X10396190Y-11802857D01*
X10577143Y-11793333D02*
X10586666Y-11802857D01*
X10577143Y-11812381D01*
X10567619Y-11802857D01*
X10577143Y-11793333D01*
X10577143Y-11812381D01*
X10577143Y-11688572D02*
X10586666Y-11698095D01*
X10577143Y-11707619D01*
X10567619Y-11698095D01*
X10577143Y-11688572D01*
X10577143Y-11707619D01*
X8748095Y-12041905D02*
X8948095Y-12241905D01*
X8948095Y-12041905D02*
X8748095Y-12241905D01*
X9196190Y-12051429D02*
X9205714Y-12041905D01*
X9224762Y-12032381D01*
X9272381Y-12032381D01*
X9291428Y-12041905D01*
X9300952Y-12051429D01*
X9310476Y-12070476D01*
X9310476Y-12089524D01*
X9300952Y-12118095D01*
X9186666Y-12232381D01*
X9310476Y-12232381D01*
X9396190Y-12213333D02*
X9405714Y-12222857D01*
X9396190Y-12232381D01*
X9386666Y-12222857D01*
X9396190Y-12213333D01*
X9396190Y-12232381D01*
X9472381Y-12032381D02*
X9596190Y-12032381D01*
X9529524Y-12108572D01*
X9558095Y-12108572D01*
X9577143Y-12118095D01*
X9586666Y-12127619D01*
X9596190Y-12146667D01*
X9596190Y-12194286D01*
X9586666Y-12213333D01*
X9577143Y-12222857D01*
X9558095Y-12232381D01*
X9500952Y-12232381D01*
X9481905Y-12222857D01*
X9472381Y-12213333D01*
X9720000Y-12032381D02*
X9739047Y-12032381D01*
X9758095Y-12041905D01*
X9767619Y-12051429D01*
X9777143Y-12070476D01*
X9786666Y-12108572D01*
X9786666Y-12156191D01*
X9777143Y-12194286D01*
X9767619Y-12213333D01*
X9758095Y-12222857D01*
X9739047Y-12232381D01*
X9720000Y-12232381D01*
X9700952Y-12222857D01*
X9691428Y-12213333D01*
X9681905Y-12194286D01*
X9672381Y-12156191D01*
X9672381Y-12108572D01*
X9681905Y-12070476D01*
X9691428Y-12051429D01*
X9700952Y-12041905D01*
X9720000Y-12032381D01*
X9910476Y-12032381D02*
X9929524Y-12032381D01*
X9948571Y-12041905D01*
X9958095Y-12051429D01*
X9967619Y-12070476D01*
X9977143Y-12108572D01*
X9977143Y-12156191D01*
X9967619Y-12194286D01*
X9958095Y-12213333D01*
X9948571Y-12222857D01*
X9929524Y-12232381D01*
X9910476Y-12232381D01*
X9891428Y-12222857D01*
X9881905Y-12213333D01*
X9872381Y-12194286D01*
X9862857Y-12156191D01*
X9862857Y-12108572D01*
X9872381Y-12070476D01*
X9881905Y-12051429D01*
X9891428Y-12041905D01*
X9910476Y-12032381D01*
X10062857Y-12232381D02*
X10062857Y-12099048D01*
X10062857Y-12118095D02*
X10072381Y-12108572D01*
X10091428Y-12099048D01*
X10120000Y-12099048D01*
X10139047Y-12108572D01*
X10148571Y-12127619D01*
X10148571Y-12232381D01*
X10148571Y-12127619D02*
X10158095Y-12108572D01*
X10177143Y-12099048D01*
X10205714Y-12099048D01*
X10224762Y-12108572D01*
X10234285Y-12127619D01*
X10234285Y-12232381D01*
X10329524Y-12232381D02*
X10329524Y-12099048D01*
X10329524Y-12118095D02*
X10339047Y-12108572D01*
X10358095Y-12099048D01*
X10386666Y-12099048D01*
X10405714Y-12108572D01*
X10415238Y-12127619D01*
X10415238Y-12232381D01*
X10415238Y-12127619D02*
X10424762Y-12108572D01*
X10443809Y-12099048D01*
X10472381Y-12099048D01*
X10491428Y-12108572D01*
X10500952Y-12127619D01*
X10500952Y-12232381D01*
X10891428Y-12022857D02*
X10720000Y-12280000D01*
X11148571Y-12032381D02*
X11167619Y-12032381D01*
X11186666Y-12041905D01*
X11196190Y-12051429D01*
X11205714Y-12070476D01*
X11215238Y-12108572D01*
X11215238Y-12156191D01*
X11205714Y-12194286D01*
X11196190Y-12213333D01*
X11186666Y-12222857D01*
X11167619Y-12232381D01*
X11148571Y-12232381D01*
X11129524Y-12222857D01*
X11120000Y-12213333D01*
X11110476Y-12194286D01*
X11100952Y-12156191D01*
X11100952Y-12108572D01*
X11110476Y-12070476D01*
X11120000Y-12051429D01*
X11129524Y-12041905D01*
X11148571Y-12032381D01*
X11300952Y-12213333D02*
X11310476Y-12222857D01*
X11300952Y-12232381D01*
X11291428Y-12222857D01*
X11300952Y-12213333D01*
X11300952Y-12232381D01*
X11434285Y-12032381D02*
X11453333Y-12032381D01*
X11472381Y-12041905D01*
X11481904Y-12051429D01*
X11491428Y-12070476D01*
X11500952Y-12108572D01*
X11500952Y-12156191D01*
X11491428Y-12194286D01*
X11481904Y-12213333D01*
X11472381Y-12222857D01*
X11453333Y-12232381D01*
X11434285Y-12232381D01*
X11415238Y-12222857D01*
X11405714Y-12213333D01*
X11396190Y-12194286D01*
X11386666Y-12156191D01*
X11386666Y-12108572D01*
X11396190Y-12070476D01*
X11405714Y-12051429D01*
X11415238Y-12041905D01*
X11434285Y-12032381D01*
X11596190Y-12232381D02*
X11634285Y-12232381D01*
X11653333Y-12222857D01*
X11662857Y-12213333D01*
X11681904Y-12184762D01*
X11691428Y-12146667D01*
X11691428Y-12070476D01*
X11681904Y-12051429D01*
X11672381Y-12041905D01*
X11653333Y-12032381D01*
X11615238Y-12032381D01*
X11596190Y-12041905D01*
X11586666Y-12051429D01*
X11577143Y-12070476D01*
X11577143Y-12118095D01*
X11586666Y-12137143D01*
X11596190Y-12146667D01*
X11615238Y-12156191D01*
X11653333Y-12156191D01*
X11672381Y-12146667D01*
X11681904Y-12137143D01*
X11691428Y-12118095D01*
X11815238Y-12032381D02*
X11834285Y-12032381D01*
X11853333Y-12041905D01*
X11862857Y-12051429D01*
X11872381Y-12070476D01*
X11881904Y-12108572D01*
X11881904Y-12156191D01*
X11872381Y-12194286D01*
X11862857Y-12213333D01*
X11853333Y-12222857D01*
X11834285Y-12232381D01*
X11815238Y-12232381D01*
X11796190Y-12222857D01*
X11786666Y-12213333D01*
X11777143Y-12194286D01*
X11767619Y-12156191D01*
X11767619Y-12108572D01*
X11777143Y-12070476D01*
X11786666Y-12051429D01*
X11796190Y-12041905D01*
X11815238Y-12032381D01*
X12053333Y-12032381D02*
X12015238Y-12032381D01*
X11996190Y-12041905D01*
X11986666Y-12051429D01*
X11967619Y-12080000D01*
X11958095Y-12118095D01*
X11958095Y-12194286D01*
X11967619Y-12213333D01*
X11977143Y-12222857D01*
X11996190Y-12232381D01*
X12034285Y-12232381D01*
X12053333Y-12222857D01*
X12062857Y-12213333D01*
X12072381Y-12194286D01*
X12072381Y-12146667D01*
X12062857Y-12127619D01*
X12053333Y-12118095D01*
X12034285Y-12108572D01*
X11996190Y-12108572D01*
X11977143Y-12118095D01*
X11967619Y-12127619D01*
X11958095Y-12146667D01*
X12148571Y-12032381D02*
X12148571Y-12070476D01*
X12224762Y-12032381D02*
X12224762Y-12070476D01*
X12520000Y-12308572D02*
X12510476Y-12299048D01*
X12491428Y-12270476D01*
X12481904Y-12251429D01*
X12472381Y-12222857D01*
X12462857Y-12175238D01*
X12462857Y-12137143D01*
X12472381Y-12089524D01*
X12481904Y-12060953D01*
X12491428Y-12041905D01*
X12510476Y-12013333D01*
X12520000Y-12003810D01*
X12586666Y-12051429D02*
X12596190Y-12041905D01*
X12615238Y-12032381D01*
X12662857Y-12032381D01*
X12681904Y-12041905D01*
X12691428Y-12051429D01*
X12700952Y-12070476D01*
X12700952Y-12089524D01*
X12691428Y-12118095D01*
X12577143Y-12232381D01*
X12700952Y-12232381D01*
X12939047Y-12232381D02*
X12939047Y-12032381D01*
X13024762Y-12232381D02*
X13024762Y-12127619D01*
X13015238Y-12108572D01*
X12996190Y-12099048D01*
X12967619Y-12099048D01*
X12948571Y-12108572D01*
X12939047Y-12118095D01*
X13148571Y-12232381D02*
X13129523Y-12222857D01*
X13120000Y-12213333D01*
X13110476Y-12194286D01*
X13110476Y-12137143D01*
X13120000Y-12118095D01*
X13129523Y-12108572D01*
X13148571Y-12099048D01*
X13177143Y-12099048D01*
X13196190Y-12108572D01*
X13205714Y-12118095D01*
X13215238Y-12137143D01*
X13215238Y-12194286D01*
X13205714Y-12213333D01*
X13196190Y-12222857D01*
X13177143Y-12232381D01*
X13148571Y-12232381D01*
X13329523Y-12232381D02*
X13310476Y-12222857D01*
X13300952Y-12203810D01*
X13300952Y-12032381D01*
X13481904Y-12222857D02*
X13462857Y-12232381D01*
X13424762Y-12232381D01*
X13405714Y-12222857D01*
X13396190Y-12203810D01*
X13396190Y-12127619D01*
X13405714Y-12108572D01*
X13424762Y-12099048D01*
X13462857Y-12099048D01*
X13481904Y-12108572D01*
X13491428Y-12127619D01*
X13491428Y-12146667D01*
X13396190Y-12165714D01*
X13567619Y-12222857D02*
X13586666Y-12232381D01*
X13624762Y-12232381D01*
X13643809Y-12222857D01*
X13653333Y-12203810D01*
X13653333Y-12194286D01*
X13643809Y-12175238D01*
X13624762Y-12165714D01*
X13596190Y-12165714D01*
X13577143Y-12156191D01*
X13567619Y-12137143D01*
X13567619Y-12127619D01*
X13577143Y-12108572D01*
X13596190Y-12099048D01*
X13624762Y-12099048D01*
X13643809Y-12108572D01*
X13720000Y-12308572D02*
X13729523Y-12299048D01*
X13748571Y-12270476D01*
X13758095Y-12251429D01*
X13767619Y-12222857D01*
X13777143Y-12175238D01*
X13777143Y-12137143D01*
X13767619Y-12089524D01*
X13758095Y-12060953D01*
X13748571Y-12041905D01*
X13729523Y-12013333D01*
X13720000Y-12003810D01*
X14081904Y-12308572D02*
X14072381Y-12299048D01*
X14053333Y-12270476D01*
X14043809Y-12251429D01*
X14034285Y-12222857D01*
X14024762Y-12175238D01*
X14024762Y-12137143D01*
X14034285Y-12089524D01*
X14043809Y-12060953D01*
X14053333Y-12041905D01*
X14072381Y-12013333D01*
X14081904Y-12003810D01*
X14158095Y-12099048D02*
X14158095Y-12232381D01*
X14158095Y-12118095D02*
X14167619Y-12108572D01*
X14186666Y-12099048D01*
X14215238Y-12099048D01*
X14234285Y-12108572D01*
X14243809Y-12127619D01*
X14243809Y-12232381D01*
X14367619Y-12232381D02*
X14348571Y-12222857D01*
X14339047Y-12213333D01*
X14329523Y-12194286D01*
X14329523Y-12137143D01*
X14339047Y-12118095D01*
X14348571Y-12108572D01*
X14367619Y-12099048D01*
X14396190Y-12099048D01*
X14415238Y-12108572D01*
X14424762Y-12118095D01*
X14434285Y-12137143D01*
X14434285Y-12194286D01*
X14424762Y-12213333D01*
X14415238Y-12222857D01*
X14396190Y-12232381D01*
X14367619Y-12232381D01*
X14491428Y-12099048D02*
X14567619Y-12099048D01*
X14520000Y-12032381D02*
X14520000Y-12203810D01*
X14529523Y-12222857D01*
X14548571Y-12232381D01*
X14567619Y-12232381D01*
X14786666Y-12099048D02*
X14786666Y-12299048D01*
X14786666Y-12108572D02*
X14805714Y-12099048D01*
X14843809Y-12099048D01*
X14862857Y-12108572D01*
X14872381Y-12118095D01*
X14881904Y-12137143D01*
X14881904Y-12194286D01*
X14872381Y-12213333D01*
X14862857Y-12222857D01*
X14843809Y-12232381D01*
X14805714Y-12232381D01*
X14786666Y-12222857D01*
X14996190Y-12232381D02*
X14977143Y-12222857D01*
X14967619Y-12203810D01*
X14967619Y-12032381D01*
X15158095Y-12232381D02*
X15158095Y-12127619D01*
X15148571Y-12108572D01*
X15129523Y-12099048D01*
X15091428Y-12099048D01*
X15072381Y-12108572D01*
X15158095Y-12222857D02*
X15139047Y-12232381D01*
X15091428Y-12232381D01*
X15072381Y-12222857D01*
X15062857Y-12203810D01*
X15062857Y-12184762D01*
X15072381Y-12165714D01*
X15091428Y-12156191D01*
X15139047Y-12156191D01*
X15158095Y-12146667D01*
X15224762Y-12099048D02*
X15300952Y-12099048D01*
X15253333Y-12032381D02*
X15253333Y-12203810D01*
X15262857Y-12222857D01*
X15281904Y-12232381D01*
X15300952Y-12232381D01*
X15443809Y-12222857D02*
X15424762Y-12232381D01*
X15386666Y-12232381D01*
X15367619Y-12222857D01*
X15358095Y-12203810D01*
X15358095Y-12127619D01*
X15367619Y-12108572D01*
X15386666Y-12099048D01*
X15424762Y-12099048D01*
X15443809Y-12108572D01*
X15453333Y-12127619D01*
X15453333Y-12146667D01*
X15358095Y-12165714D01*
X15624762Y-12232381D02*
X15624762Y-12032381D01*
X15624762Y-12222857D02*
X15605714Y-12232381D01*
X15567619Y-12232381D01*
X15548571Y-12222857D01*
X15539047Y-12213333D01*
X15529523Y-12194286D01*
X15529523Y-12137143D01*
X15539047Y-12118095D01*
X15548571Y-12108572D01*
X15567619Y-12099048D01*
X15605714Y-12099048D01*
X15624762Y-12108572D01*
X15700952Y-12308572D02*
X15710476Y-12299048D01*
X15729523Y-12270476D01*
X15739047Y-12251429D01*
X15748571Y-12222857D01*
X15758095Y-12175238D01*
X15758095Y-12137143D01*
X15748571Y-12089524D01*
X15739047Y-12060953D01*
X15729523Y-12041905D01*
X15710476Y-12013333D01*
X15700952Y-12003810D01*
M02*
